%TF.GenerationSoftware,KiCad,Pcbnew,8.0.3*%
%TF.CreationDate,2024-06-16T23:52:20-05:00*%
%TF.ProjectId,Linear Power Supply - Summer 2024,4c696e65-6172-4205-906f-776572205375,rev?*%
%TF.SameCoordinates,Original*%
%TF.FileFunction,Drillmap*%
%TF.FilePolarity,Positive*%
%FSLAX45Y45*%
G04 Gerber Fmt 4.5, Leading zero omitted, Abs format (unit mm)*
G04 Created by KiCad (PCBNEW 8.0.3) date 2024-06-16 23:52:20*
%MOMM*%
%LPD*%
G01*
G04 APERTURE LIST*
%ADD10C,0.050000*%
%ADD11C,0.200000*%
G04 APERTURE END LIST*
D10*
X21050000Y-5253553D02*
X10353553Y-5253553D01*
X10350000Y-13642893D02*
X21050000Y-13642893D01*
X9853553Y-13146447D02*
X9853553Y-5753553D01*
X21546447Y-13146447D02*
X21546447Y-5900000D01*
X10350000Y-13642893D02*
G75*
G02*
X9853553Y-13146447I0J496447D01*
G01*
X21546447Y-13146447D02*
G75*
G02*
X21050000Y-13642893I-496447J0D01*
G01*
X9853553Y-5753553D02*
G75*
G02*
X10353553Y-5253553I500000J0D01*
G01*
X21546447Y-5900000D02*
X21550000Y-5803553D01*
X21550000Y-5803553D02*
X21550000Y-5753553D01*
X21050000Y-5253553D02*
G75*
G02*
X21550000Y-5753553I0J-500000D01*
G01*
D11*
X10111830Y-13956877D02*
X10111830Y-13756877D01*
X10111830Y-13756877D02*
X10159449Y-13756877D01*
X10159449Y-13756877D02*
X10188021Y-13766401D01*
X10188021Y-13766401D02*
X10207068Y-13785448D01*
X10207068Y-13785448D02*
X10216592Y-13804496D01*
X10216592Y-13804496D02*
X10226116Y-13842591D01*
X10226116Y-13842591D02*
X10226116Y-13871163D01*
X10226116Y-13871163D02*
X10216592Y-13909258D01*
X10216592Y-13909258D02*
X10207068Y-13928305D01*
X10207068Y-13928305D02*
X10188021Y-13947353D01*
X10188021Y-13947353D02*
X10159449Y-13956877D01*
X10159449Y-13956877D02*
X10111830Y-13956877D01*
X10311830Y-13956877D02*
X10311830Y-13823544D01*
X10311830Y-13861639D02*
X10321354Y-13842591D01*
X10321354Y-13842591D02*
X10330878Y-13833067D01*
X10330878Y-13833067D02*
X10349925Y-13823544D01*
X10349925Y-13823544D02*
X10368973Y-13823544D01*
X10435640Y-13956877D02*
X10435640Y-13823544D01*
X10435640Y-13756877D02*
X10426116Y-13766401D01*
X10426116Y-13766401D02*
X10435640Y-13775925D01*
X10435640Y-13775925D02*
X10445164Y-13766401D01*
X10445164Y-13766401D02*
X10435640Y-13756877D01*
X10435640Y-13756877D02*
X10435640Y-13775925D01*
X10559449Y-13956877D02*
X10540402Y-13947353D01*
X10540402Y-13947353D02*
X10530878Y-13928305D01*
X10530878Y-13928305D02*
X10530878Y-13756877D01*
X10664211Y-13956877D02*
X10645164Y-13947353D01*
X10645164Y-13947353D02*
X10635640Y-13928305D01*
X10635640Y-13928305D02*
X10635640Y-13756877D01*
X10892783Y-13956877D02*
X10892783Y-13756877D01*
X10892783Y-13756877D02*
X10959449Y-13899734D01*
X10959449Y-13899734D02*
X11026116Y-13756877D01*
X11026116Y-13756877D02*
X11026116Y-13956877D01*
X11207068Y-13956877D02*
X11207068Y-13852115D01*
X11207068Y-13852115D02*
X11197544Y-13833067D01*
X11197544Y-13833067D02*
X11178497Y-13823544D01*
X11178497Y-13823544D02*
X11140402Y-13823544D01*
X11140402Y-13823544D02*
X11121354Y-13833067D01*
X11207068Y-13947353D02*
X11188021Y-13956877D01*
X11188021Y-13956877D02*
X11140402Y-13956877D01*
X11140402Y-13956877D02*
X11121354Y-13947353D01*
X11121354Y-13947353D02*
X11111830Y-13928305D01*
X11111830Y-13928305D02*
X11111830Y-13909258D01*
X11111830Y-13909258D02*
X11121354Y-13890210D01*
X11121354Y-13890210D02*
X11140402Y-13880686D01*
X11140402Y-13880686D02*
X11188021Y-13880686D01*
X11188021Y-13880686D02*
X11207068Y-13871163D01*
X11302306Y-13823544D02*
X11302306Y-14023544D01*
X11302306Y-13833067D02*
X11321354Y-13823544D01*
X11321354Y-13823544D02*
X11359449Y-13823544D01*
X11359449Y-13823544D02*
X11378497Y-13833067D01*
X11378497Y-13833067D02*
X11388021Y-13842591D01*
X11388021Y-13842591D02*
X11397544Y-13861639D01*
X11397544Y-13861639D02*
X11397544Y-13918782D01*
X11397544Y-13918782D02*
X11388021Y-13937829D01*
X11388021Y-13937829D02*
X11378497Y-13947353D01*
X11378497Y-13947353D02*
X11359449Y-13956877D01*
X11359449Y-13956877D02*
X11321354Y-13956877D01*
X11321354Y-13956877D02*
X11302306Y-13947353D01*
X11483259Y-13937829D02*
X11492783Y-13947353D01*
X11492783Y-13947353D02*
X11483259Y-13956877D01*
X11483259Y-13956877D02*
X11473735Y-13947353D01*
X11473735Y-13947353D02*
X11483259Y-13937829D01*
X11483259Y-13937829D02*
X11483259Y-13956877D01*
X11483259Y-13833067D02*
X11492783Y-13842591D01*
X11492783Y-13842591D02*
X11483259Y-13852115D01*
X11483259Y-13852115D02*
X11473735Y-13842591D01*
X11473735Y-13842591D02*
X11483259Y-13833067D01*
X11483259Y-13833067D02*
X11483259Y-13852115D01*
M02*
