G04 #@! TF.GenerationSoftware,KiCad,Pcbnew,8.0.3*
G04 #@! TF.CreationDate,2024-06-16T23:51:53-05:00*
G04 #@! TF.ProjectId,Linear Power Supply - Summer 2024,4c696e65-6172-4205-906f-776572205375,rev?*
G04 #@! TF.SameCoordinates,Original*
G04 #@! TF.FileFunction,Copper,L1,Top*
G04 #@! TF.FilePolarity,Positive*
%FSLAX46Y46*%
G04 Gerber Fmt 4.6, Leading zero omitted, Abs format (unit mm)*
G04 Created by KiCad (PCBNEW 8.0.3) date 2024-06-16 23:51:53*
%MOMM*%
%LPD*%
G01*
G04 APERTURE LIST*
G04 #@! TA.AperFunction,ComponentPad*
%ADD10R,1.524000X1.524000*%
G04 #@! TD*
G04 #@! TA.AperFunction,ComponentPad*
%ADD11C,1.524000*%
G04 #@! TD*
G04 #@! TA.AperFunction,ComponentPad*
%ADD12C,1.980000*%
G04 #@! TD*
G04 #@! TA.AperFunction,ComponentPad*
%ADD13R,1.980000X1.980000*%
G04 #@! TD*
G04 #@! TA.AperFunction,ComponentPad*
%ADD14C,2.130000*%
G04 #@! TD*
G04 #@! TA.AperFunction,ComponentPad*
%ADD15R,2.130000X2.130000*%
G04 #@! TD*
G04 #@! TA.AperFunction,ComponentPad*
%ADD16C,3.800000*%
G04 #@! TD*
G04 #@! TA.AperFunction,ComponentPad*
%ADD17C,1.400000*%
G04 #@! TD*
G04 #@! TA.AperFunction,ComponentPad*
%ADD18O,1.400000X1.400000*%
G04 #@! TD*
G04 #@! TA.AperFunction,ComponentPad*
%ADD19C,2.340000*%
G04 #@! TD*
G04 #@! TA.AperFunction,ComponentPad*
%ADD20R,2.286000X2.286000*%
G04 #@! TD*
G04 #@! TA.AperFunction,ComponentPad*
%ADD21C,2.286000*%
G04 #@! TD*
G04 #@! TA.AperFunction,ViaPad*
%ADD22C,2.250000*%
G04 #@! TD*
G04 #@! TA.AperFunction,ViaPad*
%ADD23C,1.750000*%
G04 #@! TD*
G04 #@! TA.AperFunction,ViaPad*
%ADD24C,2.000000*%
G04 #@! TD*
G04 #@! TA.AperFunction,Conductor*
%ADD25C,0.800000*%
G04 #@! TD*
G04 #@! TA.AperFunction,Conductor*
%ADD26C,1.350000*%
G04 #@! TD*
G04 #@! TA.AperFunction,Conductor*
%ADD27C,0.254000*%
G04 #@! TD*
G04 APERTURE END LIST*
D10*
X204186000Y-100503700D03*
D11*
X204186000Y-94003700D03*
D10*
X189436000Y-86000000D03*
D11*
X189436000Y-83000000D03*
D12*
X200686000Y-114953700D03*
X200686000Y-117503700D03*
D13*
X200686000Y-120053700D03*
D14*
X189186000Y-95003700D03*
X189186000Y-102503700D03*
X189186000Y-110003700D03*
D15*
X189186000Y-120003700D03*
D16*
X104000000Y-131500000D03*
X210500000Y-57000000D03*
D17*
X208500000Y-114690000D03*
D18*
X208500000Y-122310000D03*
D19*
X173500000Y-131900000D03*
X168500000Y-129400000D03*
X163500000Y-131900000D03*
D16*
X103000000Y-57000000D03*
D20*
X113314000Y-115236300D03*
D21*
X113314000Y-99996300D03*
X113314000Y-67763700D03*
X113314000Y-83003700D03*
X168686000Y-115236300D03*
X168686000Y-99996300D03*
X168686000Y-67763700D03*
X168686000Y-83003700D03*
D16*
X181500000Y-131500000D03*
X210500000Y-131464466D03*
X180000000Y-57000000D03*
D22*
X136500000Y-129000000D03*
X146500000Y-129000000D03*
D23*
X141500000Y-129000000D03*
D22*
X151750000Y-129000000D03*
D24*
X192150000Y-128500000D03*
X201000000Y-128500000D03*
D25*
X150496300Y-120003700D02*
X189186000Y-120003700D01*
X141500000Y-129000000D02*
X150496300Y-120003700D01*
D26*
X189650000Y-126000000D02*
X192150000Y-128500000D01*
X149500000Y-126000000D02*
X189650000Y-126000000D01*
X146500000Y-129000000D02*
X149500000Y-126000000D01*
D25*
X179330000Y-133670000D02*
X181500000Y-131500000D01*
X106170000Y-133670000D02*
X179330000Y-133670000D01*
X104000000Y-131500000D02*
X106170000Y-133670000D01*
X103000000Y-130500000D02*
X104000000Y-131500000D01*
X103000000Y-57000000D02*
X103000000Y-130500000D01*
X209500000Y-56000000D02*
X210500000Y-57000000D01*
X210500000Y-131464466D02*
X210500000Y-57000000D01*
X208464466Y-133500000D02*
X210500000Y-131464466D01*
X183500000Y-133500000D02*
X208464466Y-133500000D01*
D27*
X194500000Y-132000000D02*
X194500000Y-128000000D01*
X194500000Y-128000000D02*
X200686000Y-121814000D01*
X194000000Y-132500000D02*
X194500000Y-132000000D01*
X184000000Y-128500000D02*
X185000000Y-129500000D01*
X186500000Y-129500000D02*
X189500000Y-132500000D01*
X173000000Y-128500000D02*
X184000000Y-128500000D01*
X189500000Y-132500000D02*
X194000000Y-132500000D01*
X169600000Y-131900000D02*
X173000000Y-128500000D01*
X163500000Y-131900000D02*
X169600000Y-131900000D01*
X185000000Y-129500000D02*
X186500000Y-129500000D01*
X200686000Y-121814000D02*
X200686000Y-120053700D01*
D25*
X195000000Y-90000000D02*
X191000000Y-86000000D01*
X206432300Y-90000000D02*
X195000000Y-90000000D01*
X191000000Y-86000000D02*
X189436000Y-86000000D01*
X206436000Y-90003700D02*
X206432300Y-90000000D01*
D26*
X194236000Y-114953700D02*
X200686000Y-114953700D01*
X189186000Y-120003700D02*
X194236000Y-114953700D01*
X192150000Y-124859700D02*
X199506000Y-117503700D01*
X192150000Y-128500000D02*
X192150000Y-124859700D01*
X199506000Y-117503700D02*
X200686000Y-117503700D01*
D27*
X208500000Y-122876662D02*
X208500000Y-122310000D01*
D25*
X183500000Y-133500000D02*
X181500000Y-131500000D01*
X211000000Y-56000000D02*
X211500000Y-56500000D01*
X103000000Y-132000000D02*
X103000000Y-131500000D01*
X168686000Y-115236300D02*
X183953400Y-115236300D01*
X183953400Y-115236300D02*
X189186000Y-110003700D01*
X168686000Y-83003700D02*
X188186000Y-102503700D01*
X188186000Y-102503700D02*
X189186000Y-102503700D01*
X200686000Y-114953700D02*
X204186000Y-111453700D01*
X204186000Y-111453700D02*
X204186000Y-100503700D01*
D27*
X206243700Y-120053700D02*
X208500000Y-122310000D01*
X200686000Y-120053700D02*
X206243700Y-120053700D01*
D25*
X207436000Y-90003700D02*
X206436000Y-90003700D01*
X200686000Y-117503700D02*
X207436000Y-110753700D01*
X208500000Y-114690000D02*
X208500000Y-111817700D01*
X208500000Y-111817700D02*
X207436000Y-110753700D01*
X207436000Y-110753700D02*
X207436000Y-90003700D01*
D26*
X113314000Y-99996300D02*
X113314000Y-83003700D01*
X113314000Y-115236300D02*
X115953400Y-115236300D01*
X119186000Y-73635700D02*
X113314000Y-67763700D01*
X119186000Y-112003700D02*
X119186000Y-73635700D01*
X115953400Y-115236300D02*
X119186000Y-112003700D01*
D25*
X165446000Y-71003700D02*
X168686000Y-67763700D01*
X168686000Y-99996300D02*
X165436000Y-96746300D01*
X165436000Y-71003700D02*
X165446000Y-71003700D01*
X165436000Y-96746300D02*
X165436000Y-71003700D01*
M02*
