G04 #@! TF.GenerationSoftware,KiCad,Pcbnew,8.0.3*
G04 #@! TF.CreationDate,2024-07-03T00:21:58-05:00*
G04 #@! TF.ProjectId,Linear Power Supply - Summer 2024,4c696e65-6172-4205-906f-776572205375,rev?*
G04 #@! TF.SameCoordinates,Original*
G04 #@! TF.FileFunction,Legend,Top*
G04 #@! TF.FilePolarity,Positive*
%FSLAX46Y46*%
G04 Gerber Fmt 4.6, Leading zero omitted, Abs format (unit mm)*
G04 Created by KiCad (PCBNEW 8.0.3) date 2024-07-03 00:21:58*
%MOMM*%
%LPD*%
G01*
G04 APERTURE LIST*
G04 Aperture macros list*
%AMRoundRect*
0 Rectangle with rounded corners*
0 $1 Rounding radius*
0 $2 $3 $4 $5 $6 $7 $8 $9 X,Y pos of 4 corners*
0 Add a 4 corners polygon primitive as box body*
4,1,4,$2,$3,$4,$5,$6,$7,$8,$9,$2,$3,0*
0 Add four circle primitives for the rounded corners*
1,1,$1+$1,$2,$3*
1,1,$1+$1,$4,$5*
1,1,$1+$1,$6,$7*
1,1,$1+$1,$8,$9*
0 Add four rect primitives between the rounded corners*
20,1,$1+$1,$2,$3,$4,$5,0*
20,1,$1+$1,$4,$5,$6,$7,0*
20,1,$1+$1,$6,$7,$8,$9,0*
20,1,$1+$1,$8,$9,$2,$3,0*%
G04 Aperture macros list end*
%ADD10C,0.100000*%
%ADD11C,0.250000*%
%ADD12C,0.300000*%
%ADD13C,0.254000*%
%ADD14C,0.150000*%
%ADD15C,0.000000*%
%ADD16C,0.120000*%
%ADD17C,0.200000*%
%ADD18C,0.127000*%
%ADD19C,1.950000*%
%ADD20R,1.950000X1.950000*%
%ADD21C,3.800000*%
%ADD22C,1.400000*%
%ADD23O,1.400000X1.400000*%
%ADD24R,1.524000X1.524000*%
%ADD25C,1.750000*%
%ADD26C,1.524000*%
%ADD27C,2.490000*%
%ADD28RoundRect,0.102000X1.143000X-1.143000X1.143000X1.143000X-1.143000X1.143000X-1.143000X-1.143000X0*%
%ADD29C,1.980000*%
%ADD30R,1.980000X1.980000*%
%ADD31C,2.130000*%
%ADD32R,2.130000X2.130000*%
G04 APERTURE END LIST*
D10*
G36*
X140646963Y-138830000D02*
G01*
X140646963Y-138648283D01*
X141036775Y-138250900D01*
X141067944Y-138210633D01*
X141087570Y-138165548D01*
X141095651Y-138115645D01*
X141095882Y-138105087D01*
X141088315Y-138053953D01*
X141063562Y-138009348D01*
X141061443Y-138006901D01*
X141021510Y-137977592D01*
X140970585Y-137967822D01*
X140921323Y-137976677D01*
X140879305Y-138005643D01*
X140877040Y-138008122D01*
X140851269Y-138051002D01*
X140841452Y-138100223D01*
X140841136Y-138111926D01*
X140630111Y-138111926D01*
X140633607Y-138058647D01*
X140644098Y-138009272D01*
X140663957Y-137958988D01*
X140674319Y-137940223D01*
X140705393Y-137897352D01*
X140743050Y-137860634D01*
X140787290Y-137830070D01*
X140796928Y-137824696D01*
X140842824Y-137804388D01*
X140892584Y-137790727D01*
X140946208Y-137783712D01*
X140977668Y-137782686D01*
X141031850Y-137785797D01*
X141082013Y-137795128D01*
X141133037Y-137812793D01*
X141152058Y-137822009D01*
X141195573Y-137849510D01*
X141232696Y-137883165D01*
X141263427Y-137922974D01*
X141268806Y-137931674D01*
X141291088Y-137977937D01*
X141305118Y-138028494D01*
X141310688Y-138077665D01*
X141311060Y-138094829D01*
X141307625Y-138145948D01*
X141297321Y-138196113D01*
X141280148Y-138245324D01*
X141275889Y-138255052D01*
X141252666Y-138298567D01*
X141222565Y-138341734D01*
X141190035Y-138379813D01*
X141162071Y-138408192D01*
X140917096Y-138644863D01*
X141322295Y-138644863D01*
X141322295Y-138830000D01*
X140646963Y-138830000D01*
G37*
G36*
X135612595Y-138830000D02*
G01*
X135612595Y-138644863D01*
X135871493Y-138644863D01*
X135871493Y-138023998D01*
X135609665Y-138212065D01*
X135609665Y-137979057D01*
X135850244Y-137798318D01*
X136082519Y-137798318D01*
X136082519Y-138644863D01*
X136287927Y-138644863D01*
X136287927Y-138830000D01*
X135612595Y-138830000D01*
G37*
G36*
X146166434Y-138845631D02*
G01*
X146109633Y-138842815D01*
X146057383Y-138834365D01*
X146009684Y-138820283D01*
X145959787Y-138796735D01*
X145916085Y-138765519D01*
X145879920Y-138727712D01*
X145852639Y-138684389D01*
X145834239Y-138635549D01*
X145824723Y-138581192D01*
X145823272Y-138547655D01*
X146034298Y-138547655D01*
X146044362Y-138596986D01*
X146069958Y-138630209D01*
X146115067Y-138653840D01*
X146166434Y-138660495D01*
X146215407Y-138654698D01*
X146261174Y-138632072D01*
X146263398Y-138630209D01*
X146291837Y-138589182D01*
X146298569Y-138547655D01*
X146298569Y-138465833D01*
X146291002Y-138417308D01*
X146264131Y-138376196D01*
X146219406Y-138351421D01*
X146170359Y-138344476D01*
X146166434Y-138344445D01*
X146025750Y-138344445D01*
X146025750Y-138181535D01*
X146250942Y-137983454D01*
X145865282Y-137983454D01*
X145865282Y-137798318D01*
X146478820Y-137798318D01*
X146478820Y-137970509D01*
X146252163Y-138174696D01*
X146302627Y-138186622D01*
X146354090Y-138206692D01*
X146398928Y-138233631D01*
X146437140Y-138267440D01*
X146441451Y-138272149D01*
X146471264Y-138312815D01*
X146492559Y-138358611D01*
X146505336Y-138409535D01*
X146509528Y-138458302D01*
X146509595Y-138465589D01*
X146509595Y-138549120D01*
X146506358Y-138598494D01*
X146494398Y-138651017D01*
X146473626Y-138698070D01*
X146444042Y-138739654D01*
X146417515Y-138766008D01*
X146374028Y-138797033D01*
X146324136Y-138820438D01*
X146276274Y-138834434D01*
X146223707Y-138842832D01*
X146166434Y-138845631D01*
G37*
D11*
G36*
X158789916Y-126330000D02*
G01*
X158535170Y-125298318D01*
X158753279Y-125298318D01*
X158895429Y-125951179D01*
X158905408Y-126000867D01*
X158912770Y-126037641D01*
X158922234Y-126086062D01*
X158929134Y-126126789D01*
X158936752Y-126077569D01*
X158943056Y-126037641D01*
X158951238Y-125989403D01*
X158958688Y-125949713D01*
X159096441Y-125298318D01*
X159308932Y-125298318D01*
X159057117Y-126330000D01*
X158789916Y-126330000D01*
G37*
G36*
X159817106Y-125285752D02*
G01*
X159868477Y-125294948D01*
X159915383Y-125310275D01*
X159964463Y-125335906D01*
X160007466Y-125369881D01*
X160043060Y-125411114D01*
X160069910Y-125458518D01*
X160088019Y-125512093D01*
X160096583Y-125562926D01*
X160098813Y-125608750D01*
X160098813Y-126019567D01*
X160095602Y-126073706D01*
X160085968Y-126123465D01*
X160066610Y-126175984D01*
X160038510Y-126222541D01*
X160007466Y-126257704D01*
X159964463Y-126291964D01*
X159915383Y-126317810D01*
X159868477Y-126333266D01*
X159817106Y-126342540D01*
X159761270Y-126345631D01*
X159705433Y-126342540D01*
X159654062Y-126333266D01*
X159607156Y-126317810D01*
X159558076Y-126291964D01*
X159515073Y-126257704D01*
X159479480Y-126216255D01*
X159452629Y-126168846D01*
X159434520Y-126115476D01*
X159425956Y-126064987D01*
X159423726Y-126019567D01*
X159423726Y-125608750D01*
X159424530Y-125595073D01*
X159634752Y-125595073D01*
X159634752Y-126033244D01*
X159640806Y-126082827D01*
X159666381Y-126128682D01*
X159711972Y-126154406D01*
X159761270Y-126160495D01*
X159810567Y-126154406D01*
X159856158Y-126128682D01*
X159881733Y-126082827D01*
X159887787Y-126033244D01*
X159887787Y-125595073D01*
X159881733Y-125545490D01*
X159856158Y-125499635D01*
X159810567Y-125473911D01*
X159761270Y-125467822D01*
X159711972Y-125473911D01*
X159666381Y-125499635D01*
X159640806Y-125545490D01*
X159634752Y-125595073D01*
X159424530Y-125595073D01*
X159426937Y-125554139D01*
X159436572Y-125504062D01*
X159455929Y-125451368D01*
X159484029Y-125404846D01*
X159515073Y-125369881D01*
X159558076Y-125335906D01*
X159607156Y-125310275D01*
X159654062Y-125294948D01*
X159705433Y-125285752D01*
X159761270Y-125282686D01*
X159817106Y-125285752D01*
G37*
G36*
X160340125Y-126330000D02*
G01*
X160340125Y-125298318D01*
X160551151Y-125298318D01*
X160551151Y-126144863D01*
X160966364Y-126144863D01*
X160966364Y-126330000D01*
X160340125Y-126330000D01*
G37*
G36*
X161334193Y-126330000D02*
G01*
X161334193Y-125483454D01*
X161073831Y-125483454D01*
X161073831Y-125298318D01*
X161805582Y-125298318D01*
X161805582Y-125483454D01*
X161545219Y-125483454D01*
X161545219Y-126330000D01*
X161334193Y-126330000D01*
G37*
G36*
X162053733Y-125954842D02*
G01*
X162053733Y-125751632D01*
X162504117Y-125751632D01*
X162504117Y-125954842D01*
X162053733Y-125954842D01*
G37*
G36*
X163505024Y-126330000D02*
G01*
X163289846Y-126330000D01*
X163240509Y-126095526D01*
X162995778Y-126095526D01*
X162946441Y-126330000D01*
X162731263Y-126330000D01*
X162830463Y-125923579D01*
X163030949Y-125923579D01*
X163203872Y-125923579D01*
X163154780Y-125676894D01*
X163145284Y-125627138D01*
X163135574Y-125577704D01*
X163134263Y-125571137D01*
X163124483Y-125521822D01*
X163118143Y-125489071D01*
X163109192Y-125537432D01*
X163103244Y-125570404D01*
X163094289Y-125619270D01*
X163084368Y-125668779D01*
X163082972Y-125675429D01*
X163030949Y-125923579D01*
X162830463Y-125923579D01*
X162983077Y-125298318D01*
X163250279Y-125298318D01*
X163505024Y-126330000D01*
G37*
G36*
X163594417Y-126330000D02*
G01*
X163594417Y-125298318D01*
X163851849Y-125298318D01*
X163955896Y-125740397D01*
X164059944Y-125298318D01*
X164320307Y-125298318D01*
X164320307Y-126330000D01*
X164127599Y-126330000D01*
X164127599Y-125936036D01*
X164128063Y-125878471D01*
X164129454Y-125821730D01*
X164131772Y-125765814D01*
X164135018Y-125710722D01*
X164139191Y-125656454D01*
X164140788Y-125638548D01*
X164145851Y-125586187D01*
X164150966Y-125536264D01*
X164156998Y-125481102D01*
X164163101Y-125429261D01*
X164168387Y-125387466D01*
X164038939Y-125891828D01*
X163870167Y-125891828D01*
X163743405Y-125399923D01*
X163750519Y-125448726D01*
X163757693Y-125503787D01*
X163764021Y-125557100D01*
X163769482Y-125606611D01*
X163772226Y-125632686D01*
X163777289Y-125686439D01*
X163781305Y-125741634D01*
X163784273Y-125798271D01*
X163786193Y-125856352D01*
X163786993Y-125905854D01*
X163787124Y-125936036D01*
X163787124Y-126330000D01*
X163594417Y-126330000D01*
G37*
G36*
X164870082Y-125300882D02*
G01*
X164919129Y-125308576D01*
X164970183Y-125323362D01*
X165006873Y-125339351D01*
X165049450Y-125364864D01*
X165089960Y-125399239D01*
X165123315Y-125439959D01*
X165131926Y-125453412D01*
X165155367Y-125501688D01*
X165169041Y-125549378D01*
X165175683Y-125601087D01*
X165176378Y-125625359D01*
X165172823Y-125678203D01*
X165162158Y-125727377D01*
X165144384Y-125772880D01*
X165131437Y-125796573D01*
X165099891Y-125839607D01*
X165061427Y-125876200D01*
X165020896Y-125903628D01*
X165006140Y-125911612D01*
X164958837Y-125931329D01*
X164907050Y-125944593D01*
X164857255Y-125950966D01*
X164817585Y-125952400D01*
X164678367Y-125952400D01*
X164678367Y-126330000D01*
X164467341Y-126330000D01*
X164467341Y-125767264D01*
X164678367Y-125767264D01*
X164817585Y-125767264D01*
X164868000Y-125760613D01*
X164912105Y-125738574D01*
X164925296Y-125726964D01*
X164954047Y-125684567D01*
X164965000Y-125636669D01*
X164965352Y-125625359D01*
X164957685Y-125575738D01*
X164932454Y-125531495D01*
X164925296Y-125523754D01*
X164881679Y-125494828D01*
X164830028Y-125483808D01*
X164817585Y-125483454D01*
X164678367Y-125483454D01*
X164678367Y-125767264D01*
X164467341Y-125767264D01*
X164467341Y-125298318D01*
X164817585Y-125298318D01*
X164870082Y-125300882D01*
G37*
G36*
X166112072Y-126330000D02*
G01*
X166112072Y-125298318D01*
X166369504Y-125298318D01*
X166473551Y-125740397D01*
X166577599Y-125298318D01*
X166837962Y-125298318D01*
X166837962Y-126330000D01*
X166645254Y-126330000D01*
X166645254Y-125936036D01*
X166645718Y-125878471D01*
X166647109Y-125821730D01*
X166649427Y-125765814D01*
X166652673Y-125710722D01*
X166656846Y-125656454D01*
X166658443Y-125638548D01*
X166663507Y-125586187D01*
X166668621Y-125536264D01*
X166674654Y-125481102D01*
X166680756Y-125429261D01*
X166686043Y-125387466D01*
X166556594Y-125891828D01*
X166387822Y-125891828D01*
X166261060Y-125399923D01*
X166268174Y-125448726D01*
X166275348Y-125503787D01*
X166281676Y-125557100D01*
X166287137Y-125606611D01*
X166289881Y-125632686D01*
X166294944Y-125686439D01*
X166298960Y-125741634D01*
X166301928Y-125798271D01*
X166303849Y-125856352D01*
X166304649Y-125905854D01*
X166304780Y-125936036D01*
X166304780Y-126330000D01*
X166112072Y-126330000D01*
G37*
G36*
X167004780Y-126330000D02*
G01*
X167004780Y-125298318D01*
X167637857Y-125298318D01*
X167637857Y-125483454D01*
X167211653Y-125483454D01*
X167211653Y-125704738D01*
X167588520Y-125704738D01*
X167588520Y-125889874D01*
X167211653Y-125889874D01*
X167211653Y-126144863D01*
X167637857Y-126144863D01*
X167637857Y-126330000D01*
X167004780Y-126330000D01*
G37*
G36*
X168047941Y-126330000D02*
G01*
X168047941Y-125483454D01*
X167787578Y-125483454D01*
X167787578Y-125298318D01*
X168519330Y-125298318D01*
X168519330Y-125483454D01*
X168258967Y-125483454D01*
X168258967Y-126330000D01*
X168047941Y-126330000D01*
G37*
G36*
X168683217Y-126330000D02*
G01*
X168683217Y-125298318D01*
X169316294Y-125298318D01*
X169316294Y-125483454D01*
X168890090Y-125483454D01*
X168890090Y-125704738D01*
X169266957Y-125704738D01*
X169266957Y-125889874D01*
X168890090Y-125889874D01*
X168890090Y-126144863D01*
X169316294Y-126144863D01*
X169316294Y-126330000D01*
X168683217Y-126330000D01*
G37*
G36*
X169884876Y-125300699D02*
G01*
X169934167Y-125307843D01*
X169985204Y-125321573D01*
X170021667Y-125336420D01*
X170068360Y-125363253D01*
X170107992Y-125396431D01*
X170140564Y-125435953D01*
X170146231Y-125444619D01*
X170169673Y-125490935D01*
X170184432Y-125542259D01*
X170190293Y-125592734D01*
X170190683Y-125610460D01*
X170186839Y-125664872D01*
X170175305Y-125715999D01*
X170156081Y-125763841D01*
X170142079Y-125789002D01*
X170112034Y-125829801D01*
X170076580Y-125863723D01*
X170035716Y-125890766D01*
X170010676Y-125902819D01*
X170204605Y-126330000D01*
X169975505Y-126330000D01*
X169809420Y-125936769D01*
X169710990Y-125936769D01*
X169710990Y-126330000D01*
X169502651Y-126330000D01*
X169502651Y-125751632D01*
X169710990Y-125751632D01*
X169831891Y-125751632D01*
X169883803Y-125745949D01*
X169930679Y-125725266D01*
X169940823Y-125717194D01*
X169969949Y-125675612D01*
X169979620Y-125624095D01*
X169979658Y-125620230D01*
X169972224Y-125568945D01*
X169947763Y-125526345D01*
X169940823Y-125519357D01*
X169897668Y-125493587D01*
X169848980Y-125484015D01*
X169831891Y-125483454D01*
X169710990Y-125483454D01*
X169710990Y-125751632D01*
X169502651Y-125751632D01*
X169502651Y-125298318D01*
X169831891Y-125298318D01*
X169884876Y-125300699D01*
G37*
G36*
X136789916Y-126330000D02*
G01*
X136535170Y-125298318D01*
X136753279Y-125298318D01*
X136895429Y-125951179D01*
X136905408Y-126000867D01*
X136912770Y-126037641D01*
X136922234Y-126086062D01*
X136929134Y-126126789D01*
X136936752Y-126077569D01*
X136943056Y-126037641D01*
X136951238Y-125989403D01*
X136958688Y-125949713D01*
X137096441Y-125298318D01*
X137308932Y-125298318D01*
X137057117Y-126330000D01*
X136789916Y-126330000D01*
G37*
G36*
X137817106Y-125285752D02*
G01*
X137868477Y-125294948D01*
X137915383Y-125310275D01*
X137964463Y-125335906D01*
X138007466Y-125369881D01*
X138043060Y-125411114D01*
X138069910Y-125458518D01*
X138088019Y-125512093D01*
X138096583Y-125562926D01*
X138098813Y-125608750D01*
X138098813Y-126019567D01*
X138095602Y-126073706D01*
X138085968Y-126123465D01*
X138066610Y-126175984D01*
X138038510Y-126222541D01*
X138007466Y-126257704D01*
X137964463Y-126291964D01*
X137915383Y-126317810D01*
X137868477Y-126333266D01*
X137817106Y-126342540D01*
X137761270Y-126345631D01*
X137705433Y-126342540D01*
X137654062Y-126333266D01*
X137607156Y-126317810D01*
X137558076Y-126291964D01*
X137515073Y-126257704D01*
X137479480Y-126216255D01*
X137452629Y-126168846D01*
X137434520Y-126115476D01*
X137425956Y-126064987D01*
X137423726Y-126019567D01*
X137423726Y-125608750D01*
X137424530Y-125595073D01*
X137634752Y-125595073D01*
X137634752Y-126033244D01*
X137640806Y-126082827D01*
X137666381Y-126128682D01*
X137711972Y-126154406D01*
X137761270Y-126160495D01*
X137810567Y-126154406D01*
X137856158Y-126128682D01*
X137881733Y-126082827D01*
X137887787Y-126033244D01*
X137887787Y-125595073D01*
X137881733Y-125545490D01*
X137856158Y-125499635D01*
X137810567Y-125473911D01*
X137761270Y-125467822D01*
X137711972Y-125473911D01*
X137666381Y-125499635D01*
X137640806Y-125545490D01*
X137634752Y-125595073D01*
X137424530Y-125595073D01*
X137426937Y-125554139D01*
X137436572Y-125504062D01*
X137455929Y-125451368D01*
X137484029Y-125404846D01*
X137515073Y-125369881D01*
X137558076Y-125335906D01*
X137607156Y-125310275D01*
X137654062Y-125294948D01*
X137705433Y-125285752D01*
X137761270Y-125282686D01*
X137817106Y-125285752D01*
G37*
G36*
X138340125Y-126330000D02*
G01*
X138340125Y-125298318D01*
X138551151Y-125298318D01*
X138551151Y-126144863D01*
X138966364Y-126144863D01*
X138966364Y-126330000D01*
X138340125Y-126330000D01*
G37*
G36*
X139334193Y-126330000D02*
G01*
X139334193Y-125483454D01*
X139073831Y-125483454D01*
X139073831Y-125298318D01*
X139805582Y-125298318D01*
X139805582Y-125483454D01*
X139545219Y-125483454D01*
X139545219Y-126330000D01*
X139334193Y-126330000D01*
G37*
G36*
X140665806Y-126330000D02*
G01*
X140450628Y-126330000D01*
X140401290Y-126095526D01*
X140156559Y-126095526D01*
X140107222Y-126330000D01*
X139892044Y-126330000D01*
X139991244Y-125923579D01*
X140191730Y-125923579D01*
X140364654Y-125923579D01*
X140315561Y-125676894D01*
X140306066Y-125627138D01*
X140296356Y-125577704D01*
X140295045Y-125571137D01*
X140285265Y-125521822D01*
X140278925Y-125489071D01*
X140269974Y-125537432D01*
X140264026Y-125570404D01*
X140255071Y-125619270D01*
X140245150Y-125668779D01*
X140243754Y-125675429D01*
X140191730Y-125923579D01*
X139991244Y-125923579D01*
X140143859Y-125298318D01*
X140411060Y-125298318D01*
X140665806Y-126330000D01*
G37*
G36*
X141123761Y-126345631D02*
G01*
X141074042Y-126343204D01*
X141021867Y-126334671D01*
X140973673Y-126319994D01*
X140943754Y-126306796D01*
X140898726Y-126279343D01*
X140860425Y-126245831D01*
X140828850Y-126206261D01*
X140823342Y-126197620D01*
X140800802Y-126151390D01*
X140786610Y-126100629D01*
X140780975Y-126051069D01*
X140780600Y-126033733D01*
X140780600Y-125594584D01*
X140783981Y-125543169D01*
X140795668Y-125490800D01*
X140815704Y-125443440D01*
X140823342Y-125430209D01*
X140853572Y-125389708D01*
X140890528Y-125355219D01*
X140934210Y-125326740D01*
X140943754Y-125321765D01*
X140989295Y-125302874D01*
X141038817Y-125290166D01*
X141092318Y-125283640D01*
X141123761Y-125282686D01*
X141174075Y-125285113D01*
X141226591Y-125293646D01*
X141274779Y-125308323D01*
X141304501Y-125321521D01*
X141349118Y-125348774D01*
X141387104Y-125381990D01*
X141418460Y-125421169D01*
X141423935Y-125429720D01*
X141446604Y-125475401D01*
X141460877Y-125526044D01*
X141466544Y-125575863D01*
X141466922Y-125593363D01*
X141255896Y-125593363D01*
X141248329Y-125542330D01*
X141221458Y-125500062D01*
X141176733Y-125474906D01*
X141127686Y-125467854D01*
X141123761Y-125467822D01*
X141073926Y-125474040D01*
X141030481Y-125496373D01*
X141026064Y-125500307D01*
X140999192Y-125543231D01*
X140991625Y-125595073D01*
X140991625Y-126033244D01*
X140999192Y-126084196D01*
X141026064Y-126127278D01*
X141070788Y-126153196D01*
X141119835Y-126160463D01*
X141123761Y-126160495D01*
X141173596Y-126154184D01*
X141217041Y-126131515D01*
X141221458Y-126127522D01*
X141248329Y-126084837D01*
X141255896Y-126034466D01*
X141255896Y-125939211D01*
X141103977Y-125939211D01*
X141103977Y-125754075D01*
X141466922Y-125754075D01*
X141466922Y-126032023D01*
X141463522Y-126083062D01*
X141451768Y-126135422D01*
X141431617Y-126183202D01*
X141423935Y-126196643D01*
X141393906Y-126237706D01*
X141357246Y-126272663D01*
X141313954Y-126301515D01*
X141304501Y-126306552D01*
X141259197Y-126325443D01*
X141209566Y-126338151D01*
X141155608Y-126344677D01*
X141123761Y-126345631D01*
G37*
G36*
X141647906Y-126330000D02*
G01*
X141647906Y-125298318D01*
X142280983Y-125298318D01*
X142280983Y-125483454D01*
X141854780Y-125483454D01*
X141854780Y-125704738D01*
X142231646Y-125704738D01*
X142231646Y-125889874D01*
X141854780Y-125889874D01*
X141854780Y-126144863D01*
X142280983Y-126144863D01*
X142280983Y-126330000D01*
X141647906Y-126330000D01*
G37*
G36*
X143709300Y-125300882D02*
G01*
X143758347Y-125308576D01*
X143809402Y-125323362D01*
X143846092Y-125339351D01*
X143888669Y-125364864D01*
X143929179Y-125399239D01*
X143962533Y-125439959D01*
X143971144Y-125453412D01*
X143994586Y-125501688D01*
X144008260Y-125549378D01*
X144014902Y-125601087D01*
X144015596Y-125625359D01*
X144012041Y-125678203D01*
X144001377Y-125727377D01*
X143983602Y-125772880D01*
X143970655Y-125796573D01*
X143939109Y-125839607D01*
X143900646Y-125876200D01*
X143860114Y-125903628D01*
X143845359Y-125911612D01*
X143798055Y-125931329D01*
X143746269Y-125944593D01*
X143696474Y-125950966D01*
X143656803Y-125952400D01*
X143517585Y-125952400D01*
X143517585Y-126330000D01*
X143306559Y-126330000D01*
X143306559Y-125767264D01*
X143517585Y-125767264D01*
X143656803Y-125767264D01*
X143707218Y-125760613D01*
X143751323Y-125738574D01*
X143764515Y-125726964D01*
X143793266Y-125684567D01*
X143804218Y-125636669D01*
X143804570Y-125625359D01*
X143796903Y-125575738D01*
X143771673Y-125531495D01*
X143764515Y-125523754D01*
X143720898Y-125494828D01*
X143669246Y-125483808D01*
X143656803Y-125483454D01*
X143517585Y-125483454D01*
X143517585Y-125767264D01*
X143306559Y-125767264D01*
X143306559Y-125298318D01*
X143656803Y-125298318D01*
X143709300Y-125300882D01*
G37*
G36*
X144530853Y-125285752D02*
G01*
X144582224Y-125294948D01*
X144629130Y-125310275D01*
X144678211Y-125335906D01*
X144721214Y-125369881D01*
X144756807Y-125411114D01*
X144783658Y-125458518D01*
X144801767Y-125512093D01*
X144810330Y-125562926D01*
X144812561Y-125608750D01*
X144812561Y-126019567D01*
X144809349Y-126073706D01*
X144799715Y-126123465D01*
X144780357Y-126175984D01*
X144752257Y-126222541D01*
X144721214Y-126257704D01*
X144678211Y-126291964D01*
X144629130Y-126317810D01*
X144582224Y-126333266D01*
X144530853Y-126342540D01*
X144475017Y-126345631D01*
X144419181Y-126342540D01*
X144367810Y-126333266D01*
X144320904Y-126317810D01*
X144271823Y-126291964D01*
X144228820Y-126257704D01*
X144193227Y-126216255D01*
X144166376Y-126168846D01*
X144148267Y-126115476D01*
X144139703Y-126064987D01*
X144137473Y-126019567D01*
X144137473Y-125608750D01*
X144138277Y-125595073D01*
X144348499Y-125595073D01*
X144348499Y-126033244D01*
X144354553Y-126082827D01*
X144380129Y-126128682D01*
X144425719Y-126154406D01*
X144475017Y-126160495D01*
X144524314Y-126154406D01*
X144569905Y-126128682D01*
X144595481Y-126082827D01*
X144601535Y-126033244D01*
X144601535Y-125595073D01*
X144595481Y-125545490D01*
X144569905Y-125499635D01*
X144524314Y-125473911D01*
X144475017Y-125467822D01*
X144425719Y-125473911D01*
X144380129Y-125499635D01*
X144354553Y-125545490D01*
X144348499Y-125595073D01*
X144138277Y-125595073D01*
X144140685Y-125554139D01*
X144150319Y-125504062D01*
X144169677Y-125451368D01*
X144197777Y-125404846D01*
X144228820Y-125369881D01*
X144271823Y-125335906D01*
X144320904Y-125310275D01*
X144367810Y-125294948D01*
X144419181Y-125285752D01*
X144475017Y-125282686D01*
X144530853Y-125285752D01*
G37*
G36*
X145208722Y-126330000D02*
G01*
X145208722Y-125483454D01*
X144948360Y-125483454D01*
X144948360Y-125298318D01*
X145680111Y-125298318D01*
X145680111Y-125483454D01*
X145419748Y-125483454D01*
X145419748Y-126330000D01*
X145208722Y-126330000D01*
G37*
D10*
G36*
X123927669Y-138845631D02*
G01*
X123877950Y-138843204D01*
X123825775Y-138834671D01*
X123777581Y-138819994D01*
X123747662Y-138806796D01*
X123702634Y-138779343D01*
X123664333Y-138745831D01*
X123632758Y-138706261D01*
X123627250Y-138697620D01*
X123604710Y-138651390D01*
X123590518Y-138600629D01*
X123584883Y-138551069D01*
X123584508Y-138533733D01*
X123584508Y-138094584D01*
X123587889Y-138043169D01*
X123599576Y-137990800D01*
X123619611Y-137943440D01*
X123627250Y-137930209D01*
X123657480Y-137889708D01*
X123694436Y-137855219D01*
X123738118Y-137826740D01*
X123747662Y-137821765D01*
X123793203Y-137802874D01*
X123842725Y-137790166D01*
X123896226Y-137783640D01*
X123927669Y-137782686D01*
X123977983Y-137785113D01*
X124030499Y-137793646D01*
X124078687Y-137808323D01*
X124108408Y-137821521D01*
X124153026Y-137848774D01*
X124191012Y-137881990D01*
X124222368Y-137921169D01*
X124227843Y-137929720D01*
X124250512Y-137975401D01*
X124264785Y-138026044D01*
X124270452Y-138075863D01*
X124270830Y-138093363D01*
X124059804Y-138093363D01*
X124052237Y-138042330D01*
X124025366Y-138000062D01*
X123980641Y-137974906D01*
X123931594Y-137967854D01*
X123927669Y-137967822D01*
X123877834Y-137974040D01*
X123834389Y-137996373D01*
X123829972Y-138000307D01*
X123803100Y-138043231D01*
X123795533Y-138095073D01*
X123795533Y-138533244D01*
X123803100Y-138584196D01*
X123829972Y-138627278D01*
X123874696Y-138653196D01*
X123923743Y-138660463D01*
X123927669Y-138660495D01*
X123977504Y-138654184D01*
X124020949Y-138631515D01*
X124025366Y-138627522D01*
X124052237Y-138584837D01*
X124059804Y-138534466D01*
X124059804Y-138439211D01*
X123907885Y-138439211D01*
X123907885Y-138254075D01*
X124270830Y-138254075D01*
X124270830Y-138532023D01*
X124267430Y-138583062D01*
X124255675Y-138635422D01*
X124235525Y-138683202D01*
X124227843Y-138696643D01*
X124197814Y-138737706D01*
X124161153Y-138772663D01*
X124117862Y-138801515D01*
X124108408Y-138806552D01*
X124063105Y-138825443D01*
X124013474Y-138838151D01*
X123959516Y-138844677D01*
X123927669Y-138845631D01*
G37*
G36*
X124423726Y-138830000D02*
G01*
X124423726Y-137798318D01*
X124669923Y-137798318D01*
X124935659Y-138598946D01*
X124931745Y-138549912D01*
X124927609Y-138498855D01*
X124925889Y-138477801D01*
X124921951Y-138426327D01*
X124918562Y-138374853D01*
X124916608Y-138340537D01*
X124914394Y-138288001D01*
X124913272Y-138239088D01*
X124913189Y-138223545D01*
X124913189Y-137798318D01*
X125098813Y-137798318D01*
X125098813Y-138830000D01*
X124852616Y-138830000D01*
X124589567Y-138038164D01*
X124593902Y-138087318D01*
X124597595Y-138137240D01*
X124598115Y-138144898D01*
X124601368Y-138195149D01*
X124604379Y-138245883D01*
X124605687Y-138269462D01*
X124608059Y-138318364D01*
X124609293Y-138369079D01*
X124609351Y-138381570D01*
X124609351Y-138830000D01*
X124423726Y-138830000D01*
G37*
G36*
X125652252Y-137800882D02*
G01*
X125700566Y-137808576D01*
X125750796Y-137823362D01*
X125786845Y-137839351D01*
X125828832Y-137865059D01*
X125868913Y-137899787D01*
X125902076Y-137941003D01*
X125910676Y-137954633D01*
X125934118Y-138003463D01*
X125947792Y-138051814D01*
X125954434Y-138104339D01*
X125955129Y-138129023D01*
X125955129Y-138497829D01*
X125951612Y-138551577D01*
X125941064Y-138601539D01*
X125923482Y-138647714D01*
X125910676Y-138671730D01*
X125879588Y-138715350D01*
X125841582Y-138752483D01*
X125801463Y-138780355D01*
X125786845Y-138788478D01*
X125740011Y-138808550D01*
X125688811Y-138822052D01*
X125639635Y-138828540D01*
X125600488Y-138830000D01*
X125267096Y-138830000D01*
X125267096Y-138644863D01*
X125478122Y-138644863D01*
X125600488Y-138644863D01*
X125651398Y-138637150D01*
X125696088Y-138611765D01*
X125703803Y-138604563D01*
X125732729Y-138561737D01*
X125743749Y-138512664D01*
X125744103Y-138501004D01*
X125744103Y-138125847D01*
X125736389Y-138075031D01*
X125711005Y-138030648D01*
X125703803Y-138023021D01*
X125661152Y-137994621D01*
X125612145Y-137983802D01*
X125600488Y-137983454D01*
X125478122Y-137983454D01*
X125478122Y-138644863D01*
X125267096Y-138644863D01*
X125267096Y-137798318D01*
X125600488Y-137798318D01*
X125652252Y-137800882D01*
G37*
G36*
X119584508Y-138830000D02*
G01*
X119584508Y-137798318D01*
X119830704Y-137798318D01*
X120096441Y-138598946D01*
X120092527Y-138549912D01*
X120088391Y-138498855D01*
X120086671Y-138477801D01*
X120082732Y-138426327D01*
X120079344Y-138374853D01*
X120077390Y-138340537D01*
X120075176Y-138288001D01*
X120074054Y-138239088D01*
X120073970Y-138223545D01*
X120073970Y-137798318D01*
X120259595Y-137798318D01*
X120259595Y-138830000D01*
X120013398Y-138830000D01*
X119750348Y-138038164D01*
X119754684Y-138087318D01*
X119758377Y-138137240D01*
X119758897Y-138144898D01*
X119762150Y-138195149D01*
X119765160Y-138245883D01*
X119766468Y-138269462D01*
X119768841Y-138318364D01*
X119770075Y-138369079D01*
X119770132Y-138381570D01*
X119770132Y-138830000D01*
X119584508Y-138830000D01*
G37*
G36*
X115161688Y-138830000D02*
G01*
X115161688Y-137798318D01*
X115372714Y-137798318D01*
X115372714Y-138644863D01*
X115787927Y-138644863D01*
X115787927Y-138830000D01*
X115161688Y-138830000D01*
G37*
D12*
G36*
X200579832Y-81660000D02*
G01*
X200070341Y-79596636D01*
X200506559Y-79596636D01*
X200790858Y-80902358D01*
X200810817Y-81001734D01*
X200825540Y-81075282D01*
X200844469Y-81172124D01*
X200858269Y-81253579D01*
X200873505Y-81155139D01*
X200886113Y-81075282D01*
X200902477Y-80978806D01*
X200917376Y-80899427D01*
X201192882Y-79596636D01*
X201617864Y-79596636D01*
X201114235Y-81660000D01*
X200579832Y-81660000D01*
G37*
G36*
X201903628Y-81660000D02*
G01*
X201903628Y-81289727D01*
X202421423Y-81289727D01*
X202421423Y-80047997D01*
X201897766Y-80424131D01*
X201897766Y-79958115D01*
X202378925Y-79596636D01*
X202843475Y-79596636D01*
X202843475Y-81289727D01*
X203254291Y-81289727D01*
X203254291Y-81660000D01*
X201903628Y-81660000D01*
G37*
G36*
X204200976Y-81691263D02*
G01*
X204099343Y-81676396D01*
X204010578Y-81627474D01*
X203995324Y-81613593D01*
X203938874Y-81529909D01*
X203917369Y-81433017D01*
X203916678Y-81409895D01*
X203931731Y-81309210D01*
X203981269Y-81221669D01*
X203995324Y-81206685D01*
X204079924Y-81150585D01*
X204177671Y-81129214D01*
X204200976Y-81128527D01*
X204302517Y-81143487D01*
X204390974Y-81192717D01*
X204406140Y-81206685D01*
X204462941Y-81290018D01*
X204484580Y-81386777D01*
X204485275Y-81409895D01*
X204470128Y-81510674D01*
X204420283Y-81598522D01*
X204406140Y-81613593D01*
X204321891Y-81669342D01*
X204224278Y-81690580D01*
X204200976Y-81691263D01*
G37*
G36*
X205977454Y-80458867D02*
G01*
X206022540Y-80487145D01*
X206072023Y-80575864D01*
X206076273Y-80622944D01*
X206055283Y-80719458D01*
X206022540Y-80762163D01*
X205932011Y-80806241D01*
X205879413Y-80811011D01*
X205782899Y-80791930D01*
X205737264Y-80762163D01*
X205687896Y-80675161D01*
X205682554Y-80622944D01*
X205706115Y-80523909D01*
X205737264Y-80487145D01*
X205827960Y-80445271D01*
X205879413Y-80440739D01*
X205977454Y-80458867D01*
G37*
G36*
X205979858Y-79570258D02*
G01*
X206084246Y-79587431D01*
X206179515Y-79616969D01*
X206237962Y-79643531D01*
X206325622Y-79698228D01*
X206399925Y-79765232D01*
X206460872Y-79844544D01*
X206471458Y-79861884D01*
X206515250Y-79954085D01*
X206542823Y-80055446D01*
X206553771Y-80154502D01*
X206554501Y-80189169D01*
X206554501Y-81067466D01*
X206547932Y-81169034D01*
X206525225Y-81273276D01*
X206486299Y-81368454D01*
X206471458Y-81395240D01*
X206413183Y-81476804D01*
X206341551Y-81546251D01*
X206256562Y-81603581D01*
X206237962Y-81613593D01*
X206138299Y-81654552D01*
X206038977Y-81678444D01*
X205930536Y-81690049D01*
X205879413Y-81691263D01*
X205780129Y-81686408D01*
X205676316Y-81669342D01*
X205580849Y-81639989D01*
X205521842Y-81613593D01*
X205433619Y-81558686D01*
X205358848Y-81491663D01*
X205297530Y-81412522D01*
X205286880Y-81395240D01*
X205243346Y-81302781D01*
X205215935Y-81201258D01*
X205205052Y-81102138D01*
X205204326Y-81067466D01*
X205204326Y-80190146D01*
X205598046Y-80190146D01*
X205598046Y-81066489D01*
X205614682Y-81166610D01*
X205669103Y-81248798D01*
X205673761Y-81253091D01*
X205763276Y-81304016D01*
X205863440Y-81320725D01*
X205879413Y-81320990D01*
X205977378Y-81309784D01*
X206066572Y-81269005D01*
X206086043Y-81253091D01*
X206142096Y-81172491D01*
X206160708Y-81073859D01*
X206160781Y-81066489D01*
X206160781Y-80190146D01*
X206144359Y-80090026D01*
X206090641Y-80007838D01*
X206086043Y-80003545D01*
X205997260Y-79952620D01*
X205895734Y-79935910D01*
X205879413Y-79935645D01*
X205781368Y-79946851D01*
X205691881Y-79987631D01*
X205672295Y-80003545D01*
X205616608Y-80084145D01*
X205598118Y-80182777D01*
X205598046Y-80190146D01*
X205204326Y-80190146D01*
X205204326Y-80189169D01*
X205210856Y-80087640D01*
X205233430Y-79983532D01*
X205272127Y-79888582D01*
X205286880Y-79861884D01*
X205345508Y-79780110D01*
X205417588Y-79710644D01*
X205503121Y-79653485D01*
X205521842Y-79643531D01*
X205622248Y-79602315D01*
X205721424Y-79578272D01*
X205828947Y-79566594D01*
X205879413Y-79565373D01*
X205979858Y-79570258D01*
G37*
D11*
G36*
X192477887Y-124785752D02*
G01*
X192529258Y-124794948D01*
X192576165Y-124810275D01*
X192625245Y-124835906D01*
X192668248Y-124869881D01*
X192703841Y-124911114D01*
X192730692Y-124958518D01*
X192748801Y-125012093D01*
X192757365Y-125062926D01*
X192759595Y-125108750D01*
X192759595Y-125519567D01*
X192756383Y-125573706D01*
X192746749Y-125623465D01*
X192727391Y-125675984D01*
X192699292Y-125722541D01*
X192668248Y-125757704D01*
X192625245Y-125791964D01*
X192576165Y-125817810D01*
X192529258Y-125833266D01*
X192477887Y-125842540D01*
X192422051Y-125845631D01*
X192366215Y-125842540D01*
X192314844Y-125833266D01*
X192267938Y-125817810D01*
X192218857Y-125791964D01*
X192175854Y-125757704D01*
X192140261Y-125716255D01*
X192113410Y-125668846D01*
X192095301Y-125615476D01*
X192086738Y-125564987D01*
X192084508Y-125519567D01*
X192084508Y-125108750D01*
X192085312Y-125095073D01*
X192295533Y-125095073D01*
X192295533Y-125533244D01*
X192301587Y-125582827D01*
X192327163Y-125628682D01*
X192372754Y-125654406D01*
X192422051Y-125660495D01*
X192471349Y-125654406D01*
X192516939Y-125628682D01*
X192542515Y-125582827D01*
X192548569Y-125533244D01*
X192548569Y-125095073D01*
X192542515Y-125045490D01*
X192516939Y-124999635D01*
X192471349Y-124973911D01*
X192422051Y-124967822D01*
X192372754Y-124973911D01*
X192327163Y-124999635D01*
X192301587Y-125045490D01*
X192295533Y-125095073D01*
X192085312Y-125095073D01*
X192087719Y-125054139D01*
X192097353Y-125004062D01*
X192116711Y-124951368D01*
X192144811Y-124904846D01*
X192175854Y-124869881D01*
X192218857Y-124835906D01*
X192267938Y-124810275D01*
X192314844Y-124794948D01*
X192366215Y-124785752D01*
X192422051Y-124782686D01*
X192477887Y-124785752D01*
G37*
G36*
X193261270Y-125845631D02*
G01*
X193205036Y-125842651D01*
X193153387Y-125833713D01*
X193106323Y-125818815D01*
X193057211Y-125793902D01*
X193014340Y-125760879D01*
X192979032Y-125720713D01*
X192952397Y-125674586D01*
X192934433Y-125622498D01*
X192925938Y-125573108D01*
X192923726Y-125528604D01*
X192923726Y-124798318D01*
X193134752Y-124798318D01*
X193134752Y-125526161D01*
X193141063Y-125577212D01*
X193163732Y-125621359D01*
X193167725Y-125625812D01*
X193210547Y-125652874D01*
X193261270Y-125660495D01*
X193311101Y-125652874D01*
X193354082Y-125625812D01*
X193379361Y-125583558D01*
X193387656Y-125534164D01*
X193387787Y-125526161D01*
X193387787Y-124798318D01*
X193598813Y-124798318D01*
X193598813Y-125528604D01*
X193595619Y-125581171D01*
X193586036Y-125629514D01*
X193566782Y-125680575D01*
X193538832Y-125725885D01*
X193507955Y-125760146D01*
X193465179Y-125793455D01*
X193416139Y-125818583D01*
X193369118Y-125833610D01*
X193317495Y-125842626D01*
X193261270Y-125845631D01*
G37*
G36*
X193994975Y-125830000D02*
G01*
X193994975Y-124983454D01*
X193734612Y-124983454D01*
X193734612Y-124798318D01*
X194466364Y-124798318D01*
X194466364Y-124983454D01*
X194206001Y-124983454D01*
X194206001Y-125830000D01*
X193994975Y-125830000D01*
G37*
G36*
X195013208Y-124800882D02*
G01*
X195062255Y-124808576D01*
X195113309Y-124823362D01*
X195150000Y-124839351D01*
X195192576Y-124864864D01*
X195233086Y-124899239D01*
X195266441Y-124939959D01*
X195275052Y-124953412D01*
X195298493Y-125001688D01*
X195312168Y-125049378D01*
X195318809Y-125101087D01*
X195319504Y-125125359D01*
X195315949Y-125178203D01*
X195305285Y-125227377D01*
X195287510Y-125272880D01*
X195274563Y-125296573D01*
X195243017Y-125339607D01*
X195204553Y-125376200D01*
X195164022Y-125403628D01*
X195149267Y-125411612D01*
X195101963Y-125431329D01*
X195050177Y-125444593D01*
X195000382Y-125450966D01*
X194960711Y-125452400D01*
X194821493Y-125452400D01*
X194821493Y-125830000D01*
X194610467Y-125830000D01*
X194610467Y-125267264D01*
X194821493Y-125267264D01*
X194960711Y-125267264D01*
X195011126Y-125260613D01*
X195055231Y-125238574D01*
X195068422Y-125226964D01*
X195097173Y-125184567D01*
X195108126Y-125136669D01*
X195108478Y-125125359D01*
X195100811Y-125075738D01*
X195075581Y-125031495D01*
X195068422Y-125023754D01*
X195024806Y-124994828D01*
X194973154Y-124983808D01*
X194960711Y-124983454D01*
X194821493Y-124983454D01*
X194821493Y-125267264D01*
X194610467Y-125267264D01*
X194610467Y-124798318D01*
X194960711Y-124798318D01*
X195013208Y-124800882D01*
G37*
G36*
X195778925Y-125845631D02*
G01*
X195722691Y-125842651D01*
X195671042Y-125833713D01*
X195623979Y-125818815D01*
X195574866Y-125793902D01*
X195531995Y-125760879D01*
X195496688Y-125720713D01*
X195470052Y-125674586D01*
X195452089Y-125622498D01*
X195443593Y-125573108D01*
X195441381Y-125528604D01*
X195441381Y-124798318D01*
X195652407Y-124798318D01*
X195652407Y-125526161D01*
X195658718Y-125577212D01*
X195681387Y-125621359D01*
X195685380Y-125625812D01*
X195728203Y-125652874D01*
X195778925Y-125660495D01*
X195828756Y-125652874D01*
X195871737Y-125625812D01*
X195897016Y-125583558D01*
X195905311Y-125534164D01*
X195905443Y-125526161D01*
X195905443Y-124798318D01*
X196116468Y-124798318D01*
X196116468Y-125528604D01*
X196113274Y-125581171D01*
X196103691Y-125629514D01*
X196084437Y-125680575D01*
X196056488Y-125725885D01*
X196025610Y-125760146D01*
X195982834Y-125793455D01*
X195933794Y-125818583D01*
X195886773Y-125833610D01*
X195835150Y-125842626D01*
X195778925Y-125845631D01*
G37*
G36*
X196512630Y-125830000D02*
G01*
X196512630Y-124983454D01*
X196252267Y-124983454D01*
X196252267Y-124798318D01*
X196984019Y-124798318D01*
X196984019Y-124983454D01*
X196723656Y-124983454D01*
X196723656Y-125830000D01*
X196512630Y-125830000D01*
G37*
D10*
G36*
X166433286Y-138845631D02*
G01*
X166383568Y-138843204D01*
X166331393Y-138834671D01*
X166283198Y-138819994D01*
X166253279Y-138806796D01*
X166208252Y-138779343D01*
X166169951Y-138745831D01*
X166138375Y-138706261D01*
X166132868Y-138697620D01*
X166110328Y-138651390D01*
X166096136Y-138600629D01*
X166090501Y-138551069D01*
X166090125Y-138533733D01*
X166090125Y-138094584D01*
X166093506Y-138043169D01*
X166105194Y-137990800D01*
X166125229Y-137943440D01*
X166132868Y-137930209D01*
X166163097Y-137889708D01*
X166200053Y-137855219D01*
X166243736Y-137826740D01*
X166253279Y-137821765D01*
X166298821Y-137802874D01*
X166348342Y-137790166D01*
X166401844Y-137783640D01*
X166433286Y-137782686D01*
X166483600Y-137785129D01*
X166536116Y-137793715D01*
X166584305Y-137808484D01*
X166614026Y-137821765D01*
X166658667Y-137849042D01*
X166696725Y-137882330D01*
X166728200Y-137921628D01*
X166733705Y-137930209D01*
X166756374Y-137976195D01*
X166770647Y-138027143D01*
X166776314Y-138077237D01*
X166776692Y-138094829D01*
X166565666Y-138094829D01*
X166559027Y-138046202D01*
X166533117Y-138002366D01*
X166530983Y-138000307D01*
X166486259Y-137974960D01*
X166437212Y-137967854D01*
X166433286Y-137967822D01*
X166383451Y-137974040D01*
X166340007Y-137996373D01*
X166335589Y-138000307D01*
X166308718Y-138043231D01*
X166301151Y-138095073D01*
X166301151Y-138533244D01*
X166308718Y-138584196D01*
X166335589Y-138627278D01*
X166380314Y-138653196D01*
X166429361Y-138660463D01*
X166433286Y-138660495D01*
X166483121Y-138654137D01*
X166526566Y-138631300D01*
X166530983Y-138627278D01*
X166558045Y-138584005D01*
X166565666Y-138533000D01*
X166776692Y-138533000D01*
X166773291Y-138583902D01*
X166761537Y-138636109D01*
X166741387Y-138683736D01*
X166733705Y-138697131D01*
X166703547Y-138738042D01*
X166666805Y-138772847D01*
X166623481Y-138801545D01*
X166614026Y-138806552D01*
X166568723Y-138825443D01*
X166519092Y-138838151D01*
X166465133Y-138844677D01*
X166433286Y-138845631D01*
G37*
G36*
X167317106Y-137785752D02*
G01*
X167368477Y-137794948D01*
X167415383Y-137810275D01*
X167464463Y-137835906D01*
X167507466Y-137869881D01*
X167543060Y-137911114D01*
X167569910Y-137958518D01*
X167588019Y-138012093D01*
X167596583Y-138062926D01*
X167598813Y-138108750D01*
X167598813Y-138519567D01*
X167595602Y-138573706D01*
X167585968Y-138623465D01*
X167566610Y-138675984D01*
X167538510Y-138722541D01*
X167507466Y-138757704D01*
X167464463Y-138791964D01*
X167415383Y-138817810D01*
X167368477Y-138833266D01*
X167317106Y-138842540D01*
X167261270Y-138845631D01*
X167205433Y-138842540D01*
X167154062Y-138833266D01*
X167107156Y-138817810D01*
X167058076Y-138791964D01*
X167015073Y-138757704D01*
X166979480Y-138716255D01*
X166952629Y-138668846D01*
X166934520Y-138615476D01*
X166925956Y-138564987D01*
X166923726Y-138519567D01*
X166923726Y-138108750D01*
X166924530Y-138095073D01*
X167134752Y-138095073D01*
X167134752Y-138533244D01*
X167140806Y-138582827D01*
X167166381Y-138628682D01*
X167211972Y-138654406D01*
X167261270Y-138660495D01*
X167310567Y-138654406D01*
X167356158Y-138628682D01*
X167381733Y-138582827D01*
X167387787Y-138533244D01*
X167387787Y-138095073D01*
X167381733Y-138045490D01*
X167356158Y-137999635D01*
X167310567Y-137973911D01*
X167261270Y-137967822D01*
X167211972Y-137973911D01*
X167166381Y-137999635D01*
X167140806Y-138045490D01*
X167134752Y-138095073D01*
X166924530Y-138095073D01*
X166926937Y-138054139D01*
X166936572Y-138004062D01*
X166955929Y-137951368D01*
X166984029Y-137904846D01*
X167015073Y-137869881D01*
X167058076Y-137835906D01*
X167107156Y-137810275D01*
X167154062Y-137794948D01*
X167205433Y-137785752D01*
X167261270Y-137782686D01*
X167317106Y-137785752D01*
G37*
G36*
X167737543Y-138830000D02*
G01*
X167737543Y-137798318D01*
X167994975Y-137798318D01*
X168099023Y-138240397D01*
X168203070Y-137798318D01*
X168463433Y-137798318D01*
X168463433Y-138830000D01*
X168270725Y-138830000D01*
X168270725Y-138436036D01*
X168271189Y-138378471D01*
X168272580Y-138321730D01*
X168274898Y-138265814D01*
X168278144Y-138210722D01*
X168282317Y-138156454D01*
X168283914Y-138138548D01*
X168288978Y-138086187D01*
X168294092Y-138036264D01*
X168300125Y-137981102D01*
X168306227Y-137929261D01*
X168311514Y-137887466D01*
X168182065Y-138391828D01*
X168013293Y-138391828D01*
X167886531Y-137899923D01*
X167893645Y-137948726D01*
X167900819Y-138003787D01*
X167907147Y-138057100D01*
X167912608Y-138106611D01*
X167915352Y-138132686D01*
X167920415Y-138186439D01*
X167924431Y-138241634D01*
X167927399Y-138298271D01*
X167929320Y-138356352D01*
X167930120Y-138405854D01*
X167930251Y-138436036D01*
X167930251Y-138830000D01*
X167737543Y-138830000D01*
G37*
G36*
X161316538Y-138704947D02*
G01*
X161316538Y-138470474D01*
X161077424Y-138470474D01*
X161077424Y-138267264D01*
X161316538Y-138267264D01*
X161316538Y-138017159D01*
X161527564Y-138017159D01*
X161527564Y-138267264D01*
X161766678Y-138267264D01*
X161766678Y-138470474D01*
X161527564Y-138470474D01*
X161527564Y-138704947D01*
X161316538Y-138704947D01*
G37*
G36*
X162129134Y-138830000D02*
G01*
X161874389Y-137798318D01*
X162092498Y-137798318D01*
X162234647Y-138451179D01*
X162244627Y-138500867D01*
X162251988Y-138537641D01*
X162261453Y-138586062D01*
X162268353Y-138626789D01*
X162275971Y-138577569D01*
X162282274Y-138537641D01*
X162290457Y-138489403D01*
X162297906Y-138449713D01*
X162435659Y-137798318D01*
X162648150Y-137798318D01*
X162396336Y-138830000D01*
X162129134Y-138830000D01*
G37*
G36*
X155661688Y-138830000D02*
G01*
X155661688Y-137798318D01*
X155872714Y-137798318D01*
X155872714Y-138644863D01*
X156287927Y-138644863D01*
X156287927Y-138830000D01*
X155661688Y-138830000D01*
G37*
G36*
X156817106Y-137785752D02*
G01*
X156868477Y-137794948D01*
X156915383Y-137810275D01*
X156964463Y-137835906D01*
X157007466Y-137869881D01*
X157043060Y-137911114D01*
X157069910Y-137958518D01*
X157088019Y-138012093D01*
X157096583Y-138062926D01*
X157098813Y-138108750D01*
X157098813Y-138519567D01*
X157095602Y-138573706D01*
X157085968Y-138623465D01*
X157066610Y-138675984D01*
X157038510Y-138722541D01*
X157007466Y-138757704D01*
X156964463Y-138791964D01*
X156915383Y-138817810D01*
X156868477Y-138833266D01*
X156817106Y-138842540D01*
X156761270Y-138845631D01*
X156705433Y-138842540D01*
X156654062Y-138833266D01*
X156607156Y-138817810D01*
X156558076Y-138791964D01*
X156515073Y-138757704D01*
X156479480Y-138716255D01*
X156452629Y-138668846D01*
X156434520Y-138615476D01*
X156425956Y-138564987D01*
X156423726Y-138519567D01*
X156423726Y-138108750D01*
X156424530Y-138095073D01*
X156634752Y-138095073D01*
X156634752Y-138533244D01*
X156640806Y-138582827D01*
X156666381Y-138628682D01*
X156711972Y-138654406D01*
X156761270Y-138660495D01*
X156810567Y-138654406D01*
X156856158Y-138628682D01*
X156881733Y-138582827D01*
X156887787Y-138533244D01*
X156887787Y-138095073D01*
X156881733Y-138045490D01*
X156856158Y-137999635D01*
X156810567Y-137973911D01*
X156761270Y-137967822D01*
X156711972Y-137973911D01*
X156666381Y-137999635D01*
X156640806Y-138045490D01*
X156634752Y-138095073D01*
X156424530Y-138095073D01*
X156426937Y-138054139D01*
X156436572Y-138004062D01*
X156455929Y-137951368D01*
X156484029Y-137904846D01*
X156515073Y-137869881D01*
X156558076Y-137835906D01*
X156607156Y-137810275D01*
X156654062Y-137794948D01*
X156705433Y-137785752D01*
X156761270Y-137782686D01*
X156817106Y-137785752D01*
G37*
G36*
X157987369Y-138830000D02*
G01*
X157772191Y-138830000D01*
X157722854Y-138595526D01*
X157478122Y-138595526D01*
X157428785Y-138830000D01*
X157213607Y-138830000D01*
X157312807Y-138423579D01*
X157513293Y-138423579D01*
X157686217Y-138423579D01*
X157637124Y-138176894D01*
X157627629Y-138127138D01*
X157617919Y-138077704D01*
X157616608Y-138071137D01*
X157606828Y-138021822D01*
X157600488Y-137989071D01*
X157591537Y-138037432D01*
X157585589Y-138070404D01*
X157576634Y-138119270D01*
X157566713Y-138168779D01*
X157565317Y-138175429D01*
X157513293Y-138423579D01*
X157312807Y-138423579D01*
X157465422Y-137798318D01*
X157732623Y-137798318D01*
X157987369Y-138830000D01*
G37*
G36*
X158491471Y-137800882D02*
G01*
X158539785Y-137808576D01*
X158590015Y-137823362D01*
X158626064Y-137839351D01*
X158668050Y-137865059D01*
X158708131Y-137899787D01*
X158741295Y-137941003D01*
X158749895Y-137954633D01*
X158773336Y-138003463D01*
X158787011Y-138051814D01*
X158793652Y-138104339D01*
X158794347Y-138129023D01*
X158794347Y-138497829D01*
X158790831Y-138551577D01*
X158780282Y-138601539D01*
X158762701Y-138647714D01*
X158749895Y-138671730D01*
X158718806Y-138715350D01*
X158680801Y-138752483D01*
X158640682Y-138780355D01*
X158626064Y-138788478D01*
X158579230Y-138808550D01*
X158528030Y-138822052D01*
X158478853Y-138828540D01*
X158439706Y-138830000D01*
X158106315Y-138830000D01*
X158106315Y-138644863D01*
X158317341Y-138644863D01*
X158439706Y-138644863D01*
X158490617Y-138637150D01*
X158535307Y-138611765D01*
X158543021Y-138604563D01*
X158571947Y-138561737D01*
X158582967Y-138512664D01*
X158583321Y-138501004D01*
X158583321Y-138125847D01*
X158575608Y-138075031D01*
X158550223Y-138030648D01*
X158543021Y-138023021D01*
X158500370Y-137994621D01*
X158451364Y-137983802D01*
X158439706Y-137983454D01*
X158317341Y-137983454D01*
X158317341Y-138644863D01*
X158106315Y-138644863D01*
X158106315Y-137798318D01*
X158439706Y-137798318D01*
X158491471Y-137800882D01*
G37*
G36*
X190682228Y-138830000D02*
G01*
X190427482Y-137798318D01*
X190645591Y-137798318D01*
X190787741Y-138451179D01*
X190797720Y-138500867D01*
X190805082Y-138537641D01*
X190814546Y-138586062D01*
X190821446Y-138626789D01*
X190829064Y-138577569D01*
X190835368Y-138537641D01*
X190843550Y-138489403D01*
X190851000Y-138449713D01*
X190988753Y-137798318D01*
X191201244Y-137798318D01*
X190949429Y-138830000D01*
X190682228Y-138830000D01*
G37*
G36*
X191709418Y-137785752D02*
G01*
X191760789Y-137794948D01*
X191807695Y-137810275D01*
X191856775Y-137835906D01*
X191899778Y-137869881D01*
X191935372Y-137911114D01*
X191962222Y-137958518D01*
X191980331Y-138012093D01*
X191988895Y-138062926D01*
X191991125Y-138108750D01*
X191991125Y-138519567D01*
X191987914Y-138573706D01*
X191978280Y-138623465D01*
X191958922Y-138675984D01*
X191930822Y-138722541D01*
X191899778Y-138757704D01*
X191856775Y-138791964D01*
X191807695Y-138817810D01*
X191760789Y-138833266D01*
X191709418Y-138842540D01*
X191653582Y-138845631D01*
X191597745Y-138842540D01*
X191546374Y-138833266D01*
X191499468Y-138817810D01*
X191450388Y-138791964D01*
X191407385Y-138757704D01*
X191371792Y-138716255D01*
X191344941Y-138668846D01*
X191326832Y-138615476D01*
X191318268Y-138564987D01*
X191316038Y-138519567D01*
X191316038Y-138108750D01*
X191316842Y-138095073D01*
X191527064Y-138095073D01*
X191527064Y-138533244D01*
X191533118Y-138582827D01*
X191558693Y-138628682D01*
X191604284Y-138654406D01*
X191653582Y-138660495D01*
X191702879Y-138654406D01*
X191748470Y-138628682D01*
X191774045Y-138582827D01*
X191780099Y-138533244D01*
X191780099Y-138095073D01*
X191774045Y-138045490D01*
X191748470Y-137999635D01*
X191702879Y-137973911D01*
X191653582Y-137967822D01*
X191604284Y-137973911D01*
X191558693Y-137999635D01*
X191533118Y-138045490D01*
X191527064Y-138095073D01*
X191316842Y-138095073D01*
X191319249Y-138054139D01*
X191328884Y-138004062D01*
X191348241Y-137951368D01*
X191376341Y-137904846D01*
X191407385Y-137869881D01*
X191450388Y-137835906D01*
X191499468Y-137810275D01*
X191546374Y-137794948D01*
X191597745Y-137785752D01*
X191653582Y-137782686D01*
X191709418Y-137785752D01*
G37*
G36*
X192492800Y-138845631D02*
G01*
X192436566Y-138842651D01*
X192384917Y-138833713D01*
X192337854Y-138818815D01*
X192288742Y-138793902D01*
X192245870Y-138760879D01*
X192210563Y-138720713D01*
X192183927Y-138674586D01*
X192165964Y-138622498D01*
X192157469Y-138573108D01*
X192155256Y-138528604D01*
X192155256Y-137798318D01*
X192366282Y-137798318D01*
X192366282Y-138526161D01*
X192372593Y-138577212D01*
X192395262Y-138621359D01*
X192399255Y-138625812D01*
X192442078Y-138652874D01*
X192492800Y-138660495D01*
X192542631Y-138652874D01*
X192585612Y-138625812D01*
X192610891Y-138583558D01*
X192619186Y-138534164D01*
X192619318Y-138526161D01*
X192619318Y-137798318D01*
X192830344Y-137798318D01*
X192830344Y-138528604D01*
X192827149Y-138581171D01*
X192817567Y-138629514D01*
X192798312Y-138680575D01*
X192770363Y-138725885D01*
X192739485Y-138760146D01*
X192696709Y-138793455D01*
X192647669Y-138818583D01*
X192600648Y-138833610D01*
X192549025Y-138842626D01*
X192492800Y-138845631D01*
G37*
G36*
X193226505Y-138830000D02*
G01*
X193226505Y-137983454D01*
X192966143Y-137983454D01*
X192966143Y-137798318D01*
X193697894Y-137798318D01*
X193697894Y-137983454D01*
X193437531Y-137983454D01*
X193437531Y-138830000D01*
X193226505Y-138830000D01*
G37*
D11*
G36*
X116059106Y-126330000D02*
G01*
X116059106Y-125298318D01*
X116316538Y-125298318D01*
X116420586Y-125740397D01*
X116524633Y-125298318D01*
X116784996Y-125298318D01*
X116784996Y-126330000D01*
X116592288Y-126330000D01*
X116592288Y-125936036D01*
X116592752Y-125878471D01*
X116594143Y-125821730D01*
X116596462Y-125765814D01*
X116599707Y-125710722D01*
X116603880Y-125656454D01*
X116605478Y-125638548D01*
X116610541Y-125586187D01*
X116615656Y-125536264D01*
X116621688Y-125481102D01*
X116627790Y-125429261D01*
X116633077Y-125387466D01*
X116503628Y-125891828D01*
X116334856Y-125891828D01*
X116208094Y-125399923D01*
X116215208Y-125448726D01*
X116222383Y-125503787D01*
X116228711Y-125557100D01*
X116234172Y-125606611D01*
X116236915Y-125632686D01*
X116241978Y-125686439D01*
X116245994Y-125741634D01*
X116248962Y-125798271D01*
X116250883Y-125856352D01*
X116251683Y-125905854D01*
X116251814Y-125936036D01*
X116251814Y-126330000D01*
X116059106Y-126330000D01*
G37*
G36*
X117648150Y-126330000D02*
G01*
X117432972Y-126330000D01*
X117383635Y-126095526D01*
X117138904Y-126095526D01*
X117089567Y-126330000D01*
X116874389Y-126330000D01*
X116973589Y-125923579D01*
X117174075Y-125923579D01*
X117346999Y-125923579D01*
X117297906Y-125676894D01*
X117288411Y-125627138D01*
X117278700Y-125577704D01*
X117277390Y-125571137D01*
X117267609Y-125521822D01*
X117261270Y-125489071D01*
X117252319Y-125537432D01*
X117246371Y-125570404D01*
X117237416Y-125619270D01*
X117227494Y-125668779D01*
X117226099Y-125675429D01*
X117174075Y-125923579D01*
X116973589Y-125923579D01*
X117126203Y-125298318D01*
X117393405Y-125298318D01*
X117648150Y-126330000D01*
G37*
G36*
X117791032Y-126330000D02*
G01*
X117791032Y-126144863D01*
X117994975Y-126144863D01*
X117994975Y-125483454D01*
X117791032Y-125483454D01*
X117791032Y-125298318D01*
X118409944Y-125298318D01*
X118409944Y-125483454D01*
X118206001Y-125483454D01*
X118206001Y-126144863D01*
X118409944Y-126144863D01*
X118409944Y-126330000D01*
X117791032Y-126330000D01*
G37*
G36*
X118602163Y-126330000D02*
G01*
X118602163Y-125298318D01*
X118848360Y-125298318D01*
X119114096Y-126098946D01*
X119110182Y-126049912D01*
X119106046Y-125998855D01*
X119104326Y-125977801D01*
X119100388Y-125926327D01*
X119096999Y-125874853D01*
X119095045Y-125840537D01*
X119092831Y-125788001D01*
X119091709Y-125739088D01*
X119091625Y-125723545D01*
X119091625Y-125298318D01*
X119277250Y-125298318D01*
X119277250Y-126330000D01*
X119031053Y-126330000D01*
X118768004Y-125538164D01*
X118772339Y-125587318D01*
X118776032Y-125637240D01*
X118776552Y-125644898D01*
X118779805Y-125695149D01*
X118782816Y-125745883D01*
X118784124Y-125769462D01*
X118786496Y-125818364D01*
X118787730Y-125869079D01*
X118787787Y-125881570D01*
X118787787Y-126330000D01*
X118602163Y-126330000D01*
G37*
G36*
X120691645Y-125300882D02*
G01*
X120740692Y-125308576D01*
X120791746Y-125323362D01*
X120828436Y-125339351D01*
X120871013Y-125364864D01*
X120911523Y-125399239D01*
X120944878Y-125439959D01*
X120953489Y-125453412D01*
X120976930Y-125501688D01*
X120990605Y-125549378D01*
X120997246Y-125601087D01*
X120997941Y-125625359D01*
X120994386Y-125678203D01*
X120983721Y-125727377D01*
X120965947Y-125772880D01*
X120953000Y-125796573D01*
X120921454Y-125839607D01*
X120882990Y-125876200D01*
X120842459Y-125903628D01*
X120827704Y-125911612D01*
X120780400Y-125931329D01*
X120728614Y-125944593D01*
X120678819Y-125950966D01*
X120639148Y-125952400D01*
X120499930Y-125952400D01*
X120499930Y-126330000D01*
X120288904Y-126330000D01*
X120288904Y-125767264D01*
X120499930Y-125767264D01*
X120639148Y-125767264D01*
X120689563Y-125760613D01*
X120733668Y-125738574D01*
X120746859Y-125726964D01*
X120775610Y-125684567D01*
X120786563Y-125636669D01*
X120786915Y-125625359D01*
X120779248Y-125575738D01*
X120754018Y-125531495D01*
X120746859Y-125523754D01*
X120703243Y-125494828D01*
X120651591Y-125483808D01*
X120639148Y-125483454D01*
X120499930Y-125483454D01*
X120499930Y-125767264D01*
X120288904Y-125767264D01*
X120288904Y-125298318D01*
X120639148Y-125298318D01*
X120691645Y-125300882D01*
G37*
G36*
X121513198Y-125285752D02*
G01*
X121564569Y-125294948D01*
X121611475Y-125310275D01*
X121660556Y-125335906D01*
X121703558Y-125369881D01*
X121739152Y-125411114D01*
X121766003Y-125458518D01*
X121784111Y-125512093D01*
X121792675Y-125562926D01*
X121794905Y-125608750D01*
X121794905Y-126019567D01*
X121791694Y-126073706D01*
X121782060Y-126123465D01*
X121762702Y-126175984D01*
X121734602Y-126222541D01*
X121703558Y-126257704D01*
X121660556Y-126291964D01*
X121611475Y-126317810D01*
X121564569Y-126333266D01*
X121513198Y-126342540D01*
X121457362Y-126345631D01*
X121401525Y-126342540D01*
X121350154Y-126333266D01*
X121303248Y-126317810D01*
X121254168Y-126291964D01*
X121211165Y-126257704D01*
X121175572Y-126216255D01*
X121148721Y-126168846D01*
X121130612Y-126115476D01*
X121122048Y-126064987D01*
X121119818Y-126019567D01*
X121119818Y-125608750D01*
X121120622Y-125595073D01*
X121330844Y-125595073D01*
X121330844Y-126033244D01*
X121336898Y-126082827D01*
X121362473Y-126128682D01*
X121408064Y-126154406D01*
X121457362Y-126160495D01*
X121506659Y-126154406D01*
X121552250Y-126128682D01*
X121577825Y-126082827D01*
X121583879Y-126033244D01*
X121583879Y-125595073D01*
X121577825Y-125545490D01*
X121552250Y-125499635D01*
X121506659Y-125473911D01*
X121457362Y-125467822D01*
X121408064Y-125473911D01*
X121362473Y-125499635D01*
X121336898Y-125545490D01*
X121330844Y-125595073D01*
X121120622Y-125595073D01*
X121123029Y-125554139D01*
X121132664Y-125504062D01*
X121152021Y-125451368D01*
X121180121Y-125404846D01*
X121211165Y-125369881D01*
X121254168Y-125335906D01*
X121303248Y-125310275D01*
X121350154Y-125294948D01*
X121401525Y-125285752D01*
X121457362Y-125282686D01*
X121513198Y-125285752D01*
G37*
G36*
X121984193Y-126330000D02*
G01*
X121888695Y-125298318D01*
X122056001Y-125298318D01*
X122108025Y-125989036D01*
X122111082Y-126038334D01*
X122111444Y-126044968D01*
X122114351Y-126096057D01*
X122115596Y-126120195D01*
X122117580Y-126169898D01*
X122117794Y-126190048D01*
X122122465Y-126139124D01*
X122124145Y-126120195D01*
X122128848Y-126070166D01*
X122131228Y-126044968D01*
X122135671Y-125995618D01*
X122136113Y-125989036D01*
X122217690Y-125298318D01*
X122378157Y-125298318D01*
X122457048Y-125989036D01*
X122462519Y-126038334D01*
X122463154Y-126044968D01*
X122468173Y-126093675D01*
X122470969Y-126120195D01*
X122476206Y-126169898D01*
X122478053Y-126190048D01*
X122480113Y-126139490D01*
X122480739Y-126120683D01*
X122482978Y-126071296D01*
X122484403Y-126046434D01*
X122487417Y-125997496D01*
X122487822Y-125990990D01*
X122535694Y-125298318D01*
X122704466Y-125298318D01*
X122601884Y-126330000D01*
X122382309Y-126330000D01*
X122313433Y-125650272D01*
X122309569Y-125599621D01*
X122308548Y-125587990D01*
X122304465Y-125538416D01*
X122302198Y-125507390D01*
X122298566Y-125456459D01*
X122296580Y-125433140D01*
X122293872Y-125482088D01*
X122292184Y-125507390D01*
X122288730Y-125558566D01*
X122286566Y-125587990D01*
X122282536Y-125637495D01*
X122281193Y-125650272D01*
X122205233Y-126330000D01*
X121984193Y-126330000D01*
G37*
G36*
X122826343Y-126330000D02*
G01*
X122826343Y-125298318D01*
X123459420Y-125298318D01*
X123459420Y-125483454D01*
X123033217Y-125483454D01*
X123033217Y-125704738D01*
X123410083Y-125704738D01*
X123410083Y-125889874D01*
X123033217Y-125889874D01*
X123033217Y-126144863D01*
X123459420Y-126144863D01*
X123459420Y-126330000D01*
X122826343Y-126330000D01*
G37*
G36*
X124028002Y-125300699D02*
G01*
X124077294Y-125307843D01*
X124128331Y-125321573D01*
X124164794Y-125336420D01*
X124211486Y-125363253D01*
X124251118Y-125396431D01*
X124283690Y-125435953D01*
X124289357Y-125444619D01*
X124312799Y-125490935D01*
X124327559Y-125542259D01*
X124333419Y-125592734D01*
X124333810Y-125610460D01*
X124329965Y-125664872D01*
X124318431Y-125715999D01*
X124299208Y-125763841D01*
X124285205Y-125789002D01*
X124255161Y-125829801D01*
X124219706Y-125863723D01*
X124178842Y-125890766D01*
X124153803Y-125902819D01*
X124347732Y-126330000D01*
X124118632Y-126330000D01*
X123952547Y-125936769D01*
X123854117Y-125936769D01*
X123854117Y-126330000D01*
X123645778Y-126330000D01*
X123645778Y-125751632D01*
X123854117Y-125751632D01*
X123975017Y-125751632D01*
X124026930Y-125745949D01*
X124073806Y-125725266D01*
X124083949Y-125717194D01*
X124113075Y-125675612D01*
X124122746Y-125624095D01*
X124122784Y-125620230D01*
X124115351Y-125568945D01*
X124090889Y-125526345D01*
X124083949Y-125519357D01*
X124040794Y-125493587D01*
X123992106Y-125484015D01*
X123975017Y-125483454D01*
X123854117Y-125483454D01*
X123854117Y-125751632D01*
X123645778Y-125751632D01*
X123645778Y-125298318D01*
X123975017Y-125298318D01*
X124028002Y-125300699D01*
G37*
D12*
G36*
X107323377Y-57160000D02*
G01*
X107323377Y-55096636D01*
X107745429Y-55096636D01*
X107745429Y-56789727D01*
X108575854Y-56789727D01*
X108575854Y-57160000D01*
X107323377Y-57160000D01*
G37*
G36*
X109634212Y-55071504D02*
G01*
X109736954Y-55089896D01*
X109830766Y-55120551D01*
X109928927Y-55171812D01*
X110014933Y-55239762D01*
X110086120Y-55322229D01*
X110139821Y-55417037D01*
X110176039Y-55524187D01*
X110193167Y-55625853D01*
X110197627Y-55717501D01*
X110197627Y-56539134D01*
X110191204Y-56647412D01*
X110171936Y-56746931D01*
X110133220Y-56851968D01*
X110077021Y-56945083D01*
X110014933Y-57015408D01*
X109928927Y-57083929D01*
X109830766Y-57135621D01*
X109736954Y-57166533D01*
X109634212Y-57185080D01*
X109522540Y-57191263D01*
X109410867Y-57185080D01*
X109308125Y-57166533D01*
X109214313Y-57135621D01*
X109116152Y-57083929D01*
X109030146Y-57015408D01*
X108958960Y-56932511D01*
X108905258Y-56837692D01*
X108869040Y-56730953D01*
X108851913Y-56629974D01*
X108847452Y-56539134D01*
X108847452Y-55717501D01*
X108849061Y-55690146D01*
X109269504Y-55690146D01*
X109269504Y-56566489D01*
X109281612Y-56665655D01*
X109332763Y-56757365D01*
X109423945Y-56808812D01*
X109522540Y-56820990D01*
X109621135Y-56808812D01*
X109712316Y-56757365D01*
X109763467Y-56665655D01*
X109775575Y-56566489D01*
X109775575Y-55690146D01*
X109763467Y-55590980D01*
X109712316Y-55499270D01*
X109621135Y-55447823D01*
X109522540Y-55435645D01*
X109423945Y-55447823D01*
X109332763Y-55499270D01*
X109281612Y-55590980D01*
X109269504Y-55690146D01*
X108849061Y-55690146D01*
X108853875Y-55608279D01*
X108873144Y-55508124D01*
X108911859Y-55402737D01*
X108968059Y-55309692D01*
X109030146Y-55239762D01*
X109116152Y-55171812D01*
X109214313Y-55120551D01*
X109308125Y-55089896D01*
X109410867Y-55071504D01*
X109522540Y-55065373D01*
X109634212Y-55071504D01*
G37*
G36*
X110989951Y-57160000D02*
G01*
X110989951Y-55466908D01*
X110469225Y-55466908D01*
X110469225Y-55096636D01*
X111932728Y-55096636D01*
X111932728Y-55466908D01*
X111412002Y-55466908D01*
X111412002Y-57160000D01*
X110989951Y-57160000D01*
G37*
G36*
X112260502Y-57160000D02*
G01*
X112260502Y-56789727D01*
X112668387Y-56789727D01*
X112668387Y-55466908D01*
X112260502Y-55466908D01*
X112260502Y-55096636D01*
X113498325Y-55096636D01*
X113498325Y-55466908D01*
X113090439Y-55466908D01*
X113090439Y-56789727D01*
X113498325Y-56789727D01*
X113498325Y-57160000D01*
X112260502Y-57160000D01*
G37*
G36*
X114346824Y-57160000D02*
G01*
X114346824Y-55466908D01*
X113826099Y-55466908D01*
X113826099Y-55096636D01*
X115289602Y-55096636D01*
X115289602Y-55466908D01*
X114768876Y-55466908D01*
X114768876Y-57160000D01*
X114346824Y-57160000D01*
G37*
G36*
X116347959Y-55071504D02*
G01*
X116450702Y-55089896D01*
X116544514Y-55120551D01*
X116642675Y-55171812D01*
X116728681Y-55239762D01*
X116799867Y-55322229D01*
X116853569Y-55417037D01*
X116889786Y-55524187D01*
X116906914Y-55625853D01*
X116911374Y-55717501D01*
X116911374Y-56539134D01*
X116904951Y-56647412D01*
X116885683Y-56746931D01*
X116846968Y-56851968D01*
X116790768Y-56945083D01*
X116728681Y-57015408D01*
X116642675Y-57083929D01*
X116544514Y-57135621D01*
X116450702Y-57166533D01*
X116347959Y-57185080D01*
X116236287Y-57191263D01*
X116124615Y-57185080D01*
X116021872Y-57166533D01*
X115928060Y-57135621D01*
X115829899Y-57083929D01*
X115743893Y-57015408D01*
X115672707Y-56932511D01*
X115619005Y-56837692D01*
X115582788Y-56730953D01*
X115565660Y-56629974D01*
X115561200Y-56539134D01*
X115561200Y-55717501D01*
X115562809Y-55690146D01*
X115983251Y-55690146D01*
X115983251Y-56566489D01*
X115995360Y-56665655D01*
X116046510Y-56757365D01*
X116137692Y-56808812D01*
X116236287Y-56820990D01*
X116334882Y-56808812D01*
X116426064Y-56757365D01*
X116477214Y-56665655D01*
X116489323Y-56566489D01*
X116489323Y-55690146D01*
X116477214Y-55590980D01*
X116426064Y-55499270D01*
X116334882Y-55447823D01*
X116236287Y-55435645D01*
X116137692Y-55447823D01*
X116046510Y-55499270D01*
X115995360Y-55590980D01*
X115983251Y-55690146D01*
X115562809Y-55690146D01*
X115567623Y-55608279D01*
X115586891Y-55508124D01*
X115625606Y-55402737D01*
X115681806Y-55309692D01*
X115743893Y-55239762D01*
X115829899Y-55171812D01*
X115928060Y-55120551D01*
X116021872Y-55089896D01*
X116124615Y-55071504D01*
X116236287Y-55065373D01*
X116347959Y-55071504D01*
G37*
G36*
X119072435Y-57160000D02*
G01*
X119072435Y-55096636D01*
X119494487Y-55096636D01*
X119494487Y-56789727D01*
X120324912Y-56789727D01*
X120324912Y-57160000D01*
X119072435Y-57160000D01*
G37*
G36*
X122045359Y-57160000D02*
G01*
X121615003Y-57160000D01*
X121516329Y-56691053D01*
X121026866Y-56691053D01*
X120928192Y-57160000D01*
X120497836Y-57160000D01*
X120696235Y-56347159D01*
X121097208Y-56347159D01*
X121443056Y-56347159D01*
X121344870Y-55853789D01*
X121325880Y-55754276D01*
X121306459Y-55655408D01*
X121303838Y-55642274D01*
X121284277Y-55543645D01*
X121271598Y-55478143D01*
X121253696Y-55574865D01*
X121241800Y-55640809D01*
X121223890Y-55738540D01*
X121204047Y-55837558D01*
X121201256Y-55850858D01*
X121097208Y-56347159D01*
X120696235Y-56347159D01*
X121001465Y-55096636D01*
X121535868Y-55096636D01*
X122045359Y-57160000D01*
G37*
G36*
X123052311Y-55100727D02*
G01*
X123156339Y-55115110D01*
X123252174Y-55139848D01*
X123311514Y-55162093D01*
X123400748Y-55208060D01*
X123483589Y-55270305D01*
X123550383Y-55344787D01*
X123599331Y-55430351D01*
X123627961Y-55525843D01*
X123636357Y-55621270D01*
X123627007Y-55723766D01*
X123595124Y-55823619D01*
X123540614Y-55909965D01*
X123468430Y-55978532D01*
X123374412Y-56028186D01*
X123293440Y-56048206D01*
X123293440Y-56054068D01*
X123389170Y-56075212D01*
X123480324Y-56122975D01*
X123497138Y-56135645D01*
X123567263Y-56204153D01*
X123622053Y-56287434D01*
X123634891Y-56313942D01*
X123666835Y-56406326D01*
X123682494Y-56507255D01*
X123684228Y-56556720D01*
X123677196Y-56654595D01*
X123652886Y-56755097D01*
X123611212Y-56846917D01*
X123595324Y-56872770D01*
X123533195Y-56951777D01*
X123457327Y-57019048D01*
X123367720Y-57074585D01*
X123348150Y-57084284D01*
X123254714Y-57120885D01*
X123153010Y-57145507D01*
X123055664Y-57157338D01*
X122978367Y-57160000D01*
X122291556Y-57160000D01*
X122291556Y-56816106D01*
X122699441Y-56816106D01*
X122964200Y-56816106D01*
X123066370Y-56803851D01*
X123160015Y-56759258D01*
X123180600Y-56741856D01*
X123237400Y-56659689D01*
X123259039Y-56560339D01*
X123259734Y-56536203D01*
X123246674Y-56438629D01*
X123199147Y-56348884D01*
X123180600Y-56329085D01*
X123093882Y-56274739D01*
X122997715Y-56254553D01*
X122964200Y-56253370D01*
X122699441Y-56253370D01*
X122699441Y-56816106D01*
X122291556Y-56816106D01*
X122291556Y-55909476D01*
X122699441Y-55909476D01*
X122947103Y-55909476D01*
X123045385Y-55897321D01*
X123137072Y-55849880D01*
X123141521Y-55845973D01*
X123198399Y-55759917D01*
X123211863Y-55673538D01*
X123194277Y-55575108D01*
X123141521Y-55501591D01*
X123051617Y-55453947D01*
X122954806Y-55440589D01*
X122947103Y-55440530D01*
X122699441Y-55440530D01*
X122699441Y-55909476D01*
X122291556Y-55909476D01*
X122291556Y-55096636D01*
X122952965Y-55096636D01*
X123052311Y-55100727D01*
G37*
G36*
X124740144Y-55071504D02*
G01*
X124842886Y-55089896D01*
X124936698Y-55120551D01*
X125034859Y-55171812D01*
X125120865Y-55239762D01*
X125192051Y-55322229D01*
X125245753Y-55417037D01*
X125281971Y-55524187D01*
X125299098Y-55625853D01*
X125303558Y-55717501D01*
X125303558Y-56539134D01*
X125297136Y-56647412D01*
X125277867Y-56746931D01*
X125239152Y-56851968D01*
X125182952Y-56945083D01*
X125120865Y-57015408D01*
X125034859Y-57083929D01*
X124936698Y-57135621D01*
X124842886Y-57166533D01*
X124740144Y-57185080D01*
X124628471Y-57191263D01*
X124516799Y-57185080D01*
X124414057Y-57166533D01*
X124320244Y-57135621D01*
X124222084Y-57083929D01*
X124136078Y-57015408D01*
X124064891Y-56932511D01*
X124011189Y-56837692D01*
X123974972Y-56730953D01*
X123957844Y-56629974D01*
X123953384Y-56539134D01*
X123953384Y-55717501D01*
X123954993Y-55690146D01*
X124375436Y-55690146D01*
X124375436Y-56566489D01*
X124387544Y-56665655D01*
X124438695Y-56757365D01*
X124529876Y-56808812D01*
X124628471Y-56820990D01*
X124727066Y-56808812D01*
X124818248Y-56757365D01*
X124869399Y-56665655D01*
X124881507Y-56566489D01*
X124881507Y-55690146D01*
X124869399Y-55590980D01*
X124818248Y-55499270D01*
X124727066Y-55447823D01*
X124628471Y-55435645D01*
X124529876Y-55447823D01*
X124438695Y-55499270D01*
X124387544Y-55590980D01*
X124375436Y-55690146D01*
X123954993Y-55690146D01*
X123959807Y-55608279D01*
X123979075Y-55508124D01*
X124017791Y-55402737D01*
X124073990Y-55309692D01*
X124136078Y-55239762D01*
X124222084Y-55171812D01*
X124320244Y-55120551D01*
X124414057Y-55089896D01*
X124516799Y-55071504D01*
X124628471Y-55065373D01*
X124740144Y-55071504D01*
G37*
G36*
X126412879Y-55101399D02*
G01*
X126511461Y-55115687D01*
X126613535Y-55143147D01*
X126686461Y-55172840D01*
X126779846Y-55226506D01*
X126859111Y-55292862D01*
X126924255Y-55371907D01*
X126935589Y-55389239D01*
X126982472Y-55481870D01*
X127011991Y-55584519D01*
X127023712Y-55685468D01*
X127024494Y-55720921D01*
X127016804Y-55829744D01*
X126993736Y-55931998D01*
X126955289Y-56027683D01*
X126927285Y-56078004D01*
X126867195Y-56159603D01*
X126796287Y-56227446D01*
X126714559Y-56281533D01*
X126664480Y-56305638D01*
X127052337Y-57160000D01*
X126594138Y-57160000D01*
X126261967Y-56373538D01*
X126065108Y-56373538D01*
X126065108Y-57160000D01*
X125648429Y-57160000D01*
X125648429Y-56003265D01*
X126065108Y-56003265D01*
X126306908Y-56003265D01*
X126410733Y-55991898D01*
X126504485Y-55950532D01*
X126524773Y-55934389D01*
X126583025Y-55851224D01*
X126602366Y-55748191D01*
X126602442Y-55740460D01*
X126587576Y-55637891D01*
X126538653Y-55552690D01*
X126524773Y-55538715D01*
X126438462Y-55487174D01*
X126341087Y-55468030D01*
X126306908Y-55466908D01*
X126065108Y-55466908D01*
X126065108Y-56003265D01*
X125648429Y-56003265D01*
X125648429Y-55096636D01*
X126306908Y-55096636D01*
X126412879Y-55101399D01*
G37*
G36*
X128759106Y-57160000D02*
G01*
X128328750Y-57160000D01*
X128230076Y-56691053D01*
X127740614Y-56691053D01*
X127641939Y-57160000D01*
X127211584Y-57160000D01*
X127409983Y-56347159D01*
X127810956Y-56347159D01*
X128156803Y-56347159D01*
X128058618Y-55853789D01*
X128039627Y-55754276D01*
X128020207Y-55655408D01*
X128017585Y-55642274D01*
X127998025Y-55543645D01*
X127985345Y-55478143D01*
X127967443Y-55574865D01*
X127955547Y-55640809D01*
X127937637Y-55738540D01*
X127917795Y-55837558D01*
X127915003Y-55850858D01*
X127810956Y-56347159D01*
X127409983Y-56347159D01*
X127715212Y-55096636D01*
X128249616Y-55096636D01*
X128759106Y-57160000D01*
G37*
G36*
X129452756Y-57160000D02*
G01*
X129452756Y-55466908D01*
X128932030Y-55466908D01*
X128932030Y-55096636D01*
X130395533Y-55096636D01*
X130395533Y-55466908D01*
X129874808Y-55466908D01*
X129874808Y-57160000D01*
X129452756Y-57160000D01*
G37*
G36*
X131453891Y-55071504D02*
G01*
X131556633Y-55089896D01*
X131650445Y-55120551D01*
X131748606Y-55171812D01*
X131834612Y-55239762D01*
X131905798Y-55322229D01*
X131959500Y-55417037D01*
X131995718Y-55524187D01*
X132012846Y-55625853D01*
X132017306Y-55717501D01*
X132017306Y-56539134D01*
X132010883Y-56647412D01*
X131991615Y-56746931D01*
X131952899Y-56851968D01*
X131896699Y-56945083D01*
X131834612Y-57015408D01*
X131748606Y-57083929D01*
X131650445Y-57135621D01*
X131556633Y-57166533D01*
X131453891Y-57185080D01*
X131342219Y-57191263D01*
X131230546Y-57185080D01*
X131127804Y-57166533D01*
X131033992Y-57135621D01*
X130935831Y-57083929D01*
X130849825Y-57015408D01*
X130778639Y-56932511D01*
X130724937Y-56837692D01*
X130688719Y-56730953D01*
X130671592Y-56629974D01*
X130667131Y-56539134D01*
X130667131Y-55717501D01*
X130668740Y-55690146D01*
X131089183Y-55690146D01*
X131089183Y-56566489D01*
X131101291Y-56665655D01*
X131152442Y-56757365D01*
X131243624Y-56808812D01*
X131342219Y-56820990D01*
X131440814Y-56808812D01*
X131531995Y-56757365D01*
X131583146Y-56665655D01*
X131595254Y-56566489D01*
X131595254Y-55690146D01*
X131583146Y-55590980D01*
X131531995Y-55499270D01*
X131440814Y-55447823D01*
X131342219Y-55435645D01*
X131243624Y-55447823D01*
X131152442Y-55499270D01*
X131101291Y-55590980D01*
X131089183Y-55690146D01*
X130668740Y-55690146D01*
X130673554Y-55608279D01*
X130692823Y-55508124D01*
X130731538Y-55402737D01*
X130787738Y-55309692D01*
X130849825Y-55239762D01*
X130935831Y-55171812D01*
X131033992Y-55120551D01*
X131127804Y-55089896D01*
X131230546Y-55071504D01*
X131342219Y-55065373D01*
X131453891Y-55071504D01*
G37*
G36*
X133126626Y-55101399D02*
G01*
X133225209Y-55115687D01*
X133327283Y-55143147D01*
X133400209Y-55172840D01*
X133493594Y-55226506D01*
X133572858Y-55292862D01*
X133638002Y-55371907D01*
X133649337Y-55389239D01*
X133696220Y-55481870D01*
X133725739Y-55584519D01*
X133737460Y-55685468D01*
X133738241Y-55720921D01*
X133730552Y-55829744D01*
X133707484Y-55931998D01*
X133669037Y-56027683D01*
X133641032Y-56078004D01*
X133580943Y-56159603D01*
X133510034Y-56227446D01*
X133428306Y-56281533D01*
X133378227Y-56305638D01*
X133766085Y-57160000D01*
X133307885Y-57160000D01*
X132975715Y-56373538D01*
X132778855Y-56373538D01*
X132778855Y-57160000D01*
X132362177Y-57160000D01*
X132362177Y-56003265D01*
X132778855Y-56003265D01*
X133020655Y-56003265D01*
X133124481Y-55991898D01*
X133218233Y-55950532D01*
X133238520Y-55934389D01*
X133296772Y-55851224D01*
X133316113Y-55748191D01*
X133316189Y-55740460D01*
X133301323Y-55637891D01*
X133252400Y-55552690D01*
X133238520Y-55538715D01*
X133152210Y-55487174D01*
X133054834Y-55468030D01*
X133020655Y-55466908D01*
X132778855Y-55466908D01*
X132778855Y-56003265D01*
X132362177Y-56003265D01*
X132362177Y-55096636D01*
X133020655Y-55096636D01*
X133126626Y-55101399D01*
G37*
G36*
X134080181Y-57160000D02*
G01*
X134080181Y-56789727D01*
X134488066Y-56789727D01*
X134488066Y-55466908D01*
X134080181Y-55466908D01*
X134080181Y-55096636D01*
X135318004Y-55096636D01*
X135318004Y-55466908D01*
X134910118Y-55466908D01*
X134910118Y-56789727D01*
X135318004Y-56789727D01*
X135318004Y-57160000D01*
X134080181Y-57160000D01*
G37*
G36*
X135758618Y-57160000D02*
G01*
X135758618Y-55096636D01*
X137024773Y-55096636D01*
X137024773Y-55466908D01*
X136172365Y-55466908D01*
X136172365Y-55909476D01*
X136926099Y-55909476D01*
X136926099Y-56279748D01*
X136172365Y-56279748D01*
X136172365Y-56789727D01*
X137024773Y-56789727D01*
X137024773Y-57160000D01*
X135758618Y-57160000D01*
G37*
G36*
X138061828Y-57191263D02*
G01*
X137956834Y-57186469D01*
X137858740Y-57172090D01*
X137756632Y-57144453D01*
X137683251Y-57114570D01*
X137598059Y-57066408D01*
X137516905Y-57001111D01*
X137449968Y-56923411D01*
X137432658Y-56897683D01*
X137386033Y-56804937D01*
X137356676Y-56702556D01*
X137345019Y-56602173D01*
X137344242Y-56566978D01*
X137755059Y-56566978D01*
X137773305Y-56665317D01*
X137832992Y-56747733D01*
X137838101Y-56752114D01*
X137928619Y-56801552D01*
X138027558Y-56819914D01*
X138061828Y-56820990D01*
X138163755Y-56810026D01*
X138256520Y-56770127D01*
X138276762Y-56754556D01*
X138337365Y-56671425D01*
X138354431Y-56577236D01*
X138336521Y-56479774D01*
X138303628Y-56420432D01*
X138226596Y-56354421D01*
X138154640Y-56328108D01*
X137904047Y-56269002D01*
X137803028Y-56239139D01*
X137711545Y-56199131D01*
X137618672Y-56140986D01*
X137538255Y-56069591D01*
X137520097Y-56049672D01*
X137457907Y-55964125D01*
X137413485Y-55870642D01*
X137386832Y-55769220D01*
X137377948Y-55659860D01*
X137384216Y-55560003D01*
X137407374Y-55454095D01*
X137447595Y-55359594D01*
X137504880Y-55276500D01*
X137556245Y-55224131D01*
X137640728Y-55162271D01*
X137737740Y-55115605D01*
X137847281Y-55084132D01*
X137951146Y-55069249D01*
X138044731Y-55065373D01*
X138156403Y-55071057D01*
X138259146Y-55088110D01*
X138352958Y-55116532D01*
X138451118Y-55164060D01*
X138537124Y-55227062D01*
X138608311Y-55303200D01*
X138662013Y-55390138D01*
X138698230Y-55487874D01*
X138716963Y-55596410D01*
X138719818Y-55663279D01*
X138309002Y-55663279D01*
X138289149Y-55562850D01*
X138238660Y-55496217D01*
X138148894Y-55448954D01*
X138044731Y-55435645D01*
X137942965Y-55448740D01*
X137856175Y-55495240D01*
X137799890Y-55579379D01*
X137788764Y-55653021D01*
X137811680Y-55749888D01*
X137880426Y-55819511D01*
X137982693Y-55859162D01*
X138241591Y-55918269D01*
X138342777Y-55947785D01*
X138434333Y-55989315D01*
X138516258Y-56042860D01*
X138598094Y-56118766D01*
X138625540Y-56151277D01*
X138680929Y-56233145D01*
X138722713Y-56321886D01*
X138750893Y-56417499D01*
X138765469Y-56519984D01*
X138767690Y-56581632D01*
X138760889Y-56681354D01*
X138737381Y-56783726D01*
X138697081Y-56877225D01*
X138681716Y-56903545D01*
X138621085Y-56983744D01*
X138546047Y-57051540D01*
X138456603Y-57106934D01*
X138436985Y-57116524D01*
X138343124Y-57152653D01*
X138240144Y-57176957D01*
X138140951Y-57188635D01*
X138061828Y-57191263D01*
G37*
G36*
X140962456Y-56409685D02*
G01*
X140962456Y-56003265D01*
X141863224Y-56003265D01*
X141863224Y-56409685D01*
X140962456Y-56409685D01*
G37*
G36*
X144248988Y-57160000D02*
G01*
X144248988Y-55096636D01*
X144671039Y-55096636D01*
X144671039Y-56789727D01*
X145501465Y-56789727D01*
X145501465Y-57160000D01*
X144248988Y-57160000D01*
G37*
G36*
X145829239Y-57160000D02*
G01*
X145829239Y-56789727D01*
X146237124Y-56789727D01*
X146237124Y-55466908D01*
X145829239Y-55466908D01*
X145829239Y-55096636D01*
X147067062Y-55096636D01*
X147067062Y-55466908D01*
X146659176Y-55466908D01*
X146659176Y-56789727D01*
X147067062Y-56789727D01*
X147067062Y-57160000D01*
X145829239Y-57160000D01*
G37*
G36*
X147451500Y-57160000D02*
G01*
X147451500Y-55096636D01*
X147943893Y-55096636D01*
X148475366Y-56697892D01*
X148467539Y-56599825D01*
X148459266Y-56497711D01*
X148455826Y-56455603D01*
X148447950Y-56352655D01*
X148441172Y-56249706D01*
X148437264Y-56181074D01*
X148432836Y-56076003D01*
X148430592Y-55978176D01*
X148430425Y-55947090D01*
X148430425Y-55096636D01*
X148801674Y-55096636D01*
X148801674Y-57160000D01*
X148309281Y-57160000D01*
X147783182Y-55576329D01*
X147791852Y-55674637D01*
X147799239Y-55774480D01*
X147800279Y-55789797D01*
X147806784Y-55890298D01*
X147812806Y-55991767D01*
X147815422Y-56038925D01*
X147820166Y-56136728D01*
X147822634Y-56238158D01*
X147822749Y-56263140D01*
X147822749Y-57160000D01*
X147451500Y-57160000D01*
G37*
G36*
X149186113Y-57160000D02*
G01*
X149186113Y-55096636D01*
X150452267Y-55096636D01*
X150452267Y-55466908D01*
X149599860Y-55466908D01*
X149599860Y-55909476D01*
X150353593Y-55909476D01*
X150353593Y-56279748D01*
X149599860Y-56279748D01*
X149599860Y-56789727D01*
X150452267Y-56789727D01*
X150452267Y-57160000D01*
X149186113Y-57160000D01*
G37*
G36*
X152257222Y-57160000D02*
G01*
X151826866Y-57160000D01*
X151728192Y-56691053D01*
X151238729Y-56691053D01*
X151140055Y-57160000D01*
X150709699Y-57160000D01*
X150908098Y-56347159D01*
X151309071Y-56347159D01*
X151654919Y-56347159D01*
X151556734Y-55853789D01*
X151537743Y-55754276D01*
X151518323Y-55655408D01*
X151515701Y-55642274D01*
X151496140Y-55543645D01*
X151483461Y-55478143D01*
X151465559Y-55574865D01*
X151453663Y-55640809D01*
X151435753Y-55738540D01*
X151415910Y-55837558D01*
X151413119Y-55850858D01*
X151309071Y-56347159D01*
X150908098Y-56347159D01*
X151213328Y-55096636D01*
X151747732Y-55096636D01*
X152257222Y-57160000D01*
G37*
G36*
X153267868Y-55101399D02*
G01*
X153366451Y-55115687D01*
X153468525Y-55143147D01*
X153541451Y-55172840D01*
X153634836Y-55226506D01*
X153714100Y-55292862D01*
X153779244Y-55371907D01*
X153790579Y-55389239D01*
X153837462Y-55481870D01*
X153866981Y-55584519D01*
X153878702Y-55685468D01*
X153879483Y-55720921D01*
X153871794Y-55829744D01*
X153848726Y-55931998D01*
X153810279Y-56027683D01*
X153782274Y-56078004D01*
X153722185Y-56159603D01*
X153651276Y-56227446D01*
X153569548Y-56281533D01*
X153519469Y-56305638D01*
X153907327Y-57160000D01*
X153449127Y-57160000D01*
X153116957Y-56373538D01*
X152920097Y-56373538D01*
X152920097Y-57160000D01*
X152503419Y-57160000D01*
X152503419Y-56003265D01*
X152920097Y-56003265D01*
X153161898Y-56003265D01*
X153265723Y-55991898D01*
X153359475Y-55950532D01*
X153379762Y-55934389D01*
X153438014Y-55851224D01*
X153457356Y-55748191D01*
X153457431Y-55740460D01*
X153442565Y-55637891D01*
X153393643Y-55552690D01*
X153379762Y-55538715D01*
X153293452Y-55487174D01*
X153196076Y-55468030D01*
X153161898Y-55466908D01*
X152920097Y-55466908D01*
X152920097Y-56003265D01*
X152503419Y-56003265D01*
X152503419Y-55096636D01*
X153161898Y-55096636D01*
X153267868Y-55101399D01*
G37*
G36*
X156665775Y-55101765D02*
G01*
X156763869Y-55117152D01*
X156865977Y-55146725D01*
X156939357Y-55178702D01*
X157024511Y-55229728D01*
X157105531Y-55298478D01*
X157172240Y-55379918D01*
X157189462Y-55406824D01*
X157236345Y-55503377D01*
X157263694Y-55598757D01*
X157276977Y-55702175D01*
X157278367Y-55750718D01*
X157271257Y-55856407D01*
X157249928Y-55954755D01*
X157214379Y-56045760D01*
X157188485Y-56093147D01*
X157125392Y-56179214D01*
X157048465Y-56252401D01*
X156967403Y-56307257D01*
X156937892Y-56323224D01*
X156843284Y-56362658D01*
X156739712Y-56389186D01*
X156640122Y-56401933D01*
X156560781Y-56404801D01*
X156282344Y-56404801D01*
X156282344Y-57160000D01*
X155860293Y-57160000D01*
X155860293Y-56034528D01*
X156282344Y-56034528D01*
X156560781Y-56034528D01*
X156661611Y-56021226D01*
X156749821Y-55977148D01*
X156776203Y-55953928D01*
X156833705Y-55869135D01*
X156855611Y-55773338D01*
X156856315Y-55750718D01*
X156840981Y-55651476D01*
X156790520Y-55562990D01*
X156776203Y-55547508D01*
X156688970Y-55489656D01*
X156585667Y-55467616D01*
X156560781Y-55466908D01*
X156282344Y-55466908D01*
X156282344Y-56034528D01*
X155860293Y-56034528D01*
X155860293Y-55096636D01*
X156560781Y-55096636D01*
X156665775Y-55101765D01*
G37*
G36*
X158308881Y-55071504D02*
G01*
X158411623Y-55089896D01*
X158505435Y-55120551D01*
X158603596Y-55171812D01*
X158689602Y-55239762D01*
X158760788Y-55322229D01*
X158814490Y-55417037D01*
X158850708Y-55524187D01*
X158867835Y-55625853D01*
X158872295Y-55717501D01*
X158872295Y-56539134D01*
X158865873Y-56647412D01*
X158846604Y-56746931D01*
X158807889Y-56851968D01*
X158751689Y-56945083D01*
X158689602Y-57015408D01*
X158603596Y-57083929D01*
X158505435Y-57135621D01*
X158411623Y-57166533D01*
X158308881Y-57185080D01*
X158197208Y-57191263D01*
X158085536Y-57185080D01*
X157982793Y-57166533D01*
X157888981Y-57135621D01*
X157790820Y-57083929D01*
X157704815Y-57015408D01*
X157633628Y-56932511D01*
X157579926Y-56837692D01*
X157543709Y-56730953D01*
X157526581Y-56629974D01*
X157522121Y-56539134D01*
X157522121Y-55717501D01*
X157523730Y-55690146D01*
X157944173Y-55690146D01*
X157944173Y-56566489D01*
X157956281Y-56665655D01*
X158007431Y-56757365D01*
X158098613Y-56808812D01*
X158197208Y-56820990D01*
X158295803Y-56808812D01*
X158386985Y-56757365D01*
X158438136Y-56665655D01*
X158450244Y-56566489D01*
X158450244Y-55690146D01*
X158438136Y-55590980D01*
X158386985Y-55499270D01*
X158295803Y-55447823D01*
X158197208Y-55435645D01*
X158098613Y-55447823D01*
X158007431Y-55499270D01*
X157956281Y-55590980D01*
X157944173Y-55690146D01*
X157523730Y-55690146D01*
X157528544Y-55608279D01*
X157547812Y-55508124D01*
X157586528Y-55402737D01*
X157642727Y-55309692D01*
X157704815Y-55239762D01*
X157790820Y-55171812D01*
X157888981Y-55120551D01*
X157982793Y-55089896D01*
X158085536Y-55071504D01*
X158197208Y-55065373D01*
X158308881Y-55071504D01*
G37*
G36*
X159250872Y-57160000D02*
G01*
X159059874Y-55096636D01*
X159394487Y-55096636D01*
X159498534Y-56478073D01*
X159504649Y-56576669D01*
X159505373Y-56589937D01*
X159511187Y-56692114D01*
X159513677Y-56740390D01*
X159517644Y-56839797D01*
X159518073Y-56880097D01*
X159527416Y-56778248D01*
X159530774Y-56740390D01*
X159540181Y-56640333D01*
X159544940Y-56589937D01*
X159553827Y-56491237D01*
X159554710Y-56478073D01*
X159717864Y-55096636D01*
X160038799Y-55096636D01*
X160196580Y-56478073D01*
X160207523Y-56576669D01*
X160208792Y-56589937D01*
X160218830Y-56687350D01*
X160224424Y-56740390D01*
X160234898Y-56839797D01*
X160238590Y-56880097D01*
X160242711Y-56778981D01*
X160243963Y-56741367D01*
X160248441Y-56642592D01*
X160251290Y-56592868D01*
X160257318Y-56494993D01*
X160258129Y-56481981D01*
X160353872Y-55096636D01*
X160691416Y-55096636D01*
X160486252Y-57160000D01*
X160047103Y-57160000D01*
X159909351Y-55800544D01*
X159901623Y-55699243D01*
X159899581Y-55675980D01*
X159891414Y-55576833D01*
X159886880Y-55514780D01*
X159879617Y-55412919D01*
X159875645Y-55366280D01*
X159870230Y-55464176D01*
X159866852Y-55514780D01*
X159859945Y-55617133D01*
X159855617Y-55675980D01*
X159847557Y-55774990D01*
X159844870Y-55800544D01*
X159692951Y-57160000D01*
X159250872Y-57160000D01*
G37*
G36*
X160935170Y-57160000D02*
G01*
X160935170Y-55096636D01*
X162201325Y-55096636D01*
X162201325Y-55466908D01*
X161348918Y-55466908D01*
X161348918Y-55909476D01*
X162102651Y-55909476D01*
X162102651Y-56279748D01*
X161348918Y-56279748D01*
X161348918Y-56789727D01*
X162201325Y-56789727D01*
X162201325Y-57160000D01*
X160935170Y-57160000D01*
G37*
G36*
X163338490Y-55101399D02*
G01*
X163437072Y-55115687D01*
X163539146Y-55143147D01*
X163612072Y-55172840D01*
X163705457Y-55226506D01*
X163784721Y-55292862D01*
X163849865Y-55371907D01*
X163861200Y-55389239D01*
X163908083Y-55481870D01*
X163937602Y-55584519D01*
X163949323Y-55685468D01*
X163950104Y-55720921D01*
X163942415Y-55829744D01*
X163919347Y-55931998D01*
X163880900Y-56027683D01*
X163852896Y-56078004D01*
X163792806Y-56159603D01*
X163721897Y-56227446D01*
X163640170Y-56281533D01*
X163590090Y-56305638D01*
X163977948Y-57160000D01*
X163519748Y-57160000D01*
X163187578Y-56373538D01*
X162990718Y-56373538D01*
X162990718Y-57160000D01*
X162574040Y-57160000D01*
X162574040Y-56003265D01*
X162990718Y-56003265D01*
X163232519Y-56003265D01*
X163336344Y-55991898D01*
X163430096Y-55950532D01*
X163450383Y-55934389D01*
X163508635Y-55851224D01*
X163527977Y-55748191D01*
X163528053Y-55740460D01*
X163513186Y-55637891D01*
X163464264Y-55552690D01*
X163450383Y-55538715D01*
X163364073Y-55487174D01*
X163266697Y-55468030D01*
X163232519Y-55466908D01*
X162990718Y-55466908D01*
X162990718Y-56003265D01*
X162574040Y-56003265D01*
X162574040Y-55096636D01*
X163232519Y-55096636D01*
X163338490Y-55101399D01*
G37*
G36*
X166595254Y-57191263D02*
G01*
X166490260Y-57186469D01*
X166392166Y-57172090D01*
X166290058Y-57144453D01*
X166216678Y-57114570D01*
X166131485Y-57066408D01*
X166050332Y-57001111D01*
X165983394Y-56923411D01*
X165966085Y-56897683D01*
X165919459Y-56804937D01*
X165890102Y-56702556D01*
X165878446Y-56602173D01*
X165877669Y-56566978D01*
X166288485Y-56566978D01*
X166306732Y-56665317D01*
X166366419Y-56747733D01*
X166371528Y-56752114D01*
X166462045Y-56801552D01*
X166560984Y-56819914D01*
X166595254Y-56820990D01*
X166697182Y-56810026D01*
X166789946Y-56770127D01*
X166810188Y-56754556D01*
X166870791Y-56671425D01*
X166887857Y-56577236D01*
X166869947Y-56479774D01*
X166837055Y-56420432D01*
X166760022Y-56354421D01*
X166688066Y-56328108D01*
X166437473Y-56269002D01*
X166336454Y-56239139D01*
X166244972Y-56199131D01*
X166152098Y-56140986D01*
X166071682Y-56069591D01*
X166053524Y-56049672D01*
X165991333Y-55964125D01*
X165946912Y-55870642D01*
X165920259Y-55769220D01*
X165911374Y-55659860D01*
X165917643Y-55560003D01*
X165940800Y-55454095D01*
X165981022Y-55359594D01*
X166038307Y-55276500D01*
X166089672Y-55224131D01*
X166174155Y-55162271D01*
X166271167Y-55115605D01*
X166380708Y-55084132D01*
X166484572Y-55069249D01*
X166578157Y-55065373D01*
X166689830Y-55071057D01*
X166792572Y-55088110D01*
X166886384Y-55116532D01*
X166984545Y-55164060D01*
X167070551Y-55227062D01*
X167141737Y-55303200D01*
X167195439Y-55390138D01*
X167231657Y-55487874D01*
X167250390Y-55596410D01*
X167253244Y-55663279D01*
X166842428Y-55663279D01*
X166822576Y-55562850D01*
X166772086Y-55496217D01*
X166682321Y-55448954D01*
X166578157Y-55435645D01*
X166476391Y-55448740D01*
X166389602Y-55495240D01*
X166333316Y-55579379D01*
X166322191Y-55653021D01*
X166345106Y-55749888D01*
X166413852Y-55819511D01*
X166516120Y-55859162D01*
X166775017Y-55918269D01*
X166876203Y-55947785D01*
X166967759Y-55989315D01*
X167049684Y-56042860D01*
X167131521Y-56118766D01*
X167158967Y-56151277D01*
X167214355Y-56233145D01*
X167256139Y-56321886D01*
X167284319Y-56417499D01*
X167298895Y-56519984D01*
X167301116Y-56581632D01*
X167294315Y-56681354D01*
X167270807Y-56783726D01*
X167230507Y-56877225D01*
X167215143Y-56903545D01*
X167154511Y-56983744D01*
X167079473Y-57051540D01*
X166990029Y-57106934D01*
X166970411Y-57116524D01*
X166876550Y-57152653D01*
X166773571Y-57176957D01*
X166674377Y-57188635D01*
X166595254Y-57191263D01*
G37*
G36*
X168267829Y-57191263D02*
G01*
X168155361Y-57185303D01*
X168052064Y-57167426D01*
X167957937Y-57137630D01*
X167859712Y-57087805D01*
X167773970Y-57021758D01*
X167703355Y-56941426D01*
X167650084Y-56849172D01*
X167614157Y-56744997D01*
X167597167Y-56646216D01*
X167592742Y-56557208D01*
X167592742Y-55096636D01*
X168014794Y-55096636D01*
X168014794Y-56552323D01*
X168027416Y-56654424D01*
X168072754Y-56742718D01*
X168080739Y-56751625D01*
X168166385Y-56805749D01*
X168267829Y-56820990D01*
X168367492Y-56805749D01*
X168453454Y-56751625D01*
X168504012Y-56667117D01*
X168520601Y-56568329D01*
X168520865Y-56552323D01*
X168520865Y-55096636D01*
X168942916Y-55096636D01*
X168942916Y-56557208D01*
X168936528Y-56662343D01*
X168917363Y-56759029D01*
X168878854Y-56861150D01*
X168822955Y-56951771D01*
X168761200Y-57020293D01*
X168675648Y-57086911D01*
X168577567Y-57137167D01*
X168483526Y-57167220D01*
X168380280Y-57185252D01*
X168267829Y-57191263D01*
G37*
G36*
X170093270Y-55101765D02*
G01*
X170191364Y-55117152D01*
X170293472Y-55146725D01*
X170366852Y-55178702D01*
X170452006Y-55229728D01*
X170533026Y-55298478D01*
X170599735Y-55379918D01*
X170616957Y-55406824D01*
X170663840Y-55503377D01*
X170691189Y-55598757D01*
X170704472Y-55702175D01*
X170705861Y-55750718D01*
X170698752Y-55856407D01*
X170677422Y-55954755D01*
X170641874Y-56045760D01*
X170615980Y-56093147D01*
X170552887Y-56179214D01*
X170475960Y-56252401D01*
X170394898Y-56307257D01*
X170365387Y-56323224D01*
X170270779Y-56362658D01*
X170167207Y-56389186D01*
X170067617Y-56401933D01*
X169988276Y-56404801D01*
X169709839Y-56404801D01*
X169709839Y-57160000D01*
X169287787Y-57160000D01*
X169287787Y-56034528D01*
X169709839Y-56034528D01*
X169988276Y-56034528D01*
X170089106Y-56021226D01*
X170177316Y-55977148D01*
X170203698Y-55953928D01*
X170261200Y-55869135D01*
X170283106Y-55773338D01*
X170283810Y-55750718D01*
X170268476Y-55651476D01*
X170218015Y-55562990D01*
X170203698Y-55547508D01*
X170116465Y-55489656D01*
X170013161Y-55467616D01*
X169988276Y-55466908D01*
X169709839Y-55466908D01*
X169709839Y-56034528D01*
X169287787Y-56034528D01*
X169287787Y-55096636D01*
X169988276Y-55096636D01*
X170093270Y-55101765D01*
G37*
G36*
X171771707Y-55101765D02*
G01*
X171869801Y-55117152D01*
X171971909Y-55146725D01*
X172045289Y-55178702D01*
X172130443Y-55229728D01*
X172211463Y-55298478D01*
X172278172Y-55379918D01*
X172295394Y-55406824D01*
X172342277Y-55503377D01*
X172369625Y-55598757D01*
X172382909Y-55702175D01*
X172384298Y-55750718D01*
X172377188Y-55856407D01*
X172355859Y-55954755D01*
X172320310Y-56045760D01*
X172294417Y-56093147D01*
X172231324Y-56179214D01*
X172154397Y-56252401D01*
X172073335Y-56307257D01*
X172043824Y-56323224D01*
X171949216Y-56362658D01*
X171845643Y-56389186D01*
X171746053Y-56401933D01*
X171666713Y-56404801D01*
X171388276Y-56404801D01*
X171388276Y-57160000D01*
X170966224Y-57160000D01*
X170966224Y-56034528D01*
X171388276Y-56034528D01*
X171666713Y-56034528D01*
X171767543Y-56021226D01*
X171855752Y-55977148D01*
X171882135Y-55953928D01*
X171939637Y-55869135D01*
X171961542Y-55773338D01*
X171962247Y-55750718D01*
X171946913Y-55651476D01*
X171896452Y-55562990D01*
X171882135Y-55547508D01*
X171794902Y-55489656D01*
X171691598Y-55467616D01*
X171666713Y-55466908D01*
X171388276Y-55466908D01*
X171388276Y-56034528D01*
X170966224Y-56034528D01*
X170966224Y-55096636D01*
X171666713Y-55096636D01*
X171771707Y-55101765D01*
G37*
G36*
X172782414Y-57160000D02*
G01*
X172782414Y-55096636D01*
X173204466Y-55096636D01*
X173204466Y-56789727D01*
X174034891Y-56789727D01*
X174034891Y-57160000D01*
X172782414Y-57160000D01*
G37*
G36*
X174770551Y-57160000D02*
G01*
X174770551Y-56431179D01*
X174179483Y-55096636D01*
X174621563Y-55096636D01*
X174880460Y-55724340D01*
X174917096Y-55821427D01*
X174947007Y-55917547D01*
X174948848Y-55924131D01*
X174974005Y-56019630D01*
X174989881Y-56095101D01*
X175012550Y-55997633D01*
X175030914Y-55924131D01*
X175058141Y-55827681D01*
X175091678Y-55730243D01*
X175093928Y-55724340D01*
X175344521Y-55096636D01*
X175783670Y-55096636D01*
X175192602Y-56431179D01*
X175192602Y-57160000D01*
X174770551Y-57160000D01*
G37*
D10*
G36*
X170933286Y-138845631D02*
G01*
X170883568Y-138843204D01*
X170831393Y-138834671D01*
X170783198Y-138819994D01*
X170753279Y-138806796D01*
X170708252Y-138779343D01*
X170669951Y-138745831D01*
X170638375Y-138706261D01*
X170632868Y-138697620D01*
X170610328Y-138651390D01*
X170596136Y-138600629D01*
X170590501Y-138551069D01*
X170590125Y-138533733D01*
X170590125Y-138094584D01*
X170593506Y-138043169D01*
X170605194Y-137990800D01*
X170625229Y-137943440D01*
X170632868Y-137930209D01*
X170663097Y-137889708D01*
X170700053Y-137855219D01*
X170743736Y-137826740D01*
X170753279Y-137821765D01*
X170798821Y-137802874D01*
X170848342Y-137790166D01*
X170901844Y-137783640D01*
X170933286Y-137782686D01*
X170983600Y-137785129D01*
X171036116Y-137793715D01*
X171084305Y-137808484D01*
X171114026Y-137821765D01*
X171158667Y-137849042D01*
X171196725Y-137882330D01*
X171228200Y-137921628D01*
X171233705Y-137930209D01*
X171256374Y-137976195D01*
X171270647Y-138027143D01*
X171276314Y-138077237D01*
X171276692Y-138094829D01*
X171065666Y-138094829D01*
X171059027Y-138046202D01*
X171033117Y-138002366D01*
X171030983Y-138000307D01*
X170986259Y-137974960D01*
X170937212Y-137967854D01*
X170933286Y-137967822D01*
X170883451Y-137974040D01*
X170840007Y-137996373D01*
X170835589Y-138000307D01*
X170808718Y-138043231D01*
X170801151Y-138095073D01*
X170801151Y-138533244D01*
X170808718Y-138584196D01*
X170835589Y-138627278D01*
X170880314Y-138653196D01*
X170929361Y-138660463D01*
X170933286Y-138660495D01*
X170983121Y-138654137D01*
X171026566Y-138631300D01*
X171030983Y-138627278D01*
X171058045Y-138584005D01*
X171065666Y-138533000D01*
X171276692Y-138533000D01*
X171273291Y-138583902D01*
X171261537Y-138636109D01*
X171241387Y-138683736D01*
X171233705Y-138697131D01*
X171203547Y-138738042D01*
X171166805Y-138772847D01*
X171123481Y-138801545D01*
X171114026Y-138806552D01*
X171068723Y-138825443D01*
X171019092Y-138838151D01*
X170965133Y-138844677D01*
X170933286Y-138845631D01*
G37*
G36*
X171817106Y-137785752D02*
G01*
X171868477Y-137794948D01*
X171915383Y-137810275D01*
X171964463Y-137835906D01*
X172007466Y-137869881D01*
X172043060Y-137911114D01*
X172069910Y-137958518D01*
X172088019Y-138012093D01*
X172096583Y-138062926D01*
X172098813Y-138108750D01*
X172098813Y-138519567D01*
X172095602Y-138573706D01*
X172085968Y-138623465D01*
X172066610Y-138675984D01*
X172038510Y-138722541D01*
X172007466Y-138757704D01*
X171964463Y-138791964D01*
X171915383Y-138817810D01*
X171868477Y-138833266D01*
X171817106Y-138842540D01*
X171761270Y-138845631D01*
X171705433Y-138842540D01*
X171654062Y-138833266D01*
X171607156Y-138817810D01*
X171558076Y-138791964D01*
X171515073Y-138757704D01*
X171479480Y-138716255D01*
X171452629Y-138668846D01*
X171434520Y-138615476D01*
X171425956Y-138564987D01*
X171423726Y-138519567D01*
X171423726Y-138108750D01*
X171424530Y-138095073D01*
X171634752Y-138095073D01*
X171634752Y-138533244D01*
X171640806Y-138582827D01*
X171666381Y-138628682D01*
X171711972Y-138654406D01*
X171761270Y-138660495D01*
X171810567Y-138654406D01*
X171856158Y-138628682D01*
X171881733Y-138582827D01*
X171887787Y-138533244D01*
X171887787Y-138095073D01*
X171881733Y-138045490D01*
X171856158Y-137999635D01*
X171810567Y-137973911D01*
X171761270Y-137967822D01*
X171711972Y-137973911D01*
X171666381Y-137999635D01*
X171640806Y-138045490D01*
X171634752Y-138095073D01*
X171424530Y-138095073D01*
X171426937Y-138054139D01*
X171436572Y-138004062D01*
X171455929Y-137951368D01*
X171484029Y-137904846D01*
X171515073Y-137869881D01*
X171558076Y-137835906D01*
X171607156Y-137810275D01*
X171654062Y-137794948D01*
X171705433Y-137785752D01*
X171761270Y-137782686D01*
X171817106Y-137785752D01*
G37*
G36*
X172237543Y-138830000D02*
G01*
X172237543Y-137798318D01*
X172494975Y-137798318D01*
X172599023Y-138240397D01*
X172703070Y-137798318D01*
X172963433Y-137798318D01*
X172963433Y-138830000D01*
X172770725Y-138830000D01*
X172770725Y-138436036D01*
X172771189Y-138378471D01*
X172772580Y-138321730D01*
X172774898Y-138265814D01*
X172778144Y-138210722D01*
X172782317Y-138156454D01*
X172783914Y-138138548D01*
X172788978Y-138086187D01*
X172794092Y-138036264D01*
X172800125Y-137981102D01*
X172806227Y-137929261D01*
X172811514Y-137887466D01*
X172682065Y-138391828D01*
X172513293Y-138391828D01*
X172386531Y-137899923D01*
X172393645Y-137948726D01*
X172400819Y-138003787D01*
X172407147Y-138057100D01*
X172412608Y-138106611D01*
X172415352Y-138132686D01*
X172420415Y-138186439D01*
X172424431Y-138241634D01*
X172427399Y-138298271D01*
X172429320Y-138356352D01*
X172430120Y-138405854D01*
X172430251Y-138436036D01*
X172430251Y-138830000D01*
X172237543Y-138830000D01*
G37*
G36*
X196325598Y-138845631D02*
G01*
X196275880Y-138843204D01*
X196223705Y-138834671D01*
X196175510Y-138819994D01*
X196145591Y-138806796D01*
X196100564Y-138779343D01*
X196062263Y-138745831D01*
X196030687Y-138706261D01*
X196025180Y-138697620D01*
X196002640Y-138651390D01*
X195988448Y-138600629D01*
X195982813Y-138551069D01*
X195982437Y-138533733D01*
X195982437Y-138094584D01*
X195985818Y-138043169D01*
X195997506Y-137990800D01*
X196017541Y-137943440D01*
X196025180Y-137930209D01*
X196055409Y-137889708D01*
X196092365Y-137855219D01*
X196136048Y-137826740D01*
X196145591Y-137821765D01*
X196191133Y-137802874D01*
X196240654Y-137790166D01*
X196294156Y-137783640D01*
X196325598Y-137782686D01*
X196375912Y-137785129D01*
X196428428Y-137793715D01*
X196476617Y-137808484D01*
X196506338Y-137821765D01*
X196550979Y-137849042D01*
X196589037Y-137882330D01*
X196620512Y-137921628D01*
X196626017Y-137930209D01*
X196648686Y-137976195D01*
X196662959Y-138027143D01*
X196668626Y-138077237D01*
X196669004Y-138094829D01*
X196457978Y-138094829D01*
X196451339Y-138046202D01*
X196425429Y-138002366D01*
X196423295Y-138000307D01*
X196378571Y-137974960D01*
X196329524Y-137967854D01*
X196325598Y-137967822D01*
X196275763Y-137974040D01*
X196232319Y-137996373D01*
X196227901Y-138000307D01*
X196201030Y-138043231D01*
X196193463Y-138095073D01*
X196193463Y-138533244D01*
X196201030Y-138584196D01*
X196227901Y-138627278D01*
X196272626Y-138653196D01*
X196321673Y-138660463D01*
X196325598Y-138660495D01*
X196375433Y-138654137D01*
X196418878Y-138631300D01*
X196423295Y-138627278D01*
X196450357Y-138584005D01*
X196457978Y-138533000D01*
X196669004Y-138533000D01*
X196665603Y-138583902D01*
X196653849Y-138636109D01*
X196633699Y-138683736D01*
X196626017Y-138697131D01*
X196595859Y-138738042D01*
X196559117Y-138772847D01*
X196515793Y-138801545D01*
X196506338Y-138806552D01*
X196461035Y-138825443D01*
X196411404Y-138838151D01*
X196357445Y-138844677D01*
X196325598Y-138845631D01*
G37*
G36*
X197209418Y-137785752D02*
G01*
X197260789Y-137794948D01*
X197307695Y-137810275D01*
X197356775Y-137835906D01*
X197399778Y-137869881D01*
X197435372Y-137911114D01*
X197462222Y-137958518D01*
X197480331Y-138012093D01*
X197488895Y-138062926D01*
X197491125Y-138108750D01*
X197491125Y-138519567D01*
X197487914Y-138573706D01*
X197478280Y-138623465D01*
X197458922Y-138675984D01*
X197430822Y-138722541D01*
X197399778Y-138757704D01*
X197356775Y-138791964D01*
X197307695Y-138817810D01*
X197260789Y-138833266D01*
X197209418Y-138842540D01*
X197153582Y-138845631D01*
X197097745Y-138842540D01*
X197046374Y-138833266D01*
X196999468Y-138817810D01*
X196950388Y-138791964D01*
X196907385Y-138757704D01*
X196871792Y-138716255D01*
X196844941Y-138668846D01*
X196826832Y-138615476D01*
X196818268Y-138564987D01*
X196816038Y-138519567D01*
X196816038Y-138108750D01*
X196816842Y-138095073D01*
X197027064Y-138095073D01*
X197027064Y-138533244D01*
X197033118Y-138582827D01*
X197058693Y-138628682D01*
X197104284Y-138654406D01*
X197153582Y-138660495D01*
X197202879Y-138654406D01*
X197248470Y-138628682D01*
X197274045Y-138582827D01*
X197280099Y-138533244D01*
X197280099Y-138095073D01*
X197274045Y-138045490D01*
X197248470Y-137999635D01*
X197202879Y-137973911D01*
X197153582Y-137967822D01*
X197104284Y-137973911D01*
X197058693Y-137999635D01*
X197033118Y-138045490D01*
X197027064Y-138095073D01*
X196816842Y-138095073D01*
X196819249Y-138054139D01*
X196828884Y-138004062D01*
X196848241Y-137951368D01*
X196876341Y-137904846D01*
X196907385Y-137869881D01*
X196950388Y-137835906D01*
X196999468Y-137810275D01*
X197046374Y-137794948D01*
X197097745Y-137785752D01*
X197153582Y-137782686D01*
X197209418Y-137785752D01*
G37*
G36*
X197629855Y-138830000D02*
G01*
X197629855Y-137798318D01*
X197887287Y-137798318D01*
X197991335Y-138240397D01*
X198095382Y-137798318D01*
X198355745Y-137798318D01*
X198355745Y-138830000D01*
X198163037Y-138830000D01*
X198163037Y-138436036D01*
X198163501Y-138378471D01*
X198164892Y-138321730D01*
X198167210Y-138265814D01*
X198170456Y-138210722D01*
X198174629Y-138156454D01*
X198176226Y-138138548D01*
X198181290Y-138086187D01*
X198186404Y-138036264D01*
X198192437Y-137981102D01*
X198198539Y-137929261D01*
X198203826Y-137887466D01*
X198074377Y-138391828D01*
X197905605Y-138391828D01*
X197778843Y-137899923D01*
X197785957Y-137948726D01*
X197793131Y-138003787D01*
X197799459Y-138057100D01*
X197804920Y-138106611D01*
X197807664Y-138132686D01*
X197812727Y-138186439D01*
X197816743Y-138241634D01*
X197819711Y-138298271D01*
X197821632Y-138356352D01*
X197822432Y-138405854D01*
X197822563Y-138436036D01*
X197822563Y-138830000D01*
X197629855Y-138830000D01*
G37*
D13*
G36*
X139514073Y-133720641D02*
G01*
X139577560Y-133732124D01*
X139641942Y-133753862D01*
X139665880Y-133765203D01*
X139720411Y-133799221D01*
X139766522Y-133841175D01*
X139804211Y-133891066D01*
X139810738Y-133901996D01*
X139837728Y-133960308D01*
X139854722Y-134024739D01*
X139861469Y-134087958D01*
X139861919Y-134110133D01*
X139857797Y-134175179D01*
X139843548Y-134241639D01*
X139819120Y-134301980D01*
X139809807Y-134318889D01*
X139773403Y-134370234D01*
X139728940Y-134413763D01*
X139676420Y-134449477D01*
X139664949Y-134455682D01*
X139603651Y-134481037D01*
X139542784Y-134495827D01*
X139476520Y-134503010D01*
X139445336Y-134503762D01*
X139211454Y-134503762D01*
X139211454Y-135027050D01*
X139018517Y-135027050D01*
X139018517Y-134332227D01*
X139211454Y-134332227D01*
X139445336Y-134332227D01*
X139509452Y-134325043D01*
X139568529Y-134300820D01*
X139605393Y-134271431D01*
X139641874Y-134220293D01*
X139661518Y-134158076D01*
X139665260Y-134110443D01*
X139658185Y-134046040D01*
X139634332Y-133986484D01*
X139605393Y-133949145D01*
X139554823Y-133912097D01*
X139492911Y-133892148D01*
X139445336Y-133888348D01*
X139211454Y-133888348D01*
X139211454Y-134332227D01*
X139018517Y-134332227D01*
X139018517Y-133716814D01*
X139445336Y-133716814D01*
X139514073Y-133720641D01*
G37*
G36*
X140535880Y-133700669D02*
G01*
X140605644Y-133714367D01*
X140668016Y-133738158D01*
X140722997Y-133772043D01*
X140757743Y-133802426D01*
X140798837Y-133852438D01*
X140829838Y-133910466D01*
X140850745Y-133976509D01*
X140860632Y-134039496D01*
X140863207Y-134096484D01*
X140863207Y-134645518D01*
X140859499Y-134714056D01*
X140848376Y-134776597D01*
X140826027Y-134841980D01*
X140793584Y-134899200D01*
X140757743Y-134941748D01*
X140708042Y-134982721D01*
X140650950Y-135013630D01*
X140586466Y-135034476D01*
X140514589Y-135045259D01*
X140470198Y-135046902D01*
X140404506Y-135043205D01*
X140334702Y-135029547D01*
X140272259Y-135005826D01*
X140217179Y-134972041D01*
X140182344Y-134941748D01*
X140141371Y-134891525D01*
X140110461Y-134833139D01*
X140089615Y-134766590D01*
X140079757Y-134703050D01*
X140077190Y-134645518D01*
X140077190Y-134098345D01*
X140078194Y-134079734D01*
X140270127Y-134079734D01*
X140270127Y-134664129D01*
X140276248Y-134729175D01*
X140299265Y-134791209D01*
X140321928Y-134821395D01*
X140375804Y-134858290D01*
X140441143Y-134874050D01*
X140470198Y-134875367D01*
X140536269Y-134867777D01*
X140593668Y-134842425D01*
X140618469Y-134821395D01*
X140653880Y-134764576D01*
X140668449Y-134701035D01*
X140670270Y-134664129D01*
X140670270Y-134079734D01*
X140664259Y-134014725D01*
X140641655Y-133952828D01*
X140619399Y-133922779D01*
X140565803Y-133885671D01*
X140505404Y-133870404D01*
X140470198Y-133868496D01*
X140408205Y-133874910D01*
X140349399Y-133899030D01*
X140320998Y-133922779D01*
X140286223Y-133979386D01*
X140271915Y-134042839D01*
X140270127Y-134079734D01*
X140078194Y-134079734D01*
X140080887Y-134029818D01*
X140091977Y-133967310D01*
X140114261Y-133901992D01*
X140146608Y-133844868D01*
X140182344Y-133802426D01*
X140232165Y-133761332D01*
X140289349Y-133730331D01*
X140353895Y-133709424D01*
X140425803Y-133698609D01*
X140470198Y-133696962D01*
X140535880Y-133700669D01*
G37*
G36*
X141439537Y-135027050D02*
G01*
X141439537Y-133888348D01*
X141091196Y-133888348D01*
X141091196Y-133716814D01*
X141982677Y-133716814D01*
X141982677Y-133888348D01*
X141632474Y-133888348D01*
X141632474Y-135027050D01*
X141439537Y-135027050D01*
G37*
G36*
X142221212Y-135027050D02*
G01*
X142221212Y-134855515D01*
X142568003Y-134855515D01*
X142568003Y-133908200D01*
X142219351Y-134164726D01*
X142219351Y-133947284D01*
X142517752Y-133716814D01*
X142760940Y-133716814D01*
X142760940Y-134855515D01*
X143041350Y-134855515D01*
X143041350Y-135027050D01*
X142221212Y-135027050D01*
G37*
D14*
G36*
X206915000Y-118773551D02*
G01*
X206521769Y-118939636D01*
X206521769Y-119038066D01*
X206915000Y-119038066D01*
X206915000Y-119246405D01*
X205883318Y-119246405D01*
X205883318Y-118917166D01*
X206068454Y-118917166D01*
X206068454Y-119038066D01*
X206336632Y-119038066D01*
X206336632Y-118917166D01*
X206330949Y-118865253D01*
X206310266Y-118818377D01*
X206302194Y-118808234D01*
X206260612Y-118779108D01*
X206209095Y-118769437D01*
X206205230Y-118769399D01*
X206153945Y-118776832D01*
X206111345Y-118801293D01*
X206104357Y-118808234D01*
X206078587Y-118851389D01*
X206069015Y-118900076D01*
X206068454Y-118917166D01*
X205883318Y-118917166D01*
X205885699Y-118864180D01*
X205892843Y-118814889D01*
X205906573Y-118763852D01*
X205921420Y-118727389D01*
X205948253Y-118680697D01*
X205981431Y-118641065D01*
X206020953Y-118608493D01*
X206029619Y-118602825D01*
X206075935Y-118579384D01*
X206127259Y-118564624D01*
X206177734Y-118558764D01*
X206195460Y-118558373D01*
X206249872Y-118562218D01*
X206300999Y-118573752D01*
X206348841Y-118592975D01*
X206374002Y-118606977D01*
X206414801Y-118637022D01*
X206448723Y-118672477D01*
X206475766Y-118713340D01*
X206487819Y-118738380D01*
X206915000Y-118544451D01*
X206915000Y-118773551D01*
G37*
G36*
X206915000Y-118387403D02*
G01*
X206729863Y-118387403D01*
X206729863Y-118128506D01*
X206108998Y-118128506D01*
X206297065Y-118390334D01*
X206064057Y-118390334D01*
X205883318Y-118149755D01*
X205883318Y-117917480D01*
X206729863Y-117917480D01*
X206729863Y-117712072D01*
X206915000Y-117712072D01*
X206915000Y-118387403D01*
G37*
D10*
G36*
X205047263Y-98065562D02*
G01*
X205042408Y-98164999D01*
X205025342Y-98269349D01*
X204995989Y-98365738D01*
X204969593Y-98425576D01*
X204914686Y-98515631D01*
X204847663Y-98592233D01*
X204768522Y-98655384D01*
X204751240Y-98666399D01*
X204658781Y-98711479D01*
X204557258Y-98739863D01*
X204458138Y-98751133D01*
X204423466Y-98751884D01*
X203545169Y-98751884D01*
X203442339Y-98745122D01*
X203337601Y-98721747D01*
X203242881Y-98681676D01*
X203216418Y-98666399D01*
X203135417Y-98605940D01*
X203066438Y-98532028D01*
X203009480Y-98444663D01*
X202999531Y-98425576D01*
X202961749Y-98334493D01*
X202936333Y-98235450D01*
X202923281Y-98128447D01*
X202921373Y-98065562D01*
X202926258Y-97964934D01*
X202943431Y-97859902D01*
X202972969Y-97763525D01*
X202999531Y-97704082D01*
X203054084Y-97614800D01*
X203120660Y-97538684D01*
X203199256Y-97475734D01*
X203216418Y-97464724D01*
X203308391Y-97419387D01*
X203410286Y-97390841D01*
X203510475Y-97379507D01*
X203545658Y-97378751D01*
X203545658Y-97800803D01*
X203448405Y-97814080D01*
X203360732Y-97865900D01*
X203356614Y-97870168D01*
X203305920Y-97959617D01*
X203291708Y-98057711D01*
X203291645Y-98065562D01*
X203304080Y-98165232D01*
X203348746Y-98252121D01*
X203356614Y-98260956D01*
X203442462Y-98314699D01*
X203546146Y-98329833D01*
X204422489Y-98329833D01*
X204524392Y-98314699D01*
X204610556Y-98260956D01*
X204662393Y-98171507D01*
X204676926Y-98073413D01*
X204676990Y-98065562D01*
X204664275Y-97965892D01*
X204618601Y-97879002D01*
X204610556Y-97870168D01*
X204524010Y-97816044D01*
X204422001Y-97800803D01*
X204422001Y-97378751D01*
X204523804Y-97385552D01*
X204628218Y-97409060D01*
X204723473Y-97449360D01*
X204750263Y-97464724D01*
X204832085Y-97525041D01*
X204901694Y-97598524D01*
X204959091Y-97685173D01*
X204969105Y-97704082D01*
X205006886Y-97794689D01*
X205032303Y-97893951D01*
X205045354Y-98001868D01*
X205047263Y-98065562D01*
G37*
G36*
X205016000Y-97028507D02*
G01*
X204645727Y-97028507D01*
X204645727Y-96510712D01*
X203403997Y-96510712D01*
X203780131Y-97034369D01*
X203314115Y-97034369D01*
X202952636Y-96553210D01*
X202952636Y-96088660D01*
X204645727Y-96088660D01*
X204645727Y-95677844D01*
X205016000Y-95677844D01*
X205016000Y-97028507D01*
G37*
X204194533Y-90557584D02*
X204194533Y-91319489D01*
X204194533Y-102557584D02*
X204194533Y-103319489D01*
X203813580Y-102938536D02*
X204575485Y-102938536D01*
G36*
X187866631Y-83405931D02*
G01*
X187864204Y-83455649D01*
X187855671Y-83507824D01*
X187840994Y-83556019D01*
X187827796Y-83585938D01*
X187800343Y-83630965D01*
X187766831Y-83669266D01*
X187727261Y-83700842D01*
X187718620Y-83706349D01*
X187672390Y-83728889D01*
X187621629Y-83743081D01*
X187572069Y-83748716D01*
X187554733Y-83749092D01*
X187115584Y-83749092D01*
X187064169Y-83745711D01*
X187011800Y-83734023D01*
X186964440Y-83713988D01*
X186951209Y-83706349D01*
X186910708Y-83676120D01*
X186876219Y-83639164D01*
X186847740Y-83595481D01*
X186842765Y-83585938D01*
X186823874Y-83540396D01*
X186811166Y-83490875D01*
X186804640Y-83437373D01*
X186803686Y-83405931D01*
X186806129Y-83355617D01*
X186814715Y-83303101D01*
X186829484Y-83254912D01*
X186842765Y-83225191D01*
X186870042Y-83180550D01*
X186903330Y-83142492D01*
X186942628Y-83111017D01*
X186951209Y-83105512D01*
X186997195Y-83082843D01*
X187048143Y-83068570D01*
X187098237Y-83062903D01*
X187115829Y-83062525D01*
X187115829Y-83273551D01*
X187067202Y-83280190D01*
X187023366Y-83306100D01*
X187021307Y-83308234D01*
X186995960Y-83352958D01*
X186988854Y-83402005D01*
X186988822Y-83405931D01*
X186995040Y-83455766D01*
X187017373Y-83499210D01*
X187021307Y-83503628D01*
X187064231Y-83530499D01*
X187116073Y-83538066D01*
X187554244Y-83538066D01*
X187605196Y-83530499D01*
X187648278Y-83503628D01*
X187674196Y-83458903D01*
X187681463Y-83409856D01*
X187681495Y-83405931D01*
X187675137Y-83356096D01*
X187652300Y-83312651D01*
X187648278Y-83308234D01*
X187605005Y-83281172D01*
X187554000Y-83273551D01*
X187554000Y-83062525D01*
X187604902Y-83065926D01*
X187657109Y-83077680D01*
X187704736Y-83097830D01*
X187718131Y-83105512D01*
X187759042Y-83135670D01*
X187793847Y-83172412D01*
X187822545Y-83215736D01*
X187827552Y-83225191D01*
X187846443Y-83270494D01*
X187859151Y-83320125D01*
X187865677Y-83374084D01*
X187866631Y-83405931D01*
G37*
G36*
X187851000Y-82908652D02*
G01*
X187669283Y-82908652D01*
X187271900Y-82518841D01*
X187231633Y-82487671D01*
X187186548Y-82468046D01*
X187136645Y-82459965D01*
X187126087Y-82459734D01*
X187074953Y-82467301D01*
X187030348Y-82492053D01*
X187027901Y-82494172D01*
X186998592Y-82534106D01*
X186988822Y-82585030D01*
X186997677Y-82634293D01*
X187026643Y-82676310D01*
X187029122Y-82678575D01*
X187072002Y-82704346D01*
X187121223Y-82714164D01*
X187132926Y-82714479D01*
X187132926Y-82925505D01*
X187079647Y-82922008D01*
X187030272Y-82911517D01*
X186979988Y-82891658D01*
X186961223Y-82881297D01*
X186918352Y-82850223D01*
X186881634Y-82812566D01*
X186851070Y-82768325D01*
X186845696Y-82758687D01*
X186825388Y-82712791D01*
X186811727Y-82663032D01*
X186804712Y-82609408D01*
X186803686Y-82577947D01*
X186806797Y-82523766D01*
X186816128Y-82473602D01*
X186833793Y-82422578D01*
X186843009Y-82403558D01*
X186870510Y-82360043D01*
X186904165Y-82322920D01*
X186943974Y-82292189D01*
X186952674Y-82286810D01*
X186998937Y-82264528D01*
X187049494Y-82250498D01*
X187098665Y-82244927D01*
X187115829Y-82244556D01*
X187166948Y-82247991D01*
X187217113Y-82258295D01*
X187266324Y-82275468D01*
X187276052Y-82279727D01*
X187319567Y-82302950D01*
X187362734Y-82333050D01*
X187400813Y-82365580D01*
X187429192Y-82393544D01*
X187665863Y-82638520D01*
X187665863Y-82233321D01*
X187851000Y-82233321D01*
X187851000Y-82908652D01*
G37*
X192091466Y-84846115D02*
X192091466Y-84084211D01*
X192472419Y-84465163D02*
X191710514Y-84465163D01*
X192041466Y-81846115D02*
X192041466Y-81084211D01*
D14*
G36*
X139953934Y-92329293D02*
G01*
X139953934Y-90636201D01*
X139433208Y-90636201D01*
X139433208Y-90265929D01*
X140896711Y-90265929D01*
X140896711Y-90636201D01*
X140375986Y-90636201D01*
X140375986Y-92329293D01*
X139953934Y-92329293D01*
G37*
G36*
X141224485Y-92329293D02*
G01*
X141224485Y-91959020D01*
X141742280Y-91959020D01*
X141742280Y-90717290D01*
X141218623Y-91093424D01*
X141218623Y-90627408D01*
X141699782Y-90265929D01*
X142164332Y-90265929D01*
X142164332Y-91959020D01*
X142575148Y-91959020D01*
X142575148Y-92329293D01*
X141224485Y-92329293D01*
G37*
D13*
G36*
X193340825Y-134527050D02*
G01*
X193340825Y-133388348D01*
X192992484Y-133388348D01*
X192992484Y-133216814D01*
X193883965Y-133216814D01*
X193883965Y-133388348D01*
X193533763Y-133388348D01*
X193533763Y-134527050D01*
X193340825Y-134527050D01*
G37*
G36*
X194569353Y-133219965D02*
G01*
X194639756Y-133231608D01*
X194702737Y-133251831D01*
X194758296Y-133280633D01*
X194793438Y-133306458D01*
X194839985Y-133355293D01*
X194873234Y-133412465D01*
X194893183Y-133477973D01*
X194899729Y-133542131D01*
X194899832Y-133551817D01*
X194892429Y-133619399D01*
X194870217Y-133680969D01*
X194837174Y-133731726D01*
X194789839Y-133777613D01*
X194733559Y-133809498D01*
X194674636Y-133826334D01*
X194674636Y-133831917D01*
X194737053Y-133846735D01*
X194792939Y-133875445D01*
X194807707Y-133886200D01*
X194853533Y-133930398D01*
X194889504Y-133983740D01*
X194897971Y-134000660D01*
X194918858Y-134059323D01*
X194929097Y-134123413D01*
X194930231Y-134154823D01*
X194925006Y-134226123D01*
X194909332Y-134290743D01*
X194883208Y-134348684D01*
X194846635Y-134399945D01*
X194821045Y-134426238D01*
X194769819Y-134465519D01*
X194711410Y-134495152D01*
X194645817Y-134515137D01*
X194583876Y-134524588D01*
X194528227Y-134527050D01*
X194119088Y-134527050D01*
X194119088Y-134355515D01*
X194306442Y-134355515D01*
X194512097Y-134355515D01*
X194579289Y-134348881D01*
X194640466Y-134326511D01*
X194678048Y-134299371D01*
X194717411Y-134246847D01*
X194735935Y-134186549D01*
X194738845Y-134146138D01*
X194731661Y-134081912D01*
X194707437Y-134022465D01*
X194678048Y-133985150D01*
X194626358Y-133948102D01*
X194562018Y-133928153D01*
X194512097Y-133924353D01*
X194306442Y-133924353D01*
X194306442Y-134355515D01*
X194119088Y-134355515D01*
X194119088Y-133752819D01*
X194306442Y-133752819D01*
X194501240Y-133752819D01*
X194566976Y-133745971D01*
X194625884Y-133723095D01*
X194652302Y-133704120D01*
X194690682Y-133654442D01*
X194707569Y-133590634D01*
X194708446Y-133569808D01*
X194699283Y-133507344D01*
X194668918Y-133453129D01*
X194652922Y-133437047D01*
X194597070Y-133403757D01*
X194531705Y-133389537D01*
X194503101Y-133388348D01*
X194306442Y-133388348D01*
X194306442Y-133752819D01*
X194119088Y-133752819D01*
X194119088Y-133216814D01*
X194503101Y-133216814D01*
X194569353Y-133219965D01*
G37*
G36*
X195552779Y-134546902D02*
G01*
X195485197Y-134543325D01*
X195423198Y-134532594D01*
X195357923Y-134511034D01*
X195300247Y-134479736D01*
X195256859Y-134445160D01*
X195214799Y-134397145D01*
X195183068Y-134342124D01*
X195161669Y-134280097D01*
X195150600Y-134211064D01*
X195148914Y-134168472D01*
X195341851Y-134168472D01*
X195349877Y-134234353D01*
X195376687Y-134293221D01*
X195398926Y-134319533D01*
X195452308Y-134355684D01*
X195513580Y-134372696D01*
X195554640Y-134375367D01*
X195617367Y-134368806D01*
X195678929Y-134344135D01*
X195710045Y-134319844D01*
X195746998Y-134267926D01*
X195764388Y-134208370D01*
X195767119Y-134168472D01*
X195767119Y-134075105D01*
X195760375Y-134012208D01*
X195735015Y-133951107D01*
X195710045Y-133920631D01*
X195656863Y-133884481D01*
X195595685Y-133867469D01*
X195554640Y-133864797D01*
X195402648Y-133864797D01*
X195402648Y-133704430D01*
X195711906Y-133388348D01*
X195190169Y-133388348D01*
X195190169Y-133216814D01*
X195926246Y-133216814D01*
X195926246Y-133386487D01*
X195618849Y-133700708D01*
X195685202Y-133711772D01*
X195745023Y-133730852D01*
X195805394Y-133762471D01*
X195857234Y-133804560D01*
X195868861Y-133816718D01*
X195908759Y-133870167D01*
X195937258Y-133930945D01*
X195954357Y-133999051D01*
X195959967Y-134064655D01*
X195960056Y-134074485D01*
X195960056Y-134169712D01*
X195956196Y-134232522D01*
X195941934Y-134299322D01*
X195917163Y-134359145D01*
X195881884Y-134411993D01*
X195850250Y-134445470D01*
X195798484Y-134484993D01*
X195739267Y-134514808D01*
X195672598Y-134534916D01*
X195609523Y-134544425D01*
X195552779Y-134546902D01*
G37*
G36*
X163090825Y-135027050D02*
G01*
X163090825Y-133888348D01*
X162742484Y-133888348D01*
X162742484Y-133716814D01*
X163633965Y-133716814D01*
X163633965Y-133888348D01*
X163283763Y-133888348D01*
X163283763Y-135027050D01*
X163090825Y-135027050D01*
G37*
G36*
X164319353Y-133719965D02*
G01*
X164389756Y-133731608D01*
X164452737Y-133751831D01*
X164508296Y-133780633D01*
X164543438Y-133806458D01*
X164589985Y-133855293D01*
X164623234Y-133912465D01*
X164643183Y-133977973D01*
X164649729Y-134042131D01*
X164649832Y-134051817D01*
X164642429Y-134119399D01*
X164620217Y-134180969D01*
X164587174Y-134231726D01*
X164539839Y-134277613D01*
X164483559Y-134309498D01*
X164424636Y-134326334D01*
X164424636Y-134331917D01*
X164487053Y-134346735D01*
X164542939Y-134375445D01*
X164557707Y-134386200D01*
X164603533Y-134430398D01*
X164639504Y-134483740D01*
X164647971Y-134500660D01*
X164668858Y-134559323D01*
X164679097Y-134623413D01*
X164680231Y-134654823D01*
X164675006Y-134726123D01*
X164659332Y-134790743D01*
X164633208Y-134848684D01*
X164596635Y-134899945D01*
X164571045Y-134926238D01*
X164519819Y-134965519D01*
X164461410Y-134995152D01*
X164395817Y-135015137D01*
X164333876Y-135024588D01*
X164278227Y-135027050D01*
X163869088Y-135027050D01*
X163869088Y-134855515D01*
X164056442Y-134855515D01*
X164262097Y-134855515D01*
X164329289Y-134848881D01*
X164390466Y-134826511D01*
X164428048Y-134799371D01*
X164467411Y-134746847D01*
X164485935Y-134686549D01*
X164488845Y-134646138D01*
X164481661Y-134581912D01*
X164457437Y-134522465D01*
X164428048Y-134485150D01*
X164376358Y-134448102D01*
X164312018Y-134428153D01*
X164262097Y-134424353D01*
X164056442Y-134424353D01*
X164056442Y-134855515D01*
X163869088Y-134855515D01*
X163869088Y-134252819D01*
X164056442Y-134252819D01*
X164251240Y-134252819D01*
X164316976Y-134245971D01*
X164375884Y-134223095D01*
X164402302Y-134204120D01*
X164440682Y-134154442D01*
X164457569Y-134090634D01*
X164458446Y-134069808D01*
X164449283Y-134007344D01*
X164418918Y-133953129D01*
X164402922Y-133937047D01*
X164347070Y-133903757D01*
X164281705Y-133889537D01*
X164253101Y-133888348D01*
X164056442Y-133888348D01*
X164056442Y-134252819D01*
X163869088Y-134252819D01*
X163869088Y-133716814D01*
X164253101Y-133716814D01*
X164319353Y-133719965D01*
G37*
G36*
X164925900Y-135027050D02*
G01*
X164925900Y-134855515D01*
X165377845Y-134376584D01*
X165420732Y-134326688D01*
X165458601Y-134274320D01*
X165486721Y-134224592D01*
X165510046Y-134163634D01*
X165520542Y-134099771D01*
X165520842Y-134087179D01*
X165514281Y-134023629D01*
X165492158Y-133965003D01*
X165465318Y-133928362D01*
X165413648Y-133889601D01*
X165353867Y-133871360D01*
X165313636Y-133868496D01*
X165250799Y-133875753D01*
X165193118Y-133900224D01*
X165157301Y-133929913D01*
X165121954Y-133981632D01*
X165102921Y-134045129D01*
X165099295Y-134094003D01*
X164906048Y-134094003D01*
X164911871Y-134028807D01*
X164927090Y-133962237D01*
X164951517Y-133901848D01*
X164960641Y-133884936D01*
X164996464Y-133833173D01*
X165040345Y-133789165D01*
X165092284Y-133752912D01*
X165103638Y-133746592D01*
X165164064Y-133720420D01*
X165230185Y-133703941D01*
X165294563Y-133697398D01*
X165317048Y-133696962D01*
X165382966Y-133700740D01*
X165450396Y-133713802D01*
X165511706Y-133736194D01*
X165528906Y-133744731D01*
X165581384Y-133778403D01*
X165630013Y-133824259D01*
X165669112Y-133879352D01*
X165695447Y-133936440D01*
X165712029Y-133999526D01*
X165718613Y-134061431D01*
X165719052Y-134083146D01*
X165713224Y-134150768D01*
X165697812Y-134213387D01*
X165672766Y-134277097D01*
X165669732Y-134283528D01*
X165636864Y-134342582D01*
X165598750Y-134397257D01*
X165558529Y-134446784D01*
X165511897Y-134497884D01*
X165504712Y-134505313D01*
X165165366Y-134855515D01*
X165733321Y-134855515D01*
X165733321Y-135027050D01*
X164925900Y-135027050D01*
G37*
G36*
X118840825Y-135027050D02*
G01*
X118840825Y-133888348D01*
X118492484Y-133888348D01*
X118492484Y-133716814D01*
X119383965Y-133716814D01*
X119383965Y-133888348D01*
X119033763Y-133888348D01*
X119033763Y-135027050D01*
X118840825Y-135027050D01*
G37*
G36*
X120069353Y-133719965D02*
G01*
X120139756Y-133731608D01*
X120202737Y-133751831D01*
X120258296Y-133780633D01*
X120293438Y-133806458D01*
X120339985Y-133855293D01*
X120373234Y-133912465D01*
X120393183Y-133977973D01*
X120399729Y-134042131D01*
X120399832Y-134051817D01*
X120392429Y-134119399D01*
X120370217Y-134180969D01*
X120337174Y-134231726D01*
X120289839Y-134277613D01*
X120233559Y-134309498D01*
X120174636Y-134326334D01*
X120174636Y-134331917D01*
X120237053Y-134346735D01*
X120292939Y-134375445D01*
X120307707Y-134386200D01*
X120353533Y-134430398D01*
X120389504Y-134483740D01*
X120397971Y-134500660D01*
X120418858Y-134559323D01*
X120429097Y-134623413D01*
X120430231Y-134654823D01*
X120425006Y-134726123D01*
X120409332Y-134790743D01*
X120383208Y-134848684D01*
X120346635Y-134899945D01*
X120321045Y-134926238D01*
X120269819Y-134965519D01*
X120211410Y-134995152D01*
X120145817Y-135015137D01*
X120083876Y-135024588D01*
X120028227Y-135027050D01*
X119619088Y-135027050D01*
X119619088Y-134855515D01*
X119806442Y-134855515D01*
X120012097Y-134855515D01*
X120079289Y-134848881D01*
X120140466Y-134826511D01*
X120178048Y-134799371D01*
X120217411Y-134746847D01*
X120235935Y-134686549D01*
X120238845Y-134646138D01*
X120231661Y-134581912D01*
X120207437Y-134522465D01*
X120178048Y-134485150D01*
X120126358Y-134448102D01*
X120062018Y-134428153D01*
X120012097Y-134424353D01*
X119806442Y-134424353D01*
X119806442Y-134855515D01*
X119619088Y-134855515D01*
X119619088Y-134252819D01*
X119806442Y-134252819D01*
X120001240Y-134252819D01*
X120066976Y-134245971D01*
X120125884Y-134223095D01*
X120152302Y-134204120D01*
X120190682Y-134154442D01*
X120207569Y-134090634D01*
X120208446Y-134069808D01*
X120199283Y-134007344D01*
X120168918Y-133953129D01*
X120152922Y-133937047D01*
X120097070Y-133903757D01*
X120031705Y-133889537D01*
X120003101Y-133888348D01*
X119806442Y-133888348D01*
X119806442Y-134252819D01*
X119619088Y-134252819D01*
X119619088Y-133716814D01*
X120003101Y-133716814D01*
X120069353Y-133719965D01*
G37*
G36*
X120688308Y-135027050D02*
G01*
X120688308Y-134855515D01*
X121035098Y-134855515D01*
X121035098Y-133908200D01*
X120686447Y-134164726D01*
X120686447Y-133947284D01*
X120984848Y-133716814D01*
X121228036Y-133716814D01*
X121228036Y-134855515D01*
X121508446Y-134855515D01*
X121508446Y-135027050D01*
X120688308Y-135027050D01*
G37*
G36*
X196577050Y-115055714D02*
G01*
X196341927Y-115055714D01*
X196341927Y-114796706D01*
X195501936Y-114796706D01*
X195501936Y-115055714D01*
X195266814Y-115055714D01*
X195266814Y-114269696D01*
X195501936Y-114269696D01*
X195501936Y-114528704D01*
X196341927Y-114528704D01*
X196341927Y-114269696D01*
X196577050Y-114269696D01*
X196577050Y-115055714D01*
G37*
G36*
X196596902Y-113582629D02*
G01*
X196593819Y-113645772D01*
X196582982Y-113712033D01*
X196564343Y-113773241D01*
X196547582Y-113811238D01*
X196512716Y-113868423D01*
X196470156Y-113917065D01*
X196419902Y-113957166D01*
X196408927Y-113964161D01*
X196350216Y-113992786D01*
X196285749Y-114010810D01*
X196222807Y-114017966D01*
X196200791Y-114018444D01*
X195643072Y-114018444D01*
X195577775Y-114014150D01*
X195511267Y-113999307D01*
X195451119Y-113973862D01*
X195434315Y-113964161D01*
X195382880Y-113925769D01*
X195339078Y-113878835D01*
X195302909Y-113823358D01*
X195296592Y-113811238D01*
X195272601Y-113753400D01*
X195256461Y-113690508D01*
X195248173Y-113622561D01*
X195246962Y-113582629D01*
X195250063Y-113518730D01*
X195260969Y-113452035D01*
X195279725Y-113390835D01*
X195296592Y-113353089D01*
X195331233Y-113296395D01*
X195373509Y-113248062D01*
X195423418Y-113208088D01*
X195434315Y-113201097D01*
X195492718Y-113172308D01*
X195557421Y-113154181D01*
X195621042Y-113146984D01*
X195643382Y-113146504D01*
X195643382Y-113414507D01*
X195581627Y-113422938D01*
X195525955Y-113455844D01*
X195523339Y-113458553D01*
X195491149Y-113515354D01*
X195482125Y-113577643D01*
X195482084Y-113582629D01*
X195489981Y-113645919D01*
X195518344Y-113701094D01*
X195523339Y-113706704D01*
X195577853Y-113740831D01*
X195643693Y-113750441D01*
X196200171Y-113750441D01*
X196264878Y-113740831D01*
X196319593Y-113706704D01*
X196352509Y-113649904D01*
X196361738Y-113587614D01*
X196361779Y-113582629D01*
X196353704Y-113519338D01*
X196324702Y-113464164D01*
X196319593Y-113458553D01*
X196264636Y-113424185D01*
X196199860Y-113414507D01*
X196199860Y-113146504D01*
X196264506Y-113150822D01*
X196330808Y-113165750D01*
X196391295Y-113191341D01*
X196408307Y-113201097D01*
X196460264Y-113239398D01*
X196504465Y-113286060D01*
X196540913Y-113341082D01*
X196547271Y-113353089D01*
X196571263Y-113410625D01*
X196587402Y-113473656D01*
X196595690Y-113542183D01*
X196596902Y-113582629D01*
G37*
G36*
X196577050Y-112924099D02*
G01*
X196341927Y-112924099D01*
X196341927Y-112595299D01*
X195553428Y-112595299D01*
X195792273Y-112927821D01*
X195496353Y-112927821D01*
X195266814Y-112622286D01*
X195266814Y-112327296D01*
X196341927Y-112327296D01*
X196341927Y-112066428D01*
X196577050Y-112066428D01*
X196577050Y-112924099D01*
G37*
G36*
X189226123Y-105640800D02*
G01*
X189290743Y-105656474D01*
X189348684Y-105682598D01*
X189399945Y-105719171D01*
X189426238Y-105744762D01*
X189465519Y-105795987D01*
X189495152Y-105854396D01*
X189515137Y-105919990D01*
X189524588Y-105981931D01*
X189527050Y-106037580D01*
X189527050Y-106446718D01*
X188216814Y-106446718D01*
X188216814Y-106062705D01*
X188388348Y-106062705D01*
X188388348Y-106259364D01*
X188752819Y-106259364D01*
X188752819Y-106064566D01*
X188751688Y-106053709D01*
X188924353Y-106053709D01*
X188924353Y-106259364D01*
X189355515Y-106259364D01*
X189355515Y-106053709D01*
X189348881Y-105986518D01*
X189326511Y-105925340D01*
X189299371Y-105887759D01*
X189246847Y-105848395D01*
X189186549Y-105829871D01*
X189146138Y-105826962D01*
X189081912Y-105834146D01*
X189022465Y-105858370D01*
X188985150Y-105887759D01*
X188948102Y-105939449D01*
X188928153Y-106003789D01*
X188924353Y-106053709D01*
X188751688Y-106053709D01*
X188745971Y-105998830D01*
X188723095Y-105939923D01*
X188704120Y-105913504D01*
X188654442Y-105875125D01*
X188590634Y-105858237D01*
X188569808Y-105857360D01*
X188507344Y-105866524D01*
X188453129Y-105896888D01*
X188437047Y-105912884D01*
X188403757Y-105968736D01*
X188389537Y-106034102D01*
X188388348Y-106062705D01*
X188216814Y-106062705D01*
X188219965Y-105996453D01*
X188231608Y-105926051D01*
X188251831Y-105863070D01*
X188280633Y-105807510D01*
X188306458Y-105772369D01*
X188355293Y-105725821D01*
X188412465Y-105692573D01*
X188477973Y-105672624D01*
X188542131Y-105666078D01*
X188551817Y-105665974D01*
X188619399Y-105673378D01*
X188680969Y-105695590D01*
X188731726Y-105728632D01*
X188777613Y-105775968D01*
X188809498Y-105832247D01*
X188826334Y-105891171D01*
X188831917Y-105891171D01*
X188846735Y-105828754D01*
X188875445Y-105772868D01*
X188886200Y-105758100D01*
X188930398Y-105712273D01*
X188983740Y-105676302D01*
X189000660Y-105667835D01*
X189059323Y-105646948D01*
X189123413Y-105636710D01*
X189154823Y-105635575D01*
X189226123Y-105640800D01*
G37*
G36*
X189527050Y-104759293D02*
G01*
X188983910Y-105002171D01*
X188983910Y-105189835D01*
X189527050Y-105189835D01*
X189527050Y-105380911D01*
X188216814Y-105380911D01*
X188216814Y-104973633D01*
X188388348Y-104973633D01*
X188388348Y-105189835D01*
X188812375Y-105189835D01*
X188812375Y-104973633D01*
X188804349Y-104906822D01*
X188777540Y-104846945D01*
X188755301Y-104820090D01*
X188702477Y-104782936D01*
X188642267Y-104765451D01*
X188602068Y-104762705D01*
X188539444Y-104769596D01*
X188477721Y-104795508D01*
X188446353Y-104821021D01*
X188408797Y-104874191D01*
X188391123Y-104933994D01*
X188388348Y-104973633D01*
X188216814Y-104973633D01*
X188220568Y-104907592D01*
X188231830Y-104846262D01*
X188253149Y-104783643D01*
X188264272Y-104760224D01*
X188297497Y-104706674D01*
X188342720Y-104657076D01*
X188397033Y-104617227D01*
X188453509Y-104590400D01*
X188515923Y-104573510D01*
X188584273Y-104566555D01*
X188598656Y-104566356D01*
X188661546Y-104570485D01*
X188727293Y-104585003D01*
X188787740Y-104609973D01*
X188825093Y-104632426D01*
X188874692Y-104673124D01*
X188915311Y-104720888D01*
X188946949Y-104775719D01*
X188960645Y-104809234D01*
X189527050Y-104548365D01*
X189527050Y-104759293D01*
G37*
G36*
X189527050Y-104311691D02*
G01*
X189355515Y-104311691D01*
X189355515Y-103964901D01*
X188408200Y-103964901D01*
X188664726Y-104313552D01*
X188447284Y-104313552D01*
X188216814Y-104015151D01*
X188216814Y-103771963D01*
X189355515Y-103771963D01*
X189355515Y-103491553D01*
X189527050Y-103491553D01*
X189527050Y-104311691D01*
G37*
D10*
X133500000Y-127500000D02*
X133500000Y-136500000D01*
X148500000Y-127500000D02*
X133500000Y-127500000D01*
X148500000Y-136500000D02*
X148500000Y-127500000D01*
X133500000Y-136500000D02*
X148500000Y-136500000D01*
D15*
G36*
X195700897Y-61990819D02*
G01*
X195722416Y-62403390D01*
X195144824Y-62403390D01*
X194567232Y-62403390D01*
X194567232Y-64197175D01*
X194567232Y-65990960D01*
X194136723Y-65990960D01*
X193706215Y-65990960D01*
X193706215Y-64197175D01*
X193706215Y-62403390D01*
X193128623Y-62403390D01*
X192551031Y-62403390D01*
X192572550Y-61990819D01*
X192594068Y-61578249D01*
X194136723Y-61578249D01*
X195679379Y-61578249D01*
X195700897Y-61990819D01*
G37*
G36*
X186477260Y-61556887D02*
G01*
X186925706Y-61578249D01*
X186944898Y-63354096D01*
X186964089Y-65129944D01*
X187823853Y-65129944D01*
X188683616Y-65129944D01*
X188683616Y-65560452D01*
X188683616Y-65990960D01*
X187404049Y-65990960D01*
X186989321Y-65988399D01*
X186625233Y-65981290D01*
X186335678Y-65970493D01*
X186144551Y-65956870D01*
X186076648Y-65943126D01*
X186064710Y-65862012D01*
X186053860Y-65655337D01*
X186044483Y-65341044D01*
X186036966Y-64937073D01*
X186031693Y-64461366D01*
X186029049Y-63931864D01*
X186028814Y-63715409D01*
X186028814Y-61535525D01*
X186477260Y-61556887D01*
G37*
G36*
X186944898Y-68304944D02*
G01*
X186964089Y-70080791D01*
X187823853Y-70080791D01*
X188683616Y-70080791D01*
X188683616Y-70511299D01*
X188683616Y-70941808D01*
X187389839Y-70941808D01*
X186897210Y-70939173D01*
X186533250Y-70930600D01*
X186283208Y-70915082D01*
X186132336Y-70891615D01*
X186065884Y-70859194D01*
X186061327Y-70851291D01*
X186053139Y-70758880D01*
X186046916Y-70541688D01*
X186042793Y-70218427D01*
X186040901Y-69807806D01*
X186041374Y-69328535D01*
X186044345Y-68799327D01*
X186045641Y-68644935D01*
X186064690Y-66529096D01*
X186495198Y-66529096D01*
X186925706Y-66529096D01*
X186944898Y-68304944D01*
G37*
G36*
X202675142Y-61972881D02*
G01*
X202675142Y-62403390D01*
X202138259Y-62403390D01*
X201601377Y-62403390D01*
X201582186Y-64179237D01*
X201562995Y-65955085D01*
X201165513Y-65976153D01*
X200937516Y-65979255D01*
X200771190Y-65964940D01*
X200717067Y-65946257D01*
X200702911Y-65863160D01*
X200690267Y-65656802D01*
X200679707Y-65347420D01*
X200671807Y-64955253D01*
X200667139Y-64500539D01*
X200666102Y-64149341D01*
X200666102Y-62403390D01*
X200127966Y-62403390D01*
X199589831Y-62403390D01*
X199589831Y-61972881D01*
X199589831Y-61542373D01*
X201132486Y-61542373D01*
X202675142Y-61542373D01*
X202675142Y-61972881D01*
G37*
G36*
X198944068Y-61971263D02*
G01*
X198944068Y-62403390D01*
X198513560Y-62403390D01*
X198083051Y-62403390D01*
X198083051Y-63766667D01*
X198083051Y-65129944D01*
X198513560Y-65129944D01*
X198944068Y-65129944D01*
X198944068Y-65560452D01*
X198944068Y-65990960D01*
X197664501Y-65990960D01*
X197249773Y-65988399D01*
X196885685Y-65981290D01*
X196596130Y-65970493D01*
X196405003Y-65956870D01*
X196337100Y-65943126D01*
X196310227Y-65849710D01*
X196292874Y-65661634D01*
X196289266Y-65512618D01*
X196289266Y-65129944D01*
X196719774Y-65129944D01*
X197150283Y-65129944D01*
X197150283Y-63766667D01*
X197150283Y-62403390D01*
X196716194Y-62403390D01*
X196282104Y-62403390D01*
X196303623Y-61990819D01*
X196325142Y-61578249D01*
X197634605Y-61558692D01*
X198944068Y-61539136D01*
X198944068Y-61971263D01*
G37*
G36*
X191815906Y-68574011D02*
G01*
X191947071Y-69100940D01*
X192066328Y-69588571D01*
X192169194Y-70017885D01*
X192251184Y-70369864D01*
X192307816Y-70625491D01*
X192334603Y-70765745D01*
X192336104Y-70780367D01*
X192328616Y-70869793D01*
X192274616Y-70918215D01*
X192141287Y-70938072D01*
X191910178Y-70941808D01*
X191688291Y-70940163D01*
X191548612Y-70916775D01*
X191464365Y-70843964D01*
X191408772Y-70694046D01*
X191355058Y-70439343D01*
X191337569Y-70349859D01*
X191256493Y-69937288D01*
X190734220Y-69937288D01*
X190211947Y-69937288D01*
X190111482Y-70421610D01*
X190011017Y-70905932D01*
X189562571Y-70927294D01*
X189315709Y-70934126D01*
X189180245Y-70919736D01*
X189124726Y-70876533D01*
X189116645Y-70819667D01*
X189134183Y-70719462D01*
X189182567Y-70498604D01*
X189257433Y-70175554D01*
X189354416Y-69768774D01*
X189469149Y-69296728D01*
X189501439Y-69165960D01*
X190404485Y-69165960D01*
X190469391Y-69198072D01*
X190632247Y-69217318D01*
X190728531Y-69219774D01*
X190931492Y-69209735D01*
X191027276Y-69169669D01*
X191051412Y-69084656D01*
X191051413Y-69084170D01*
X191038123Y-68966448D01*
X191003029Y-68755043D01*
X190953289Y-68485842D01*
X190896064Y-68194735D01*
X190838514Y-67917611D01*
X190787799Y-67690360D01*
X190751080Y-67548871D01*
X190739482Y-67520650D01*
X190719510Y-67577785D01*
X190679857Y-67742987D01*
X190627240Y-67983267D01*
X190568376Y-68265637D01*
X190509981Y-68557110D01*
X190458773Y-68824697D01*
X190421467Y-69035411D01*
X190404780Y-69156263D01*
X190404485Y-69165960D01*
X189501439Y-69165960D01*
X189597268Y-68777876D01*
X189639152Y-68609887D01*
X190159139Y-66529096D01*
X190730841Y-66529096D01*
X191302543Y-66529096D01*
X191815906Y-68574011D01*
G37*
G36*
X193878362Y-66509556D02*
G01*
X194285304Y-66527928D01*
X194580029Y-66550314D01*
X194793817Y-66581823D01*
X194957951Y-66627561D01*
X195103709Y-66692636D01*
X195149173Y-66717047D01*
X195480934Y-66965194D01*
X195697147Y-67271696D01*
X195785322Y-67617884D01*
X195786738Y-67669792D01*
X195743914Y-67951423D01*
X195632127Y-68209839D01*
X195475644Y-68399678D01*
X195361448Y-68464813D01*
X195237461Y-68525350D01*
X195240850Y-68598899D01*
X195375250Y-68700912D01*
X195423628Y-68729203D01*
X195656918Y-68938467D01*
X195806363Y-69230432D01*
X195870029Y-69569970D01*
X195845979Y-69921950D01*
X195732278Y-70251244D01*
X195526992Y-70522722D01*
X195522658Y-70526670D01*
X195326933Y-70670079D01*
X195086214Y-70775853D01*
X194775833Y-70849947D01*
X194371124Y-70898317D01*
X193867656Y-70926198D01*
X192916949Y-70960528D01*
X192916949Y-70152542D01*
X193777966Y-70152542D01*
X194177316Y-70152542D01*
X194427711Y-70139169D01*
X194636562Y-70104893D01*
X194718886Y-70076428D01*
X194880399Y-69917930D01*
X194953424Y-69693890D01*
X194940242Y-69449916D01*
X194843133Y-69231613D01*
X194669407Y-69086843D01*
X194488423Y-69037261D01*
X194241917Y-69007932D01*
X194133347Y-69004520D01*
X193777966Y-69004520D01*
X193777966Y-69578531D01*
X193777966Y-70152542D01*
X192916949Y-70152542D01*
X192916949Y-69578531D01*
X192916949Y-68716699D01*
X192916949Y-68287006D01*
X193777966Y-68287006D01*
X194172599Y-68287006D01*
X194444326Y-68270470D01*
X194621151Y-68212750D01*
X194710735Y-68143503D01*
X194826550Y-67938931D01*
X194854238Y-67752939D01*
X194805912Y-67522352D01*
X194654426Y-67372138D01*
X194390019Y-67295714D01*
X194156634Y-67282486D01*
X193777966Y-67282486D01*
X193777966Y-67784746D01*
X193777966Y-68287006D01*
X192916949Y-68287006D01*
X192916949Y-67784746D01*
X192916949Y-66472870D01*
X193878362Y-66509556D01*
G37*
G36*
X191117584Y-61596792D02*
G01*
X191506490Y-61757221D01*
X191800730Y-62019419D01*
X191893311Y-62157643D01*
X191950250Y-62266490D01*
X191991903Y-62379115D01*
X192020667Y-62519326D01*
X192038942Y-62710927D01*
X192049125Y-62977724D01*
X192053613Y-63343522D01*
X192054752Y-63760363D01*
X192054396Y-64228283D01*
X192050626Y-64576701D01*
X192040825Y-64829616D01*
X192022379Y-65011026D01*
X191992672Y-65144932D01*
X191949086Y-65255330D01*
X191889006Y-65366220D01*
X191877568Y-65385816D01*
X191634472Y-65666579D01*
X191299764Y-65867011D01*
X190905668Y-65979294D01*
X190484405Y-65995613D01*
X190068196Y-65908149D01*
X189939266Y-65856015D01*
X189697918Y-65725809D01*
X189513324Y-65571799D01*
X189378356Y-65374050D01*
X189285886Y-65112627D01*
X189228786Y-64767595D01*
X189199927Y-64319020D01*
X189192175Y-63766667D01*
X190118644Y-63766667D01*
X190122515Y-64256548D01*
X190138285Y-64621200D01*
X190172189Y-64878785D01*
X190230460Y-65047464D01*
X190319334Y-65145401D01*
X190445045Y-65190757D01*
X190611259Y-65201695D01*
X190829446Y-65174894D01*
X191005502Y-65109412D01*
X191019761Y-65099852D01*
X191070620Y-65052715D01*
X191107386Y-64982662D01*
X191132318Y-64868055D01*
X191147678Y-64687252D01*
X191155727Y-64418612D01*
X191158724Y-64040495D01*
X191159040Y-63766667D01*
X191156925Y-63279265D01*
X191145877Y-62916861D01*
X191118834Y-62660965D01*
X191068740Y-62493083D01*
X190988535Y-62394725D01*
X190871160Y-62347397D01*
X190709557Y-62332609D01*
X190611259Y-62331638D01*
X190443093Y-62342915D01*
X190317916Y-62388855D01*
X190229493Y-62487618D01*
X190171588Y-62657367D01*
X190137969Y-62916264D01*
X190122399Y-63282471D01*
X190118644Y-63766667D01*
X189192175Y-63766667D01*
X189200071Y-63203872D01*
X189228542Y-62763319D01*
X189284765Y-62424377D01*
X189375915Y-62166411D01*
X189509167Y-61968788D01*
X189691697Y-61810876D01*
X189918470Y-61678241D01*
X190258270Y-61571394D01*
X190642636Y-61542373D01*
X191117584Y-61596792D01*
G37*
G36*
X205058741Y-61582466D02*
G01*
X205406700Y-61710221D01*
X205693346Y-61936849D01*
X205702074Y-61946107D01*
X205821668Y-62087852D01*
X205910336Y-62236801D01*
X205972577Y-62416677D01*
X206012894Y-62651204D01*
X206035786Y-62964108D01*
X206045755Y-63379111D01*
X206047458Y-63766667D01*
X206042955Y-64197862D01*
X206030432Y-64583856D01*
X206011366Y-64897295D01*
X205987236Y-65110827D01*
X205971142Y-65179086D01*
X205804975Y-65462751D01*
X205552773Y-65720425D01*
X205278435Y-65892170D01*
X205021900Y-65958653D01*
X204695952Y-65985234D01*
X204357984Y-65972794D01*
X204065391Y-65922213D01*
X203930791Y-65871480D01*
X203687989Y-65727616D01*
X203503027Y-65571667D01*
X203368331Y-65382380D01*
X203276326Y-65138505D01*
X203219437Y-64818790D01*
X203190089Y-64401982D01*
X203180707Y-63866830D01*
X203180553Y-63766667D01*
X203180615Y-63754200D01*
X204110170Y-63754200D01*
X204112147Y-64206242D01*
X204119399Y-64536772D01*
X204133907Y-64767741D01*
X204157650Y-64921102D01*
X204192609Y-65018807D01*
X204228917Y-65070480D01*
X204398652Y-65167435D01*
X204631275Y-65200544D01*
X204860383Y-65168220D01*
X205001937Y-65088943D01*
X205044566Y-65024197D01*
X205075274Y-64914391D01*
X205095844Y-64738628D01*
X205108058Y-64476006D01*
X205113699Y-64105628D01*
X205114690Y-63766667D01*
X205112218Y-63278729D01*
X205100661Y-62915839D01*
X205073807Y-62659571D01*
X205025443Y-62491498D01*
X204949359Y-62393194D01*
X204839340Y-62346234D01*
X204689177Y-62332190D01*
X204630892Y-62331638D01*
X204453077Y-62339642D01*
X204321012Y-62375969D01*
X204227936Y-62459091D01*
X204167087Y-62607480D01*
X204131702Y-62839610D01*
X204115021Y-63173951D01*
X204110282Y-63628978D01*
X204110170Y-63754200D01*
X203180615Y-63754200D01*
X203182859Y-63305885D01*
X203191321Y-62962850D01*
X203208253Y-62711858D01*
X203235971Y-62527204D01*
X203276788Y-62383184D01*
X203313015Y-62295763D01*
X203521869Y-61952141D01*
X203789884Y-61719983D01*
X204137658Y-61587408D01*
X204585793Y-61542537D01*
X204619405Y-61542373D01*
X205058741Y-61582466D01*
G37*
G36*
X198307981Y-66539236D02*
G01*
X198641995Y-66646186D01*
X198659218Y-66654661D01*
X198948907Y-66854362D01*
X199167802Y-67109826D01*
X199288173Y-67384271D01*
X199302825Y-67508351D01*
X199295876Y-67623443D01*
X199252005Y-67684448D01*
X199136678Y-67708457D01*
X198915359Y-67712562D01*
X198890255Y-67712541D01*
X198651737Y-67705997D01*
X198510607Y-67674695D01*
X198420887Y-67600128D01*
X198355456Y-67497286D01*
X198257075Y-67359527D01*
X198134005Y-67297384D01*
X197928509Y-67282499D01*
X197918130Y-67282486D01*
X197625594Y-67329188D01*
X197440119Y-67466657D01*
X197366614Y-67690939D01*
X197365537Y-67727796D01*
X197384440Y-67869432D01*
X197458216Y-67973799D01*
X197612464Y-68058881D01*
X197872783Y-68142665D01*
X198006996Y-68178461D01*
X198485365Y-68326932D01*
X198842004Y-68501353D01*
X199098440Y-68719302D01*
X199276202Y-68998355D01*
X199382907Y-69301877D01*
X199429873Y-69728457D01*
X199344651Y-70123912D01*
X199136941Y-70466242D01*
X198816444Y-70733447D01*
X198730969Y-70780367D01*
X198355779Y-70904766D01*
X197920549Y-70948783D01*
X197483909Y-70912148D01*
X197104486Y-70794596D01*
X197090605Y-70787849D01*
X196774597Y-70557854D01*
X196534573Y-70237258D01*
X196406954Y-69883475D01*
X196364605Y-69650282D01*
X196829195Y-69650282D01*
X197090224Y-69657516D01*
X197235074Y-69683353D01*
X197290533Y-69733999D01*
X197293786Y-69757910D01*
X197359276Y-69934443D01*
X197532627Y-70071341D01*
X197779160Y-70145561D01*
X197887707Y-70152542D01*
X198207568Y-70109235D01*
X198415757Y-69981060D01*
X198508683Y-69770640D01*
X198513560Y-69695803D01*
X198487769Y-69483060D01*
X198394833Y-69327827D01*
X198211404Y-69209528D01*
X197914136Y-69107591D01*
X197816491Y-69081530D01*
X197519833Y-68992597D01*
X197242693Y-68888256D01*
X197049883Y-68793732D01*
X196752680Y-68535308D01*
X196562393Y-68212868D01*
X196477097Y-67854312D01*
X196494867Y-67487538D01*
X196613778Y-67140446D01*
X196831905Y-66840935D01*
X197147323Y-66616903D01*
X197201792Y-66592010D01*
X197526383Y-66509505D01*
X197915612Y-66492794D01*
X198307981Y-66539236D01*
G37*
G36*
X203816010Y-71279715D02*
G01*
X204163799Y-71405839D01*
X204477452Y-71582373D01*
X204601474Y-71681713D01*
X204868496Y-72022694D01*
X205025776Y-72424707D01*
X205072491Y-72855694D01*
X205007817Y-73283597D01*
X204830930Y-73676359D01*
X204658332Y-73894604D01*
X204316609Y-74176484D01*
X203943405Y-74334730D01*
X203499280Y-74385825D01*
X203482786Y-74385876D01*
X203018455Y-74330101D01*
X202631331Y-74157028D01*
X202305388Y-73858034D01*
X202176273Y-73682928D01*
X201928535Y-73309605D01*
X194055261Y-73309605D01*
X186181987Y-73309605D01*
X186134945Y-73457822D01*
X186020800Y-73666905D01*
X185822351Y-73899948D01*
X185581798Y-74113163D01*
X185374765Y-74246600D01*
X185054163Y-74349836D01*
X184671007Y-74385331D01*
X184286628Y-74353284D01*
X183962360Y-74253894D01*
X183938770Y-74241943D01*
X183567811Y-73975542D01*
X183305867Y-73641945D01*
X183149735Y-73263400D01*
X183096408Y-72863615D01*
X183961295Y-72863615D01*
X183979795Y-72995918D01*
X184110367Y-73248320D01*
X184333331Y-73428780D01*
X184608292Y-73519765D01*
X184894854Y-73503743D01*
X185028268Y-73450980D01*
X185185897Y-73303476D01*
X185314250Y-73075547D01*
X185370037Y-72868001D01*
X202818644Y-72868001D01*
X202845184Y-73090818D01*
X202949005Y-73255711D01*
X203039404Y-73339102D01*
X203319662Y-73498790D01*
X203603304Y-73519165D01*
X203872853Y-73400676D01*
X203972186Y-73315124D01*
X204140824Y-73065275D01*
X204189552Y-72801638D01*
X204135543Y-72550125D01*
X203995968Y-72336651D01*
X203787998Y-72187130D01*
X203528806Y-72127475D01*
X203235562Y-72183600D01*
X203225205Y-72187849D01*
X202991561Y-72329934D01*
X202862505Y-72533156D01*
X202819020Y-72829331D01*
X202818644Y-72868001D01*
X185370037Y-72868001D01*
X185380193Y-72830218D01*
X185383051Y-72776164D01*
X185336280Y-72608835D01*
X185219763Y-72415584D01*
X185176888Y-72363618D01*
X184996157Y-72201365D01*
X184807791Y-72137896D01*
X184710960Y-72132881D01*
X184414131Y-72193457D01*
X184173407Y-72355311D01*
X184014043Y-72588634D01*
X183961295Y-72863615D01*
X183096408Y-72863615D01*
X183096213Y-72862153D01*
X183142097Y-72460451D01*
X183284184Y-72080542D01*
X183519271Y-71744674D01*
X183844155Y-71475092D01*
X184255634Y-71294045D01*
X184367211Y-71266176D01*
X184793718Y-71244073D01*
X185214816Y-71348527D01*
X185600168Y-71564776D01*
X185919438Y-71878055D01*
X186057091Y-72088593D01*
X186253024Y-72448588D01*
X194096621Y-72448588D01*
X201940218Y-72448588D01*
X202033327Y-72223801D01*
X202251363Y-71867331D01*
X202568805Y-71567798D01*
X202948608Y-71350268D01*
X203353728Y-71239812D01*
X203500283Y-71231090D01*
X203816010Y-71279715D01*
G37*
G36*
X185242856Y-74747959D02*
G01*
X185608408Y-74963909D01*
X185915749Y-75261223D01*
X186132780Y-75620906D01*
X186133900Y-75623588D01*
X186245994Y-75892655D01*
X194087397Y-75892655D01*
X201928799Y-75892655D01*
X202014519Y-75655603D01*
X202211014Y-75309991D01*
X202513762Y-75019092D01*
X202889270Y-74804988D01*
X203304049Y-74689757D01*
X203500283Y-74676033D01*
X203941617Y-74742686D01*
X204343778Y-74928847D01*
X204680732Y-75213820D01*
X204926451Y-75576911D01*
X205037407Y-75898119D01*
X205070366Y-76352310D01*
X204981626Y-76772486D01*
X204789655Y-77143436D01*
X204512924Y-77449945D01*
X204169903Y-77676801D01*
X203779062Y-77808791D01*
X203358871Y-77830702D01*
X202927800Y-77727320D01*
X202854520Y-77696080D01*
X202652993Y-77574217D01*
X202437188Y-77397777D01*
X202239681Y-77199724D01*
X202093046Y-77013021D01*
X202029859Y-76870633D01*
X202029379Y-76861093D01*
X202017026Y-76844186D01*
X201974883Y-76829120D01*
X201895326Y-76815792D01*
X201770728Y-76804099D01*
X201593464Y-76793937D01*
X201355910Y-76785203D01*
X201050439Y-76777794D01*
X200669427Y-76771607D01*
X200205247Y-76766537D01*
X199650275Y-76762482D01*
X198996886Y-76759338D01*
X198237453Y-76757003D01*
X197364352Y-76755372D01*
X196369957Y-76754342D01*
X195246643Y-76753810D01*
X194102690Y-76753672D01*
X186176002Y-76753672D01*
X186068414Y-76961725D01*
X185877194Y-77221118D01*
X185598834Y-77469056D01*
X185286495Y-77663940D01*
X185060073Y-77750731D01*
X184787978Y-77807942D01*
X184570128Y-77815028D01*
X184326104Y-77771454D01*
X184223430Y-77745148D01*
X184014530Y-77656175D01*
X183775683Y-77507640D01*
X183657610Y-77415749D01*
X183346220Y-77067333D01*
X183158262Y-76678449D01*
X183087583Y-76270270D01*
X183090301Y-76242964D01*
X183968233Y-76242964D01*
X184031643Y-76497381D01*
X184185320Y-76704944D01*
X184402816Y-76847191D01*
X184657685Y-76905661D01*
X184923481Y-76861890D01*
X185132357Y-76735622D01*
X185301822Y-76499483D01*
X185360595Y-76272702D01*
X185361670Y-76255357D01*
X202804850Y-76255357D01*
X202850056Y-76508639D01*
X202980314Y-76724901D01*
X203178684Y-76879914D01*
X203428225Y-76949449D01*
X203711994Y-76909277D01*
X203824600Y-76860557D01*
X204046389Y-76692630D01*
X204158755Y-76459833D01*
X204181921Y-76224255D01*
X204118025Y-75930729D01*
X203938204Y-75708304D01*
X203660257Y-75576018D01*
X203557448Y-75556354D01*
X203348713Y-75543419D01*
X203201980Y-75592400D01*
X203043417Y-75728608D01*
X203037362Y-75734650D01*
X202861639Y-75989284D01*
X202804850Y-76255357D01*
X185361670Y-76255357D01*
X185373531Y-76063967D01*
X185324550Y-75917234D01*
X185188341Y-75758671D01*
X185182299Y-75752616D01*
X184921446Y-75576975D01*
X184638877Y-75523963D01*
X184367775Y-75587649D01*
X184141324Y-75762100D01*
X184021535Y-75960156D01*
X183968233Y-76242964D01*
X183090301Y-76242964D01*
X183128027Y-75863972D01*
X183273440Y-75480732D01*
X183517668Y-75141723D01*
X183854556Y-74868121D01*
X184277949Y-74681102D01*
X184465508Y-74636146D01*
X184851189Y-74632372D01*
X185242856Y-74747959D01*
G37*
G36*
X184925459Y-58219308D02*
G01*
X185263744Y-58334858D01*
X185518725Y-58486433D01*
X185760047Y-58688973D01*
X185956630Y-58909562D01*
X186077396Y-59115280D01*
X186100565Y-59221217D01*
X186119242Y-59234429D01*
X186179385Y-59246429D01*
X186287163Y-59257271D01*
X186448745Y-59267011D01*
X186670300Y-59275702D01*
X186957998Y-59283400D01*
X187318007Y-59290157D01*
X187756497Y-59296030D01*
X188279635Y-59301072D01*
X188893593Y-59305337D01*
X189604537Y-59308881D01*
X190418638Y-59311757D01*
X191342065Y-59314020D01*
X192380986Y-59315725D01*
X193541571Y-59316926D01*
X194829988Y-59317677D01*
X196252407Y-59318032D01*
X197078531Y-59318079D01*
X208056497Y-59318079D01*
X208055561Y-62851836D01*
X208054624Y-66385593D01*
X206548781Y-67939823D01*
X206171189Y-68332751D01*
X205828257Y-68695763D01*
X205532293Y-69015342D01*
X205295603Y-69277968D01*
X205130494Y-69470122D01*
X205049273Y-69578286D01*
X205042938Y-69593996D01*
X205006546Y-69707478D01*
X204913162Y-69890991D01*
X204833252Y-70024580D01*
X204546107Y-70358216D01*
X204181541Y-70601644D01*
X203771769Y-70743064D01*
X203349008Y-70770674D01*
X203002172Y-70695347D01*
X202562046Y-70463522D01*
X202227351Y-70135017D01*
X202001308Y-69713325D01*
X201951253Y-69554858D01*
X201912407Y-69185871D01*
X202820926Y-69185871D01*
X202871451Y-69505450D01*
X203026947Y-69729704D01*
X203270301Y-69850940D01*
X203580387Y-69885657D01*
X203835394Y-69801833D01*
X204000787Y-69668345D01*
X204155987Y-69431550D01*
X204192355Y-69179343D01*
X204128934Y-68936094D01*
X203984770Y-68726173D01*
X203778909Y-68573952D01*
X203530395Y-68503801D01*
X203258274Y-68540089D01*
X203154746Y-68585731D01*
X202945975Y-68745902D01*
X202842384Y-68966003D01*
X202820926Y-69185871D01*
X201912407Y-69185871D01*
X201906548Y-69130221D01*
X201988332Y-68714093D01*
X202180415Y-68330342D01*
X202466609Y-68002832D01*
X202830723Y-67755430D01*
X203256569Y-67612002D01*
X203270938Y-67609413D01*
X203648774Y-67608046D01*
X204047284Y-67716277D01*
X204418598Y-67917626D01*
X204598282Y-68066339D01*
X204889947Y-68349390D01*
X206041500Y-67188113D01*
X207193052Y-66026836D01*
X207194266Y-63138842D01*
X207195480Y-60250847D01*
X196665961Y-60253115D01*
X186136441Y-60255383D01*
X185944898Y-60571158D01*
X185646185Y-60936547D01*
X185269167Y-61182967D01*
X184822642Y-61305008D01*
X184738403Y-61313146D01*
X184290871Y-61302421D01*
X183918374Y-61189360D01*
X183583364Y-60960610D01*
X183484200Y-60867072D01*
X183206400Y-60504931D01*
X183054243Y-60119060D01*
X183030120Y-59872883D01*
X183887618Y-59872883D01*
X183933448Y-60007882D01*
X184061010Y-60162121D01*
X184111147Y-60213068D01*
X184363028Y-60405851D01*
X184612793Y-60463256D01*
X184888053Y-60390292D01*
X184942137Y-60363856D01*
X185166237Y-60178219D01*
X185283946Y-59931710D01*
X185295284Y-59659735D01*
X185200275Y-59397697D01*
X184998940Y-59181002D01*
X184941381Y-59143521D01*
X184665039Y-59053119D01*
X184391602Y-59087411D01*
X184151315Y-59230216D01*
X183974424Y-59465353D01*
X183900227Y-59700519D01*
X183887618Y-59872883D01*
X183030120Y-59872883D01*
X183015773Y-59726473D01*
X183079035Y-59344181D01*
X183232072Y-58989196D01*
X183462930Y-58678531D01*
X183759654Y-58429198D01*
X184110287Y-58258208D01*
X184502874Y-58182574D01*
X184925459Y-58219308D01*
G37*
D16*
X207580000Y-116580000D02*
X207580000Y-120420000D01*
X207580000Y-120420000D02*
X209420000Y-120420000D01*
X208500000Y-115630000D02*
X208500000Y-116580000D01*
X208500000Y-121370000D02*
X208500000Y-120420000D01*
X209420000Y-116580000D02*
X207580000Y-116580000D01*
X209420000Y-120420000D02*
X209420000Y-116580000D01*
D10*
X213436000Y-97253700D02*
G75*
G02*
X194936000Y-97253700I-9250000J0D01*
G01*
X194936000Y-97253700D02*
G75*
G02*
X213436000Y-97253700I9250000J0D01*
G01*
X193936000Y-83000000D02*
G75*
G02*
X184936000Y-83000000I-4500000J0D01*
G01*
X184936000Y-83000000D02*
G75*
G02*
X193936000Y-83000000I4500000J0D01*
G01*
D17*
X111847405Y-119519293D02*
G75*
G02*
X111531181Y-119519293I-158112J0D01*
G01*
X111531181Y-119519293D02*
G75*
G02*
X111847405Y-119519293I158112J0D01*
G01*
D18*
X180623293Y-115502293D02*
X170209293Y-115502293D01*
X180623293Y-67496293D02*
X180623293Y-115502293D01*
X170209293Y-67496293D02*
X180623293Y-67496293D01*
X167415293Y-116899293D02*
X167415293Y-123249293D01*
X167415293Y-59749293D02*
X167415293Y-66099293D01*
X167415293Y-59749293D02*
X114583293Y-59749293D01*
X114583293Y-123249293D02*
X167415293Y-123249293D01*
X114583293Y-123249293D02*
X114583293Y-116899293D01*
X114583293Y-66099293D02*
X114583293Y-59749293D01*
X111789293Y-115502293D02*
X101375293Y-115502293D01*
X101375293Y-115502293D02*
X101375293Y-67496293D01*
X101375293Y-67496293D02*
X111789293Y-67496293D01*
D10*
X189100000Y-131500000D02*
G75*
G02*
X189000000Y-131500000I-50000J0D01*
G01*
X189000000Y-131500000D02*
G75*
G02*
X189100000Y-131500000I50000J0D01*
G01*
X189000000Y-131500000D02*
X189000000Y-131500000D01*
X189100000Y-131500000D02*
X189100000Y-131500000D01*
D17*
X189500000Y-136000000D02*
X189500000Y-127000000D01*
X199500000Y-136000000D02*
X189500000Y-136000000D01*
X199500000Y-127000000D02*
X199500000Y-136000000D01*
X189500000Y-127000000D02*
X199500000Y-127000000D01*
D10*
X154500000Y-127500000D02*
X174000000Y-127500000D01*
X174000000Y-127500000D02*
X174000000Y-136500000D01*
X174000000Y-136500000D02*
X154500000Y-136500000D01*
X154500000Y-136500000D02*
X154500000Y-127500000D01*
X112500000Y-127500000D02*
X112500000Y-136500000D01*
X127500000Y-127500000D02*
X112500000Y-127500000D01*
X127500000Y-136500000D02*
X127500000Y-127500000D01*
X112500000Y-136500000D02*
X127500000Y-136500000D01*
D17*
X197616000Y-118750000D02*
X200686000Y-118750000D01*
X197616000Y-108350000D02*
X197616000Y-118750000D01*
X202216000Y-108350000D02*
X197616000Y-108350000D01*
D10*
X198891000Y-118750000D02*
X197616000Y-117475000D01*
D17*
X202216000Y-118750000D02*
X197616000Y-118750000D01*
X202216000Y-108350000D02*
X202216000Y-118750000D01*
D10*
X189186000Y-122000000D02*
G75*
G02*
X189186000Y-122100000I0J-50000D01*
G01*
X189186000Y-122100000D02*
G75*
G02*
X189186000Y-122000000I0J50000D01*
G01*
X189186000Y-122100000D02*
X189186000Y-122100000D01*
X189186000Y-122000000D02*
X189186000Y-122000000D01*
D17*
X190736000Y-121500000D02*
X186136000Y-121500000D01*
X190736000Y-91500000D02*
X190736000Y-121500000D01*
X186136000Y-91500000D02*
X190736000Y-91500000D01*
X186136000Y-121500000D02*
X186136000Y-91500000D01*
%LPC*%
D19*
X146000000Y-131500000D03*
X141000000Y-131500000D03*
D20*
X136000000Y-131500000D03*
D21*
X103500000Y-135989626D03*
X210500000Y-57000000D03*
D22*
X208500000Y-114690000D03*
D23*
X208500000Y-122310000D03*
D21*
X103000000Y-57000000D03*
D24*
X204186000Y-101003700D03*
D25*
X204186000Y-93503700D03*
D24*
X189436000Y-84500000D03*
D26*
X189436000Y-81500000D03*
D27*
X168685293Y-83002993D03*
X168685293Y-67762993D03*
X168685293Y-99995593D03*
X168685293Y-115235593D03*
X113313293Y-83002993D03*
X113313293Y-67762993D03*
X113313293Y-99995593D03*
D28*
X113313293Y-115235593D03*
D21*
X182300000Y-133000000D03*
X210500000Y-136035568D03*
X180000000Y-57000000D03*
D19*
X197000000Y-131500000D03*
X192000000Y-131500000D03*
X157000000Y-131500000D03*
X162000000Y-131500000D03*
X167000000Y-131500000D03*
X172000000Y-131500000D03*
X125000000Y-131500000D03*
X120000000Y-131500000D03*
D20*
X115000000Y-131500000D03*
D29*
X200686000Y-111000000D03*
X200686000Y-113550000D03*
D30*
X200686000Y-116100000D03*
D31*
X189186000Y-94000000D03*
X189186000Y-101500000D03*
X189186000Y-109000000D03*
D32*
X189186000Y-119000000D03*
%LPD*%
M02*
