G04 #@! TF.GenerationSoftware,KiCad,Pcbnew,8.0.3*
G04 #@! TF.CreationDate,2024-06-16T23:51:53-05:00*
G04 #@! TF.ProjectId,Linear Power Supply - Summer 2024,4c696e65-6172-4205-906f-776572205375,rev?*
G04 #@! TF.SameCoordinates,Original*
G04 #@! TF.FileFunction,Legend,Top*
G04 #@! TF.FilePolarity,Positive*
%FSLAX46Y46*%
G04 Gerber Fmt 4.6, Leading zero omitted, Abs format (unit mm)*
G04 Created by KiCad (PCBNEW 8.0.3) date 2024-06-16 23:51:53*
%MOMM*%
%LPD*%
G01*
G04 APERTURE LIST*
G04 Aperture macros list*
%AMRoundRect*
0 Rectangle with rounded corners*
0 $1 Rounding radius*
0 $2 $3 $4 $5 $6 $7 $8 $9 X,Y pos of 4 corners*
0 Add a 4 corners polygon primitive as box body*
4,1,4,$2,$3,$4,$5,$6,$7,$8,$9,$2,$3,0*
0 Add four circle primitives for the rounded corners*
1,1,$1+$1,$2,$3*
1,1,$1+$1,$4,$5*
1,1,$1+$1,$6,$7*
1,1,$1+$1,$8,$9*
0 Add four rect primitives between the rounded corners*
20,1,$1+$1,$2,$3,$4,$5,0*
20,1,$1+$1,$4,$5,$6,$7,0*
20,1,$1+$1,$6,$7,$8,$9,0*
20,1,$1+$1,$8,$9,$2,$3,0*%
G04 Aperture macros list end*
%ADD10C,0.300000*%
%ADD11C,0.100000*%
%ADD12C,0.254000*%
%ADD13C,0.150000*%
%ADD14C,0.050000*%
%ADD15C,0.200000*%
%ADD16C,0.000000*%
%ADD17C,0.120000*%
%ADD18C,0.127000*%
%ADD19R,1.524000X1.524000*%
%ADD20C,1.524000*%
%ADD21C,1.980000*%
%ADD22R,1.980000X1.980000*%
%ADD23C,2.130000*%
%ADD24R,2.130000X2.130000*%
%ADD25C,3.800000*%
%ADD26C,1.400000*%
%ADD27O,1.400000X1.400000*%
%ADD28C,2.340000*%
%ADD29RoundRect,0.102000X1.143000X-1.143000X1.143000X1.143000X-1.143000X1.143000X-1.143000X-1.143000X0*%
%ADD30C,2.490000*%
%ADD31C,2.250000*%
%ADD32C,1.750000*%
%ADD33C,2.000000*%
G04 APERTURE END LIST*
D10*
G36*
X141088660Y-126745000D02*
G01*
X141088660Y-125197477D01*
X141474808Y-125197477D01*
X141630879Y-125860596D01*
X141786950Y-125197477D01*
X142177494Y-125197477D01*
X142177494Y-126745000D01*
X141888433Y-126745000D01*
X141888433Y-126154054D01*
X141889128Y-126067706D01*
X141891215Y-125982595D01*
X141894693Y-125898721D01*
X141899561Y-125816083D01*
X141905821Y-125734681D01*
X141908217Y-125707822D01*
X141915811Y-125629280D01*
X141923484Y-125554396D01*
X141932532Y-125471654D01*
X141941686Y-125393891D01*
X141949616Y-125331200D01*
X141755443Y-126087742D01*
X141502285Y-126087742D01*
X141312142Y-125349884D01*
X141322812Y-125423089D01*
X141333574Y-125505681D01*
X141343066Y-125585650D01*
X141351258Y-125659916D01*
X141355373Y-125699030D01*
X141362968Y-125779658D01*
X141368991Y-125862451D01*
X141373443Y-125947407D01*
X141376324Y-126034528D01*
X141377525Y-126108781D01*
X141377721Y-126154054D01*
X141377721Y-126745000D01*
X141088660Y-126745000D01*
G37*
G36*
X142427721Y-126745000D02*
G01*
X142427721Y-125197477D01*
X143377337Y-125197477D01*
X143377337Y-125475181D01*
X142738032Y-125475181D01*
X142738032Y-125807107D01*
X143303332Y-125807107D01*
X143303332Y-126084811D01*
X142738032Y-126084811D01*
X142738032Y-126467295D01*
X143377337Y-126467295D01*
X143377337Y-126745000D01*
X142427721Y-126745000D01*
G37*
G36*
X143992463Y-126745000D02*
G01*
X143992463Y-125475181D01*
X143601919Y-125475181D01*
X143601919Y-125197477D01*
X144699546Y-125197477D01*
X144699546Y-125475181D01*
X144309002Y-125475181D01*
X144309002Y-126745000D01*
X143992463Y-126745000D01*
G37*
G36*
X144945376Y-126745000D02*
G01*
X144945376Y-125197477D01*
X145894993Y-125197477D01*
X145894993Y-125475181D01*
X145255687Y-125475181D01*
X145255687Y-125807107D01*
X145820987Y-125807107D01*
X145820987Y-126084811D01*
X145255687Y-126084811D01*
X145255687Y-126467295D01*
X145894993Y-126467295D01*
X145894993Y-126745000D01*
X144945376Y-126745000D01*
G37*
G36*
X146747866Y-125201049D02*
G01*
X146821803Y-125211765D01*
X146898358Y-125232360D01*
X146953053Y-125254630D01*
X147023091Y-125294880D01*
X147082539Y-125344646D01*
X147131398Y-125403930D01*
X147139898Y-125416929D01*
X147175061Y-125486402D01*
X147197200Y-125563389D01*
X147205991Y-125639101D01*
X147206577Y-125665690D01*
X147200810Y-125747308D01*
X147183509Y-125823998D01*
X147154673Y-125895762D01*
X147133670Y-125933503D01*
X147088603Y-125994702D01*
X147035422Y-126045584D01*
X146974126Y-126086150D01*
X146936566Y-126104228D01*
X147227459Y-126745000D01*
X146883810Y-126745000D01*
X146634682Y-126155153D01*
X146487037Y-126155153D01*
X146487037Y-126745000D01*
X146174528Y-126745000D01*
X146174528Y-125877449D01*
X146487037Y-125877449D01*
X146668387Y-125877449D01*
X146746256Y-125868923D01*
X146816570Y-125837899D01*
X146831786Y-125825792D01*
X146875475Y-125763418D01*
X146889981Y-125686143D01*
X146890038Y-125680345D01*
X146878888Y-125603418D01*
X146842196Y-125539518D01*
X146831786Y-125529036D01*
X146767053Y-125490380D01*
X146694022Y-125476022D01*
X146668387Y-125475181D01*
X146487037Y-125475181D01*
X146487037Y-125877449D01*
X146174528Y-125877449D01*
X146174528Y-125197477D01*
X146668387Y-125197477D01*
X146747866Y-125201049D01*
G37*
D11*
G36*
X135683286Y-131845631D02*
G01*
X135633568Y-131843204D01*
X135581393Y-131834671D01*
X135533198Y-131819994D01*
X135503279Y-131806796D01*
X135458252Y-131779343D01*
X135419951Y-131745831D01*
X135388375Y-131706261D01*
X135382868Y-131697620D01*
X135360328Y-131651390D01*
X135346136Y-131600629D01*
X135340501Y-131551069D01*
X135340125Y-131533733D01*
X135340125Y-131094584D01*
X135343506Y-131043169D01*
X135355194Y-130990800D01*
X135375229Y-130943440D01*
X135382868Y-130930209D01*
X135413097Y-130889708D01*
X135450053Y-130855219D01*
X135493736Y-130826740D01*
X135503279Y-130821765D01*
X135548821Y-130802874D01*
X135598342Y-130790166D01*
X135651844Y-130783640D01*
X135683286Y-130782686D01*
X135733600Y-130785129D01*
X135786116Y-130793715D01*
X135834305Y-130808484D01*
X135864026Y-130821765D01*
X135908667Y-130849042D01*
X135946725Y-130882330D01*
X135978200Y-130921628D01*
X135983705Y-130930209D01*
X136006374Y-130976195D01*
X136020647Y-131027143D01*
X136026314Y-131077237D01*
X136026692Y-131094829D01*
X135815666Y-131094829D01*
X135809027Y-131046202D01*
X135783117Y-131002366D01*
X135780983Y-131000307D01*
X135736259Y-130974960D01*
X135687212Y-130967854D01*
X135683286Y-130967822D01*
X135633451Y-130974040D01*
X135590007Y-130996373D01*
X135585589Y-131000307D01*
X135558718Y-131043231D01*
X135551151Y-131095073D01*
X135551151Y-131533244D01*
X135558718Y-131584196D01*
X135585589Y-131627278D01*
X135630314Y-131653196D01*
X135679361Y-131660463D01*
X135683286Y-131660495D01*
X135733121Y-131654137D01*
X135776566Y-131631300D01*
X135780983Y-131627278D01*
X135808045Y-131584005D01*
X135815666Y-131533000D01*
X136026692Y-131533000D01*
X136023291Y-131583902D01*
X136011537Y-131636109D01*
X135991387Y-131683736D01*
X135983705Y-131697131D01*
X135953547Y-131738042D01*
X135916805Y-131772847D01*
X135873481Y-131801545D01*
X135864026Y-131806552D01*
X135818723Y-131825443D01*
X135769092Y-131838151D01*
X135715133Y-131844677D01*
X135683286Y-131845631D01*
G37*
G36*
X136567106Y-130785752D02*
G01*
X136618477Y-130794948D01*
X136665383Y-130810275D01*
X136714463Y-130835906D01*
X136757466Y-130869881D01*
X136793060Y-130911114D01*
X136819910Y-130958518D01*
X136838019Y-131012093D01*
X136846583Y-131062926D01*
X136848813Y-131108750D01*
X136848813Y-131519567D01*
X136845602Y-131573706D01*
X136835968Y-131623465D01*
X136816610Y-131675984D01*
X136788510Y-131722541D01*
X136757466Y-131757704D01*
X136714463Y-131791964D01*
X136665383Y-131817810D01*
X136618477Y-131833266D01*
X136567106Y-131842540D01*
X136511270Y-131845631D01*
X136455433Y-131842540D01*
X136404062Y-131833266D01*
X136357156Y-131817810D01*
X136308076Y-131791964D01*
X136265073Y-131757704D01*
X136229480Y-131716255D01*
X136202629Y-131668846D01*
X136184520Y-131615476D01*
X136175956Y-131564987D01*
X136173726Y-131519567D01*
X136173726Y-131108750D01*
X136174530Y-131095073D01*
X136384752Y-131095073D01*
X136384752Y-131533244D01*
X136390806Y-131582827D01*
X136416381Y-131628682D01*
X136461972Y-131654406D01*
X136511270Y-131660495D01*
X136560567Y-131654406D01*
X136606158Y-131628682D01*
X136631733Y-131582827D01*
X136637787Y-131533244D01*
X136637787Y-131095073D01*
X136631733Y-131045490D01*
X136606158Y-130999635D01*
X136560567Y-130973911D01*
X136511270Y-130967822D01*
X136461972Y-130973911D01*
X136416381Y-130999635D01*
X136390806Y-131045490D01*
X136384752Y-131095073D01*
X136174530Y-131095073D01*
X136176937Y-131054139D01*
X136186572Y-131004062D01*
X136205929Y-130951368D01*
X136234029Y-130904846D01*
X136265073Y-130869881D01*
X136308076Y-130835906D01*
X136357156Y-130810275D01*
X136404062Y-130794948D01*
X136455433Y-130785752D01*
X136511270Y-130782686D01*
X136567106Y-130785752D01*
G37*
G36*
X136987543Y-131830000D02*
G01*
X136987543Y-130798318D01*
X137244975Y-130798318D01*
X137349023Y-131240397D01*
X137453070Y-130798318D01*
X137713433Y-130798318D01*
X137713433Y-131830000D01*
X137520725Y-131830000D01*
X137520725Y-131436036D01*
X137521189Y-131378471D01*
X137522580Y-131321730D01*
X137524898Y-131265814D01*
X137528144Y-131210722D01*
X137532317Y-131156454D01*
X137533914Y-131138548D01*
X137538978Y-131086187D01*
X137544092Y-131036264D01*
X137550125Y-130981102D01*
X137556227Y-130929261D01*
X137561514Y-130887466D01*
X137432065Y-131391828D01*
X137263293Y-131391828D01*
X137136531Y-130899923D01*
X137143645Y-130948726D01*
X137150819Y-131003787D01*
X137157147Y-131057100D01*
X137162608Y-131106611D01*
X137165352Y-131132686D01*
X137170415Y-131186439D01*
X137174431Y-131241634D01*
X137177399Y-131298271D01*
X137179320Y-131356352D01*
X137180120Y-131405854D01*
X137180251Y-131436036D01*
X137180251Y-131830000D01*
X136987543Y-131830000D01*
G37*
D10*
X134000000Y-124500000D02*
X154500000Y-124500000D01*
X154500000Y-132500000D01*
X134000000Y-132500000D01*
X134000000Y-124500000D01*
D11*
G36*
X144911688Y-131830000D02*
G01*
X144911688Y-130798318D01*
X145122714Y-130798318D01*
X145122714Y-131644863D01*
X145537927Y-131644863D01*
X145537927Y-131830000D01*
X144911688Y-131830000D01*
G37*
G36*
X146067106Y-130785752D02*
G01*
X146118477Y-130794948D01*
X146165383Y-130810275D01*
X146214463Y-130835906D01*
X146257466Y-130869881D01*
X146293060Y-130911114D01*
X146319910Y-130958518D01*
X146338019Y-131012093D01*
X146346583Y-131062926D01*
X146348813Y-131108750D01*
X146348813Y-131519567D01*
X146345602Y-131573706D01*
X146335968Y-131623465D01*
X146316610Y-131675984D01*
X146288510Y-131722541D01*
X146257466Y-131757704D01*
X146214463Y-131791964D01*
X146165383Y-131817810D01*
X146118477Y-131833266D01*
X146067106Y-131842540D01*
X146011270Y-131845631D01*
X145955433Y-131842540D01*
X145904062Y-131833266D01*
X145857156Y-131817810D01*
X145808076Y-131791964D01*
X145765073Y-131757704D01*
X145729480Y-131716255D01*
X145702629Y-131668846D01*
X145684520Y-131615476D01*
X145675956Y-131564987D01*
X145673726Y-131519567D01*
X145673726Y-131108750D01*
X145674530Y-131095073D01*
X145884752Y-131095073D01*
X145884752Y-131533244D01*
X145890806Y-131582827D01*
X145916381Y-131628682D01*
X145961972Y-131654406D01*
X146011270Y-131660495D01*
X146060567Y-131654406D01*
X146106158Y-131628682D01*
X146131733Y-131582827D01*
X146137787Y-131533244D01*
X146137787Y-131095073D01*
X146131733Y-131045490D01*
X146106158Y-130999635D01*
X146060567Y-130973911D01*
X146011270Y-130967822D01*
X145961972Y-130973911D01*
X145916381Y-130999635D01*
X145890806Y-131045490D01*
X145884752Y-131095073D01*
X145674530Y-131095073D01*
X145676937Y-131054139D01*
X145686572Y-131004062D01*
X145705929Y-130951368D01*
X145734029Y-130904846D01*
X145765073Y-130869881D01*
X145808076Y-130835906D01*
X145857156Y-130810275D01*
X145904062Y-130794948D01*
X145955433Y-130785752D01*
X146011270Y-130782686D01*
X146067106Y-130785752D01*
G37*
G36*
X147237369Y-131830000D02*
G01*
X147022191Y-131830000D01*
X146972854Y-131595526D01*
X146728122Y-131595526D01*
X146678785Y-131830000D01*
X146463607Y-131830000D01*
X146562807Y-131423579D01*
X146763293Y-131423579D01*
X146936217Y-131423579D01*
X146887124Y-131176894D01*
X146877629Y-131127138D01*
X146867919Y-131077704D01*
X146866608Y-131071137D01*
X146856828Y-131021822D01*
X146850488Y-130989071D01*
X146841537Y-131037432D01*
X146835589Y-131070404D01*
X146826634Y-131119270D01*
X146816713Y-131168779D01*
X146815317Y-131175429D01*
X146763293Y-131423579D01*
X146562807Y-131423579D01*
X146715422Y-130798318D01*
X146982623Y-130798318D01*
X147237369Y-131830000D01*
G37*
G36*
X147741471Y-130800882D02*
G01*
X147789785Y-130808576D01*
X147840015Y-130823362D01*
X147876064Y-130839351D01*
X147918050Y-130865059D01*
X147958131Y-130899787D01*
X147991295Y-130941003D01*
X147999895Y-130954633D01*
X148023336Y-131003463D01*
X148037011Y-131051814D01*
X148043652Y-131104339D01*
X148044347Y-131129023D01*
X148044347Y-131497829D01*
X148040831Y-131551577D01*
X148030282Y-131601539D01*
X148012701Y-131647714D01*
X147999895Y-131671730D01*
X147968806Y-131715350D01*
X147930801Y-131752483D01*
X147890682Y-131780355D01*
X147876064Y-131788478D01*
X147829230Y-131808550D01*
X147778030Y-131822052D01*
X147728853Y-131828540D01*
X147689706Y-131830000D01*
X147356315Y-131830000D01*
X147356315Y-131644863D01*
X147567341Y-131644863D01*
X147689706Y-131644863D01*
X147740617Y-131637150D01*
X147785307Y-131611765D01*
X147793021Y-131604563D01*
X147821947Y-131561737D01*
X147832967Y-131512664D01*
X147833321Y-131501004D01*
X147833321Y-131125847D01*
X147825608Y-131075031D01*
X147800223Y-131030648D01*
X147793021Y-131023021D01*
X147750370Y-130994621D01*
X147701364Y-130983802D01*
X147689706Y-130983454D01*
X147567341Y-130983454D01*
X147567341Y-131644863D01*
X147356315Y-131644863D01*
X147356315Y-130798318D01*
X147689706Y-130798318D01*
X147741471Y-130800882D01*
G37*
G36*
X139316538Y-131704947D02*
G01*
X139316538Y-131470474D01*
X139077424Y-131470474D01*
X139077424Y-131267264D01*
X139316538Y-131267264D01*
X139316538Y-131017159D01*
X139527564Y-131017159D01*
X139527564Y-131267264D01*
X139766678Y-131267264D01*
X139766678Y-131470474D01*
X139527564Y-131470474D01*
X139527564Y-131704947D01*
X139316538Y-131704947D01*
G37*
G36*
X139930565Y-131830000D02*
G01*
X139930565Y-131648283D01*
X140320376Y-131250900D01*
X140351546Y-131210633D01*
X140371171Y-131165548D01*
X140379252Y-131115645D01*
X140379483Y-131105087D01*
X140371916Y-131053953D01*
X140347164Y-131009348D01*
X140345045Y-131006901D01*
X140305111Y-130977592D01*
X140254187Y-130967822D01*
X140204924Y-130976677D01*
X140162907Y-131005643D01*
X140160642Y-131008122D01*
X140134871Y-131051002D01*
X140125053Y-131100223D01*
X140124738Y-131111926D01*
X139913712Y-131111926D01*
X139917209Y-131058647D01*
X139927700Y-131009272D01*
X139947559Y-130958988D01*
X139957920Y-130940223D01*
X139988994Y-130897352D01*
X140026651Y-130860634D01*
X140070892Y-130830070D01*
X140080530Y-130824696D01*
X140126426Y-130804388D01*
X140176185Y-130790727D01*
X140229809Y-130783712D01*
X140261270Y-130782686D01*
X140315451Y-130785797D01*
X140365615Y-130795128D01*
X140416639Y-130812793D01*
X140435659Y-130822009D01*
X140479174Y-130849510D01*
X140516297Y-130883165D01*
X140547028Y-130922974D01*
X140552407Y-130931674D01*
X140574689Y-130977937D01*
X140588719Y-131028494D01*
X140594290Y-131077665D01*
X140594661Y-131094829D01*
X140591226Y-131145948D01*
X140580922Y-131196113D01*
X140563749Y-131245324D01*
X140559490Y-131255052D01*
X140536267Y-131298567D01*
X140506167Y-131341734D01*
X140473637Y-131379813D01*
X140445673Y-131408192D01*
X140200697Y-131644863D01*
X140605896Y-131644863D01*
X140605896Y-131830000D01*
X139930565Y-131830000D01*
G37*
G36*
X141198918Y-131830000D02*
G01*
X141198918Y-131639979D01*
X140751709Y-131639979D01*
X140751709Y-131344200D01*
X141134193Y-130798318D01*
X141366468Y-130798318D01*
X140948569Y-131403063D01*
X140948569Y-131454842D01*
X141198918Y-131454842D01*
X141198918Y-131236001D01*
X141409944Y-131236001D01*
X141409944Y-131830000D01*
X141198918Y-131830000D01*
G37*
G36*
X141807571Y-131830000D02*
G01*
X141552826Y-130798318D01*
X141770935Y-130798318D01*
X141913084Y-131451179D01*
X141923064Y-131500867D01*
X141930425Y-131537641D01*
X141939890Y-131586062D01*
X141946789Y-131626789D01*
X141954407Y-131577569D01*
X141960711Y-131537641D01*
X141968893Y-131489403D01*
X141976343Y-131449713D01*
X142114096Y-130798318D01*
X142326587Y-130798318D01*
X142074773Y-131830000D01*
X141807571Y-131830000D01*
G37*
G36*
X142830689Y-130800882D02*
G01*
X142879003Y-130808576D01*
X142929233Y-130823362D01*
X142965282Y-130839351D01*
X143007269Y-130865059D01*
X143047349Y-130899787D01*
X143080513Y-130941003D01*
X143089113Y-130954633D01*
X143112555Y-131003463D01*
X143126229Y-131051814D01*
X143132871Y-131104339D01*
X143133565Y-131129023D01*
X143133565Y-131497829D01*
X143130049Y-131551577D01*
X143119500Y-131601539D01*
X143101919Y-131647714D01*
X143089113Y-131671730D01*
X143058025Y-131715350D01*
X143020019Y-131752483D01*
X142979900Y-131780355D01*
X142965282Y-131788478D01*
X142918448Y-131808550D01*
X142867248Y-131822052D01*
X142818071Y-131828540D01*
X142778925Y-131830000D01*
X142445533Y-131830000D01*
X142445533Y-131644863D01*
X142656559Y-131644863D01*
X142778925Y-131644863D01*
X142829835Y-131637150D01*
X142874525Y-131611765D01*
X142882240Y-131604563D01*
X142911166Y-131561737D01*
X142922185Y-131512664D01*
X142922540Y-131501004D01*
X142922540Y-131125847D01*
X142914826Y-131075031D01*
X142889442Y-131030648D01*
X142882240Y-131023021D01*
X142839589Y-130994621D01*
X142790582Y-130983802D01*
X142778925Y-130983454D01*
X142656559Y-130983454D01*
X142656559Y-131644863D01*
X142445533Y-131644863D01*
X142445533Y-130798318D01*
X142778925Y-130798318D01*
X142830689Y-130800882D01*
G37*
G36*
X143629378Y-131845631D02*
G01*
X143579660Y-131843204D01*
X143527485Y-131834671D01*
X143479290Y-131819994D01*
X143449371Y-131806796D01*
X143404344Y-131779343D01*
X143366043Y-131745831D01*
X143334468Y-131706261D01*
X143328960Y-131697620D01*
X143306420Y-131651390D01*
X143292228Y-131600629D01*
X143286593Y-131551069D01*
X143286217Y-131533733D01*
X143286217Y-131094584D01*
X143289598Y-131043169D01*
X143301286Y-130990800D01*
X143321321Y-130943440D01*
X143328960Y-130930209D01*
X143359190Y-130889708D01*
X143396146Y-130855219D01*
X143439828Y-130826740D01*
X143449371Y-130821765D01*
X143494913Y-130802874D01*
X143544434Y-130790166D01*
X143597936Y-130783640D01*
X143629378Y-130782686D01*
X143679692Y-130785129D01*
X143732208Y-130793715D01*
X143780397Y-130808484D01*
X143810118Y-130821765D01*
X143854759Y-130849042D01*
X143892817Y-130882330D01*
X143924292Y-130921628D01*
X143929797Y-130930209D01*
X143952466Y-130976195D01*
X143966739Y-131027143D01*
X143972406Y-131077237D01*
X143972784Y-131094829D01*
X143761758Y-131094829D01*
X143755120Y-131046202D01*
X143729209Y-131002366D01*
X143727076Y-131000307D01*
X143682351Y-130974960D01*
X143633304Y-130967854D01*
X143629378Y-130967822D01*
X143579543Y-130974040D01*
X143536099Y-130996373D01*
X143531681Y-131000307D01*
X143504810Y-131043231D01*
X143497243Y-131095073D01*
X143497243Y-131533244D01*
X143504810Y-131584196D01*
X143531681Y-131627278D01*
X143576406Y-131653196D01*
X143625453Y-131660463D01*
X143629378Y-131660495D01*
X143679214Y-131654137D01*
X143722658Y-131631300D01*
X143727076Y-131627278D01*
X143754137Y-131584005D01*
X143761758Y-131533000D01*
X143972784Y-131533000D01*
X143969384Y-131583902D01*
X143957629Y-131636109D01*
X143937479Y-131683736D01*
X143929797Y-131697131D01*
X143899639Y-131738042D01*
X143862897Y-131772847D01*
X143819573Y-131801545D01*
X143810118Y-131806552D01*
X143764815Y-131825443D01*
X143715184Y-131838151D01*
X143661225Y-131844677D01*
X143629378Y-131845631D01*
G37*
G36*
X150933286Y-131845631D02*
G01*
X150883568Y-131843204D01*
X150831393Y-131834671D01*
X150783198Y-131819994D01*
X150753279Y-131806796D01*
X150708252Y-131779343D01*
X150669951Y-131745831D01*
X150638375Y-131706261D01*
X150632868Y-131697620D01*
X150610328Y-131651390D01*
X150596136Y-131600629D01*
X150590501Y-131551069D01*
X150590125Y-131533733D01*
X150590125Y-131094584D01*
X150593506Y-131043169D01*
X150605194Y-130990800D01*
X150625229Y-130943440D01*
X150632868Y-130930209D01*
X150663097Y-130889708D01*
X150700053Y-130855219D01*
X150743736Y-130826740D01*
X150753279Y-130821765D01*
X150798821Y-130802874D01*
X150848342Y-130790166D01*
X150901844Y-130783640D01*
X150933286Y-130782686D01*
X150983600Y-130785129D01*
X151036116Y-130793715D01*
X151084305Y-130808484D01*
X151114026Y-130821765D01*
X151158667Y-130849042D01*
X151196725Y-130882330D01*
X151228200Y-130921628D01*
X151233705Y-130930209D01*
X151256374Y-130976195D01*
X151270647Y-131027143D01*
X151276314Y-131077237D01*
X151276692Y-131094829D01*
X151065666Y-131094829D01*
X151059027Y-131046202D01*
X151033117Y-131002366D01*
X151030983Y-131000307D01*
X150986259Y-130974960D01*
X150937212Y-130967854D01*
X150933286Y-130967822D01*
X150883451Y-130974040D01*
X150840007Y-130996373D01*
X150835589Y-131000307D01*
X150808718Y-131043231D01*
X150801151Y-131095073D01*
X150801151Y-131533244D01*
X150808718Y-131584196D01*
X150835589Y-131627278D01*
X150880314Y-131653196D01*
X150929361Y-131660463D01*
X150933286Y-131660495D01*
X150983121Y-131654137D01*
X151026566Y-131631300D01*
X151030983Y-131627278D01*
X151058045Y-131584005D01*
X151065666Y-131533000D01*
X151276692Y-131533000D01*
X151273291Y-131583902D01*
X151261537Y-131636109D01*
X151241387Y-131683736D01*
X151233705Y-131697131D01*
X151203547Y-131738042D01*
X151166805Y-131772847D01*
X151123481Y-131801545D01*
X151114026Y-131806552D01*
X151068723Y-131825443D01*
X151019092Y-131838151D01*
X150965133Y-131844677D01*
X150933286Y-131845631D01*
G37*
G36*
X151817106Y-130785752D02*
G01*
X151868477Y-130794948D01*
X151915383Y-130810275D01*
X151964463Y-130835906D01*
X152007466Y-130869881D01*
X152043060Y-130911114D01*
X152069910Y-130958518D01*
X152088019Y-131012093D01*
X152096583Y-131062926D01*
X152098813Y-131108750D01*
X152098813Y-131519567D01*
X152095602Y-131573706D01*
X152085968Y-131623465D01*
X152066610Y-131675984D01*
X152038510Y-131722541D01*
X152007466Y-131757704D01*
X151964463Y-131791964D01*
X151915383Y-131817810D01*
X151868477Y-131833266D01*
X151817106Y-131842540D01*
X151761270Y-131845631D01*
X151705433Y-131842540D01*
X151654062Y-131833266D01*
X151607156Y-131817810D01*
X151558076Y-131791964D01*
X151515073Y-131757704D01*
X151479480Y-131716255D01*
X151452629Y-131668846D01*
X151434520Y-131615476D01*
X151425956Y-131564987D01*
X151423726Y-131519567D01*
X151423726Y-131108750D01*
X151424530Y-131095073D01*
X151634752Y-131095073D01*
X151634752Y-131533244D01*
X151640806Y-131582827D01*
X151666381Y-131628682D01*
X151711972Y-131654406D01*
X151761270Y-131660495D01*
X151810567Y-131654406D01*
X151856158Y-131628682D01*
X151881733Y-131582827D01*
X151887787Y-131533244D01*
X151887787Y-131095073D01*
X151881733Y-131045490D01*
X151856158Y-130999635D01*
X151810567Y-130973911D01*
X151761270Y-130967822D01*
X151711972Y-130973911D01*
X151666381Y-130999635D01*
X151640806Y-131045490D01*
X151634752Y-131095073D01*
X151424530Y-131095073D01*
X151426937Y-131054139D01*
X151436572Y-131004062D01*
X151455929Y-130951368D01*
X151484029Y-130904846D01*
X151515073Y-130869881D01*
X151558076Y-130835906D01*
X151607156Y-130810275D01*
X151654062Y-130794948D01*
X151705433Y-130785752D01*
X151761270Y-130782686D01*
X151817106Y-130785752D01*
G37*
G36*
X152237543Y-131830000D02*
G01*
X152237543Y-130798318D01*
X152494975Y-130798318D01*
X152599023Y-131240397D01*
X152703070Y-130798318D01*
X152963433Y-130798318D01*
X152963433Y-131830000D01*
X152770725Y-131830000D01*
X152770725Y-131436036D01*
X152771189Y-131378471D01*
X152772580Y-131321730D01*
X152774898Y-131265814D01*
X152778144Y-131210722D01*
X152782317Y-131156454D01*
X152783914Y-131138548D01*
X152788978Y-131086187D01*
X152794092Y-131036264D01*
X152800125Y-130981102D01*
X152806227Y-130929261D01*
X152811514Y-130887466D01*
X152682065Y-131391828D01*
X152513293Y-131391828D01*
X152386531Y-130899923D01*
X152393645Y-130948726D01*
X152400819Y-131003787D01*
X152407147Y-131057100D01*
X152412608Y-131106611D01*
X152415352Y-131132686D01*
X152420415Y-131186439D01*
X152424431Y-131241634D01*
X152427399Y-131298271D01*
X152429320Y-131356352D01*
X152430120Y-131405854D01*
X152430251Y-131436036D01*
X152430251Y-131830000D01*
X152237543Y-131830000D01*
G37*
D10*
G36*
X200579832Y-81660000D02*
G01*
X200070341Y-79596636D01*
X200506559Y-79596636D01*
X200790858Y-80902358D01*
X200810817Y-81001734D01*
X200825540Y-81075282D01*
X200844469Y-81172124D01*
X200858269Y-81253579D01*
X200873505Y-81155139D01*
X200886113Y-81075282D01*
X200902477Y-80978806D01*
X200917376Y-80899427D01*
X201192882Y-79596636D01*
X201617864Y-79596636D01*
X201114235Y-81660000D01*
X200579832Y-81660000D01*
G37*
G36*
X201903628Y-81660000D02*
G01*
X201903628Y-81289727D01*
X202421423Y-81289727D01*
X202421423Y-80047997D01*
X201897766Y-80424131D01*
X201897766Y-79958115D01*
X202378925Y-79596636D01*
X202843475Y-79596636D01*
X202843475Y-81289727D01*
X203254291Y-81289727D01*
X203254291Y-81660000D01*
X201903628Y-81660000D01*
G37*
G36*
X204200976Y-81691263D02*
G01*
X204099343Y-81676396D01*
X204010578Y-81627474D01*
X203995324Y-81613593D01*
X203938874Y-81529909D01*
X203917369Y-81433017D01*
X203916678Y-81409895D01*
X203931731Y-81309210D01*
X203981269Y-81221669D01*
X203995324Y-81206685D01*
X204079924Y-81150585D01*
X204177671Y-81129214D01*
X204200976Y-81128527D01*
X204302517Y-81143487D01*
X204390974Y-81192717D01*
X204406140Y-81206685D01*
X204462941Y-81290018D01*
X204484580Y-81386777D01*
X204485275Y-81409895D01*
X204470128Y-81510674D01*
X204420283Y-81598522D01*
X204406140Y-81613593D01*
X204321891Y-81669342D01*
X204224278Y-81690580D01*
X204200976Y-81691263D01*
G37*
G36*
X205977454Y-80458867D02*
G01*
X206022540Y-80487145D01*
X206072023Y-80575864D01*
X206076273Y-80622944D01*
X206055283Y-80719458D01*
X206022540Y-80762163D01*
X205932011Y-80806241D01*
X205879413Y-80811011D01*
X205782899Y-80791930D01*
X205737264Y-80762163D01*
X205687896Y-80675161D01*
X205682554Y-80622944D01*
X205706115Y-80523909D01*
X205737264Y-80487145D01*
X205827960Y-80445271D01*
X205879413Y-80440739D01*
X205977454Y-80458867D01*
G37*
G36*
X205979858Y-79570258D02*
G01*
X206084246Y-79587431D01*
X206179515Y-79616969D01*
X206237962Y-79643531D01*
X206325622Y-79698228D01*
X206399925Y-79765232D01*
X206460872Y-79844544D01*
X206471458Y-79861884D01*
X206515250Y-79954085D01*
X206542823Y-80055446D01*
X206553771Y-80154502D01*
X206554501Y-80189169D01*
X206554501Y-81067466D01*
X206547932Y-81169034D01*
X206525225Y-81273276D01*
X206486299Y-81368454D01*
X206471458Y-81395240D01*
X206413183Y-81476804D01*
X206341551Y-81546251D01*
X206256562Y-81603581D01*
X206237962Y-81613593D01*
X206138299Y-81654552D01*
X206038977Y-81678444D01*
X205930536Y-81690049D01*
X205879413Y-81691263D01*
X205780129Y-81686408D01*
X205676316Y-81669342D01*
X205580849Y-81639989D01*
X205521842Y-81613593D01*
X205433619Y-81558686D01*
X205358848Y-81491663D01*
X205297530Y-81412522D01*
X205286880Y-81395240D01*
X205243346Y-81302781D01*
X205215935Y-81201258D01*
X205205052Y-81102138D01*
X205204326Y-81067466D01*
X205204326Y-80190146D01*
X205598046Y-80190146D01*
X205598046Y-81066489D01*
X205614682Y-81166610D01*
X205669103Y-81248798D01*
X205673761Y-81253091D01*
X205763276Y-81304016D01*
X205863440Y-81320725D01*
X205879413Y-81320990D01*
X205977378Y-81309784D01*
X206066572Y-81269005D01*
X206086043Y-81253091D01*
X206142096Y-81172491D01*
X206160708Y-81073859D01*
X206160781Y-81066489D01*
X206160781Y-80190146D01*
X206144359Y-80090026D01*
X206090641Y-80007838D01*
X206086043Y-80003545D01*
X205997260Y-79952620D01*
X205895734Y-79935910D01*
X205879413Y-79935645D01*
X205781368Y-79946851D01*
X205691881Y-79987631D01*
X205672295Y-80003545D01*
X205616608Y-80084145D01*
X205598118Y-80182777D01*
X205598046Y-80190146D01*
X205204326Y-80190146D01*
X205204326Y-80189169D01*
X205210856Y-80087640D01*
X205233430Y-79983532D01*
X205272127Y-79888582D01*
X205286880Y-79861884D01*
X205345508Y-79780110D01*
X205417588Y-79710644D01*
X205503121Y-79653485D01*
X205521842Y-79643531D01*
X205622248Y-79602315D01*
X205721424Y-79578272D01*
X205828947Y-79566594D01*
X205879413Y-79565373D01*
X205979858Y-79570258D01*
G37*
X189500000Y-126500000D02*
X203500000Y-126500000D01*
X203500000Y-132500000D01*
X189500000Y-132500000D01*
X189500000Y-126500000D01*
D11*
G36*
X200183286Y-131345631D02*
G01*
X200133568Y-131343204D01*
X200081393Y-131334671D01*
X200033198Y-131319994D01*
X200003279Y-131306796D01*
X199958252Y-131279343D01*
X199919951Y-131245831D01*
X199888375Y-131206261D01*
X199882868Y-131197620D01*
X199860328Y-131151390D01*
X199846136Y-131100629D01*
X199840501Y-131051069D01*
X199840125Y-131033733D01*
X199840125Y-130594584D01*
X199843506Y-130543169D01*
X199855194Y-130490800D01*
X199875229Y-130443440D01*
X199882868Y-130430209D01*
X199913097Y-130389708D01*
X199950053Y-130355219D01*
X199993736Y-130326740D01*
X200003279Y-130321765D01*
X200048821Y-130302874D01*
X200098342Y-130290166D01*
X200151844Y-130283640D01*
X200183286Y-130282686D01*
X200233600Y-130285129D01*
X200286116Y-130293715D01*
X200334305Y-130308484D01*
X200364026Y-130321765D01*
X200408667Y-130349042D01*
X200446725Y-130382330D01*
X200478200Y-130421628D01*
X200483705Y-130430209D01*
X200506374Y-130476195D01*
X200520647Y-130527143D01*
X200526314Y-130577237D01*
X200526692Y-130594829D01*
X200315666Y-130594829D01*
X200309027Y-130546202D01*
X200283117Y-130502366D01*
X200280983Y-130500307D01*
X200236259Y-130474960D01*
X200187212Y-130467854D01*
X200183286Y-130467822D01*
X200133451Y-130474040D01*
X200090007Y-130496373D01*
X200085589Y-130500307D01*
X200058718Y-130543231D01*
X200051151Y-130595073D01*
X200051151Y-131033244D01*
X200058718Y-131084196D01*
X200085589Y-131127278D01*
X200130314Y-131153196D01*
X200179361Y-131160463D01*
X200183286Y-131160495D01*
X200233121Y-131154137D01*
X200276566Y-131131300D01*
X200280983Y-131127278D01*
X200308045Y-131084005D01*
X200315666Y-131033000D01*
X200526692Y-131033000D01*
X200523291Y-131083902D01*
X200511537Y-131136109D01*
X200491387Y-131183736D01*
X200483705Y-131197131D01*
X200453547Y-131238042D01*
X200416805Y-131272847D01*
X200373481Y-131301545D01*
X200364026Y-131306552D01*
X200318723Y-131325443D01*
X200269092Y-131338151D01*
X200215133Y-131344677D01*
X200183286Y-131345631D01*
G37*
G36*
X201067106Y-130285752D02*
G01*
X201118477Y-130294948D01*
X201165383Y-130310275D01*
X201214463Y-130335906D01*
X201257466Y-130369881D01*
X201293060Y-130411114D01*
X201319910Y-130458518D01*
X201338019Y-130512093D01*
X201346583Y-130562926D01*
X201348813Y-130608750D01*
X201348813Y-131019567D01*
X201345602Y-131073706D01*
X201335968Y-131123465D01*
X201316610Y-131175984D01*
X201288510Y-131222541D01*
X201257466Y-131257704D01*
X201214463Y-131291964D01*
X201165383Y-131317810D01*
X201118477Y-131333266D01*
X201067106Y-131342540D01*
X201011270Y-131345631D01*
X200955433Y-131342540D01*
X200904062Y-131333266D01*
X200857156Y-131317810D01*
X200808076Y-131291964D01*
X200765073Y-131257704D01*
X200729480Y-131216255D01*
X200702629Y-131168846D01*
X200684520Y-131115476D01*
X200675956Y-131064987D01*
X200673726Y-131019567D01*
X200673726Y-130608750D01*
X200674530Y-130595073D01*
X200884752Y-130595073D01*
X200884752Y-131033244D01*
X200890806Y-131082827D01*
X200916381Y-131128682D01*
X200961972Y-131154406D01*
X201011270Y-131160495D01*
X201060567Y-131154406D01*
X201106158Y-131128682D01*
X201131733Y-131082827D01*
X201137787Y-131033244D01*
X201137787Y-130595073D01*
X201131733Y-130545490D01*
X201106158Y-130499635D01*
X201060567Y-130473911D01*
X201011270Y-130467822D01*
X200961972Y-130473911D01*
X200916381Y-130499635D01*
X200890806Y-130545490D01*
X200884752Y-130595073D01*
X200674530Y-130595073D01*
X200676937Y-130554139D01*
X200686572Y-130504062D01*
X200705929Y-130451368D01*
X200734029Y-130404846D01*
X200765073Y-130369881D01*
X200808076Y-130335906D01*
X200857156Y-130310275D01*
X200904062Y-130294948D01*
X200955433Y-130285752D01*
X201011270Y-130282686D01*
X201067106Y-130285752D01*
G37*
G36*
X201487543Y-131330000D02*
G01*
X201487543Y-130298318D01*
X201744975Y-130298318D01*
X201849023Y-130740397D01*
X201953070Y-130298318D01*
X202213433Y-130298318D01*
X202213433Y-131330000D01*
X202020725Y-131330000D01*
X202020725Y-130936036D01*
X202021189Y-130878471D01*
X202022580Y-130821730D01*
X202024898Y-130765814D01*
X202028144Y-130710722D01*
X202032317Y-130656454D01*
X202033914Y-130638548D01*
X202038978Y-130586187D01*
X202044092Y-130536264D01*
X202050125Y-130481102D01*
X202056227Y-130429261D01*
X202061514Y-130387466D01*
X201932065Y-130891828D01*
X201763293Y-130891828D01*
X201636531Y-130399923D01*
X201643645Y-130448726D01*
X201650819Y-130503787D01*
X201657147Y-130557100D01*
X201662608Y-130606611D01*
X201665352Y-130632686D01*
X201670415Y-130686439D01*
X201674431Y-130741634D01*
X201677399Y-130798271D01*
X201679320Y-130856352D01*
X201680120Y-130905854D01*
X201680251Y-130936036D01*
X201680251Y-131330000D01*
X201487543Y-131330000D01*
G37*
G36*
X190789916Y-131330000D02*
G01*
X190535170Y-130298318D01*
X190753279Y-130298318D01*
X190895429Y-130951179D01*
X190905408Y-131000867D01*
X190912770Y-131037641D01*
X190922234Y-131086062D01*
X190929134Y-131126789D01*
X190936752Y-131077569D01*
X190943056Y-131037641D01*
X190951238Y-130989403D01*
X190958688Y-130949713D01*
X191096441Y-130298318D01*
X191308932Y-130298318D01*
X191057117Y-131330000D01*
X190789916Y-131330000D01*
G37*
G36*
X191817106Y-130285752D02*
G01*
X191868477Y-130294948D01*
X191915383Y-130310275D01*
X191964463Y-130335906D01*
X192007466Y-130369881D01*
X192043060Y-130411114D01*
X192069910Y-130458518D01*
X192088019Y-130512093D01*
X192096583Y-130562926D01*
X192098813Y-130608750D01*
X192098813Y-131019567D01*
X192095602Y-131073706D01*
X192085968Y-131123465D01*
X192066610Y-131175984D01*
X192038510Y-131222541D01*
X192007466Y-131257704D01*
X191964463Y-131291964D01*
X191915383Y-131317810D01*
X191868477Y-131333266D01*
X191817106Y-131342540D01*
X191761270Y-131345631D01*
X191705433Y-131342540D01*
X191654062Y-131333266D01*
X191607156Y-131317810D01*
X191558076Y-131291964D01*
X191515073Y-131257704D01*
X191479480Y-131216255D01*
X191452629Y-131168846D01*
X191434520Y-131115476D01*
X191425956Y-131064987D01*
X191423726Y-131019567D01*
X191423726Y-130608750D01*
X191424530Y-130595073D01*
X191634752Y-130595073D01*
X191634752Y-131033244D01*
X191640806Y-131082827D01*
X191666381Y-131128682D01*
X191711972Y-131154406D01*
X191761270Y-131160495D01*
X191810567Y-131154406D01*
X191856158Y-131128682D01*
X191881733Y-131082827D01*
X191887787Y-131033244D01*
X191887787Y-130595073D01*
X191881733Y-130545490D01*
X191856158Y-130499635D01*
X191810567Y-130473911D01*
X191761270Y-130467822D01*
X191711972Y-130473911D01*
X191666381Y-130499635D01*
X191640806Y-130545490D01*
X191634752Y-130595073D01*
X191424530Y-130595073D01*
X191426937Y-130554139D01*
X191436572Y-130504062D01*
X191455929Y-130451368D01*
X191484029Y-130404846D01*
X191515073Y-130369881D01*
X191558076Y-130335906D01*
X191607156Y-130310275D01*
X191654062Y-130294948D01*
X191705433Y-130285752D01*
X191761270Y-130282686D01*
X191817106Y-130285752D01*
G37*
G36*
X192600488Y-131345631D02*
G01*
X192544254Y-131342651D01*
X192492605Y-131333713D01*
X192445542Y-131318815D01*
X192396430Y-131293902D01*
X192353558Y-131260879D01*
X192318251Y-131220713D01*
X192291615Y-131174586D01*
X192273652Y-131122498D01*
X192265157Y-131073108D01*
X192262944Y-131028604D01*
X192262944Y-130298318D01*
X192473970Y-130298318D01*
X192473970Y-131026161D01*
X192480281Y-131077212D01*
X192502950Y-131121359D01*
X192506943Y-131125812D01*
X192549766Y-131152874D01*
X192600488Y-131160495D01*
X192650319Y-131152874D01*
X192693300Y-131125812D01*
X192718579Y-131083558D01*
X192726874Y-131034164D01*
X192727006Y-131026161D01*
X192727006Y-130298318D01*
X192938032Y-130298318D01*
X192938032Y-131028604D01*
X192934837Y-131081171D01*
X192925255Y-131129514D01*
X192906000Y-131180575D01*
X192878051Y-131225885D01*
X192847173Y-131260146D01*
X192804397Y-131293455D01*
X192755357Y-131318583D01*
X192708336Y-131333610D01*
X192656713Y-131342626D01*
X192600488Y-131345631D01*
G37*
G36*
X193334193Y-131330000D02*
G01*
X193334193Y-130483454D01*
X193073831Y-130483454D01*
X193073831Y-130298318D01*
X193805582Y-130298318D01*
X193805582Y-130483454D01*
X193545219Y-130483454D01*
X193545219Y-131330000D01*
X193334193Y-131330000D01*
G37*
D10*
G36*
X107323377Y-57160000D02*
G01*
X107323377Y-55096636D01*
X107745429Y-55096636D01*
X107745429Y-56789727D01*
X108575854Y-56789727D01*
X108575854Y-57160000D01*
X107323377Y-57160000D01*
G37*
G36*
X109634212Y-55071504D02*
G01*
X109736954Y-55089896D01*
X109830766Y-55120551D01*
X109928927Y-55171812D01*
X110014933Y-55239762D01*
X110086120Y-55322229D01*
X110139821Y-55417037D01*
X110176039Y-55524187D01*
X110193167Y-55625853D01*
X110197627Y-55717501D01*
X110197627Y-56539134D01*
X110191204Y-56647412D01*
X110171936Y-56746931D01*
X110133220Y-56851968D01*
X110077021Y-56945083D01*
X110014933Y-57015408D01*
X109928927Y-57083929D01*
X109830766Y-57135621D01*
X109736954Y-57166533D01*
X109634212Y-57185080D01*
X109522540Y-57191263D01*
X109410867Y-57185080D01*
X109308125Y-57166533D01*
X109214313Y-57135621D01*
X109116152Y-57083929D01*
X109030146Y-57015408D01*
X108958960Y-56932511D01*
X108905258Y-56837692D01*
X108869040Y-56730953D01*
X108851913Y-56629974D01*
X108847452Y-56539134D01*
X108847452Y-55717501D01*
X108849061Y-55690146D01*
X109269504Y-55690146D01*
X109269504Y-56566489D01*
X109281612Y-56665655D01*
X109332763Y-56757365D01*
X109423945Y-56808812D01*
X109522540Y-56820990D01*
X109621135Y-56808812D01*
X109712316Y-56757365D01*
X109763467Y-56665655D01*
X109775575Y-56566489D01*
X109775575Y-55690146D01*
X109763467Y-55590980D01*
X109712316Y-55499270D01*
X109621135Y-55447823D01*
X109522540Y-55435645D01*
X109423945Y-55447823D01*
X109332763Y-55499270D01*
X109281612Y-55590980D01*
X109269504Y-55690146D01*
X108849061Y-55690146D01*
X108853875Y-55608279D01*
X108873144Y-55508124D01*
X108911859Y-55402737D01*
X108968059Y-55309692D01*
X109030146Y-55239762D01*
X109116152Y-55171812D01*
X109214313Y-55120551D01*
X109308125Y-55089896D01*
X109410867Y-55071504D01*
X109522540Y-55065373D01*
X109634212Y-55071504D01*
G37*
G36*
X110989951Y-57160000D02*
G01*
X110989951Y-55466908D01*
X110469225Y-55466908D01*
X110469225Y-55096636D01*
X111932728Y-55096636D01*
X111932728Y-55466908D01*
X111412002Y-55466908D01*
X111412002Y-57160000D01*
X110989951Y-57160000D01*
G37*
G36*
X112260502Y-57160000D02*
G01*
X112260502Y-56789727D01*
X112668387Y-56789727D01*
X112668387Y-55466908D01*
X112260502Y-55466908D01*
X112260502Y-55096636D01*
X113498325Y-55096636D01*
X113498325Y-55466908D01*
X113090439Y-55466908D01*
X113090439Y-56789727D01*
X113498325Y-56789727D01*
X113498325Y-57160000D01*
X112260502Y-57160000D01*
G37*
G36*
X114346824Y-57160000D02*
G01*
X114346824Y-55466908D01*
X113826099Y-55466908D01*
X113826099Y-55096636D01*
X115289602Y-55096636D01*
X115289602Y-55466908D01*
X114768876Y-55466908D01*
X114768876Y-57160000D01*
X114346824Y-57160000D01*
G37*
G36*
X116347959Y-55071504D02*
G01*
X116450702Y-55089896D01*
X116544514Y-55120551D01*
X116642675Y-55171812D01*
X116728681Y-55239762D01*
X116799867Y-55322229D01*
X116853569Y-55417037D01*
X116889786Y-55524187D01*
X116906914Y-55625853D01*
X116911374Y-55717501D01*
X116911374Y-56539134D01*
X116904951Y-56647412D01*
X116885683Y-56746931D01*
X116846968Y-56851968D01*
X116790768Y-56945083D01*
X116728681Y-57015408D01*
X116642675Y-57083929D01*
X116544514Y-57135621D01*
X116450702Y-57166533D01*
X116347959Y-57185080D01*
X116236287Y-57191263D01*
X116124615Y-57185080D01*
X116021872Y-57166533D01*
X115928060Y-57135621D01*
X115829899Y-57083929D01*
X115743893Y-57015408D01*
X115672707Y-56932511D01*
X115619005Y-56837692D01*
X115582788Y-56730953D01*
X115565660Y-56629974D01*
X115561200Y-56539134D01*
X115561200Y-55717501D01*
X115562809Y-55690146D01*
X115983251Y-55690146D01*
X115983251Y-56566489D01*
X115995360Y-56665655D01*
X116046510Y-56757365D01*
X116137692Y-56808812D01*
X116236287Y-56820990D01*
X116334882Y-56808812D01*
X116426064Y-56757365D01*
X116477214Y-56665655D01*
X116489323Y-56566489D01*
X116489323Y-55690146D01*
X116477214Y-55590980D01*
X116426064Y-55499270D01*
X116334882Y-55447823D01*
X116236287Y-55435645D01*
X116137692Y-55447823D01*
X116046510Y-55499270D01*
X115995360Y-55590980D01*
X115983251Y-55690146D01*
X115562809Y-55690146D01*
X115567623Y-55608279D01*
X115586891Y-55508124D01*
X115625606Y-55402737D01*
X115681806Y-55309692D01*
X115743893Y-55239762D01*
X115829899Y-55171812D01*
X115928060Y-55120551D01*
X116021872Y-55089896D01*
X116124615Y-55071504D01*
X116236287Y-55065373D01*
X116347959Y-55071504D01*
G37*
G36*
X119072435Y-57160000D02*
G01*
X119072435Y-55096636D01*
X119494487Y-55096636D01*
X119494487Y-56789727D01*
X120324912Y-56789727D01*
X120324912Y-57160000D01*
X119072435Y-57160000D01*
G37*
G36*
X122045359Y-57160000D02*
G01*
X121615003Y-57160000D01*
X121516329Y-56691053D01*
X121026866Y-56691053D01*
X120928192Y-57160000D01*
X120497836Y-57160000D01*
X120696235Y-56347159D01*
X121097208Y-56347159D01*
X121443056Y-56347159D01*
X121344870Y-55853789D01*
X121325880Y-55754276D01*
X121306459Y-55655408D01*
X121303838Y-55642274D01*
X121284277Y-55543645D01*
X121271598Y-55478143D01*
X121253696Y-55574865D01*
X121241800Y-55640809D01*
X121223890Y-55738540D01*
X121204047Y-55837558D01*
X121201256Y-55850858D01*
X121097208Y-56347159D01*
X120696235Y-56347159D01*
X121001465Y-55096636D01*
X121535868Y-55096636D01*
X122045359Y-57160000D01*
G37*
G36*
X123052311Y-55100727D02*
G01*
X123156339Y-55115110D01*
X123252174Y-55139848D01*
X123311514Y-55162093D01*
X123400748Y-55208060D01*
X123483589Y-55270305D01*
X123550383Y-55344787D01*
X123599331Y-55430351D01*
X123627961Y-55525843D01*
X123636357Y-55621270D01*
X123627007Y-55723766D01*
X123595124Y-55823619D01*
X123540614Y-55909965D01*
X123468430Y-55978532D01*
X123374412Y-56028186D01*
X123293440Y-56048206D01*
X123293440Y-56054068D01*
X123389170Y-56075212D01*
X123480324Y-56122975D01*
X123497138Y-56135645D01*
X123567263Y-56204153D01*
X123622053Y-56287434D01*
X123634891Y-56313942D01*
X123666835Y-56406326D01*
X123682494Y-56507255D01*
X123684228Y-56556720D01*
X123677196Y-56654595D01*
X123652886Y-56755097D01*
X123611212Y-56846917D01*
X123595324Y-56872770D01*
X123533195Y-56951777D01*
X123457327Y-57019048D01*
X123367720Y-57074585D01*
X123348150Y-57084284D01*
X123254714Y-57120885D01*
X123153010Y-57145507D01*
X123055664Y-57157338D01*
X122978367Y-57160000D01*
X122291556Y-57160000D01*
X122291556Y-56816106D01*
X122699441Y-56816106D01*
X122964200Y-56816106D01*
X123066370Y-56803851D01*
X123160015Y-56759258D01*
X123180600Y-56741856D01*
X123237400Y-56659689D01*
X123259039Y-56560339D01*
X123259734Y-56536203D01*
X123246674Y-56438629D01*
X123199147Y-56348884D01*
X123180600Y-56329085D01*
X123093882Y-56274739D01*
X122997715Y-56254553D01*
X122964200Y-56253370D01*
X122699441Y-56253370D01*
X122699441Y-56816106D01*
X122291556Y-56816106D01*
X122291556Y-55909476D01*
X122699441Y-55909476D01*
X122947103Y-55909476D01*
X123045385Y-55897321D01*
X123137072Y-55849880D01*
X123141521Y-55845973D01*
X123198399Y-55759917D01*
X123211863Y-55673538D01*
X123194277Y-55575108D01*
X123141521Y-55501591D01*
X123051617Y-55453947D01*
X122954806Y-55440589D01*
X122947103Y-55440530D01*
X122699441Y-55440530D01*
X122699441Y-55909476D01*
X122291556Y-55909476D01*
X122291556Y-55096636D01*
X122952965Y-55096636D01*
X123052311Y-55100727D01*
G37*
G36*
X124740144Y-55071504D02*
G01*
X124842886Y-55089896D01*
X124936698Y-55120551D01*
X125034859Y-55171812D01*
X125120865Y-55239762D01*
X125192051Y-55322229D01*
X125245753Y-55417037D01*
X125281971Y-55524187D01*
X125299098Y-55625853D01*
X125303558Y-55717501D01*
X125303558Y-56539134D01*
X125297136Y-56647412D01*
X125277867Y-56746931D01*
X125239152Y-56851968D01*
X125182952Y-56945083D01*
X125120865Y-57015408D01*
X125034859Y-57083929D01*
X124936698Y-57135621D01*
X124842886Y-57166533D01*
X124740144Y-57185080D01*
X124628471Y-57191263D01*
X124516799Y-57185080D01*
X124414057Y-57166533D01*
X124320244Y-57135621D01*
X124222084Y-57083929D01*
X124136078Y-57015408D01*
X124064891Y-56932511D01*
X124011189Y-56837692D01*
X123974972Y-56730953D01*
X123957844Y-56629974D01*
X123953384Y-56539134D01*
X123953384Y-55717501D01*
X123954993Y-55690146D01*
X124375436Y-55690146D01*
X124375436Y-56566489D01*
X124387544Y-56665655D01*
X124438695Y-56757365D01*
X124529876Y-56808812D01*
X124628471Y-56820990D01*
X124727066Y-56808812D01*
X124818248Y-56757365D01*
X124869399Y-56665655D01*
X124881507Y-56566489D01*
X124881507Y-55690146D01*
X124869399Y-55590980D01*
X124818248Y-55499270D01*
X124727066Y-55447823D01*
X124628471Y-55435645D01*
X124529876Y-55447823D01*
X124438695Y-55499270D01*
X124387544Y-55590980D01*
X124375436Y-55690146D01*
X123954993Y-55690146D01*
X123959807Y-55608279D01*
X123979075Y-55508124D01*
X124017791Y-55402737D01*
X124073990Y-55309692D01*
X124136078Y-55239762D01*
X124222084Y-55171812D01*
X124320244Y-55120551D01*
X124414057Y-55089896D01*
X124516799Y-55071504D01*
X124628471Y-55065373D01*
X124740144Y-55071504D01*
G37*
G36*
X126412879Y-55101399D02*
G01*
X126511461Y-55115687D01*
X126613535Y-55143147D01*
X126686461Y-55172840D01*
X126779846Y-55226506D01*
X126859111Y-55292862D01*
X126924255Y-55371907D01*
X126935589Y-55389239D01*
X126982472Y-55481870D01*
X127011991Y-55584519D01*
X127023712Y-55685468D01*
X127024494Y-55720921D01*
X127016804Y-55829744D01*
X126993736Y-55931998D01*
X126955289Y-56027683D01*
X126927285Y-56078004D01*
X126867195Y-56159603D01*
X126796287Y-56227446D01*
X126714559Y-56281533D01*
X126664480Y-56305638D01*
X127052337Y-57160000D01*
X126594138Y-57160000D01*
X126261967Y-56373538D01*
X126065108Y-56373538D01*
X126065108Y-57160000D01*
X125648429Y-57160000D01*
X125648429Y-56003265D01*
X126065108Y-56003265D01*
X126306908Y-56003265D01*
X126410733Y-55991898D01*
X126504485Y-55950532D01*
X126524773Y-55934389D01*
X126583025Y-55851224D01*
X126602366Y-55748191D01*
X126602442Y-55740460D01*
X126587576Y-55637891D01*
X126538653Y-55552690D01*
X126524773Y-55538715D01*
X126438462Y-55487174D01*
X126341087Y-55468030D01*
X126306908Y-55466908D01*
X126065108Y-55466908D01*
X126065108Y-56003265D01*
X125648429Y-56003265D01*
X125648429Y-55096636D01*
X126306908Y-55096636D01*
X126412879Y-55101399D01*
G37*
G36*
X128759106Y-57160000D02*
G01*
X128328750Y-57160000D01*
X128230076Y-56691053D01*
X127740614Y-56691053D01*
X127641939Y-57160000D01*
X127211584Y-57160000D01*
X127409983Y-56347159D01*
X127810956Y-56347159D01*
X128156803Y-56347159D01*
X128058618Y-55853789D01*
X128039627Y-55754276D01*
X128020207Y-55655408D01*
X128017585Y-55642274D01*
X127998025Y-55543645D01*
X127985345Y-55478143D01*
X127967443Y-55574865D01*
X127955547Y-55640809D01*
X127937637Y-55738540D01*
X127917795Y-55837558D01*
X127915003Y-55850858D01*
X127810956Y-56347159D01*
X127409983Y-56347159D01*
X127715212Y-55096636D01*
X128249616Y-55096636D01*
X128759106Y-57160000D01*
G37*
G36*
X129452756Y-57160000D02*
G01*
X129452756Y-55466908D01*
X128932030Y-55466908D01*
X128932030Y-55096636D01*
X130395533Y-55096636D01*
X130395533Y-55466908D01*
X129874808Y-55466908D01*
X129874808Y-57160000D01*
X129452756Y-57160000D01*
G37*
G36*
X131453891Y-55071504D02*
G01*
X131556633Y-55089896D01*
X131650445Y-55120551D01*
X131748606Y-55171812D01*
X131834612Y-55239762D01*
X131905798Y-55322229D01*
X131959500Y-55417037D01*
X131995718Y-55524187D01*
X132012846Y-55625853D01*
X132017306Y-55717501D01*
X132017306Y-56539134D01*
X132010883Y-56647412D01*
X131991615Y-56746931D01*
X131952899Y-56851968D01*
X131896699Y-56945083D01*
X131834612Y-57015408D01*
X131748606Y-57083929D01*
X131650445Y-57135621D01*
X131556633Y-57166533D01*
X131453891Y-57185080D01*
X131342219Y-57191263D01*
X131230546Y-57185080D01*
X131127804Y-57166533D01*
X131033992Y-57135621D01*
X130935831Y-57083929D01*
X130849825Y-57015408D01*
X130778639Y-56932511D01*
X130724937Y-56837692D01*
X130688719Y-56730953D01*
X130671592Y-56629974D01*
X130667131Y-56539134D01*
X130667131Y-55717501D01*
X130668740Y-55690146D01*
X131089183Y-55690146D01*
X131089183Y-56566489D01*
X131101291Y-56665655D01*
X131152442Y-56757365D01*
X131243624Y-56808812D01*
X131342219Y-56820990D01*
X131440814Y-56808812D01*
X131531995Y-56757365D01*
X131583146Y-56665655D01*
X131595254Y-56566489D01*
X131595254Y-55690146D01*
X131583146Y-55590980D01*
X131531995Y-55499270D01*
X131440814Y-55447823D01*
X131342219Y-55435645D01*
X131243624Y-55447823D01*
X131152442Y-55499270D01*
X131101291Y-55590980D01*
X131089183Y-55690146D01*
X130668740Y-55690146D01*
X130673554Y-55608279D01*
X130692823Y-55508124D01*
X130731538Y-55402737D01*
X130787738Y-55309692D01*
X130849825Y-55239762D01*
X130935831Y-55171812D01*
X131033992Y-55120551D01*
X131127804Y-55089896D01*
X131230546Y-55071504D01*
X131342219Y-55065373D01*
X131453891Y-55071504D01*
G37*
G36*
X133126626Y-55101399D02*
G01*
X133225209Y-55115687D01*
X133327283Y-55143147D01*
X133400209Y-55172840D01*
X133493594Y-55226506D01*
X133572858Y-55292862D01*
X133638002Y-55371907D01*
X133649337Y-55389239D01*
X133696220Y-55481870D01*
X133725739Y-55584519D01*
X133737460Y-55685468D01*
X133738241Y-55720921D01*
X133730552Y-55829744D01*
X133707484Y-55931998D01*
X133669037Y-56027683D01*
X133641032Y-56078004D01*
X133580943Y-56159603D01*
X133510034Y-56227446D01*
X133428306Y-56281533D01*
X133378227Y-56305638D01*
X133766085Y-57160000D01*
X133307885Y-57160000D01*
X132975715Y-56373538D01*
X132778855Y-56373538D01*
X132778855Y-57160000D01*
X132362177Y-57160000D01*
X132362177Y-56003265D01*
X132778855Y-56003265D01*
X133020655Y-56003265D01*
X133124481Y-55991898D01*
X133218233Y-55950532D01*
X133238520Y-55934389D01*
X133296772Y-55851224D01*
X133316113Y-55748191D01*
X133316189Y-55740460D01*
X133301323Y-55637891D01*
X133252400Y-55552690D01*
X133238520Y-55538715D01*
X133152210Y-55487174D01*
X133054834Y-55468030D01*
X133020655Y-55466908D01*
X132778855Y-55466908D01*
X132778855Y-56003265D01*
X132362177Y-56003265D01*
X132362177Y-55096636D01*
X133020655Y-55096636D01*
X133126626Y-55101399D01*
G37*
G36*
X134080181Y-57160000D02*
G01*
X134080181Y-56789727D01*
X134488066Y-56789727D01*
X134488066Y-55466908D01*
X134080181Y-55466908D01*
X134080181Y-55096636D01*
X135318004Y-55096636D01*
X135318004Y-55466908D01*
X134910118Y-55466908D01*
X134910118Y-56789727D01*
X135318004Y-56789727D01*
X135318004Y-57160000D01*
X134080181Y-57160000D01*
G37*
G36*
X135758618Y-57160000D02*
G01*
X135758618Y-55096636D01*
X137024773Y-55096636D01*
X137024773Y-55466908D01*
X136172365Y-55466908D01*
X136172365Y-55909476D01*
X136926099Y-55909476D01*
X136926099Y-56279748D01*
X136172365Y-56279748D01*
X136172365Y-56789727D01*
X137024773Y-56789727D01*
X137024773Y-57160000D01*
X135758618Y-57160000D01*
G37*
G36*
X138061828Y-57191263D02*
G01*
X137956834Y-57186469D01*
X137858740Y-57172090D01*
X137756632Y-57144453D01*
X137683251Y-57114570D01*
X137598059Y-57066408D01*
X137516905Y-57001111D01*
X137449968Y-56923411D01*
X137432658Y-56897683D01*
X137386033Y-56804937D01*
X137356676Y-56702556D01*
X137345019Y-56602173D01*
X137344242Y-56566978D01*
X137755059Y-56566978D01*
X137773305Y-56665317D01*
X137832992Y-56747733D01*
X137838101Y-56752114D01*
X137928619Y-56801552D01*
X138027558Y-56819914D01*
X138061828Y-56820990D01*
X138163755Y-56810026D01*
X138256520Y-56770127D01*
X138276762Y-56754556D01*
X138337365Y-56671425D01*
X138354431Y-56577236D01*
X138336521Y-56479774D01*
X138303628Y-56420432D01*
X138226596Y-56354421D01*
X138154640Y-56328108D01*
X137904047Y-56269002D01*
X137803028Y-56239139D01*
X137711545Y-56199131D01*
X137618672Y-56140986D01*
X137538255Y-56069591D01*
X137520097Y-56049672D01*
X137457907Y-55964125D01*
X137413485Y-55870642D01*
X137386832Y-55769220D01*
X137377948Y-55659860D01*
X137384216Y-55560003D01*
X137407374Y-55454095D01*
X137447595Y-55359594D01*
X137504880Y-55276500D01*
X137556245Y-55224131D01*
X137640728Y-55162271D01*
X137737740Y-55115605D01*
X137847281Y-55084132D01*
X137951146Y-55069249D01*
X138044731Y-55065373D01*
X138156403Y-55071057D01*
X138259146Y-55088110D01*
X138352958Y-55116532D01*
X138451118Y-55164060D01*
X138537124Y-55227062D01*
X138608311Y-55303200D01*
X138662013Y-55390138D01*
X138698230Y-55487874D01*
X138716963Y-55596410D01*
X138719818Y-55663279D01*
X138309002Y-55663279D01*
X138289149Y-55562850D01*
X138238660Y-55496217D01*
X138148894Y-55448954D01*
X138044731Y-55435645D01*
X137942965Y-55448740D01*
X137856175Y-55495240D01*
X137799890Y-55579379D01*
X137788764Y-55653021D01*
X137811680Y-55749888D01*
X137880426Y-55819511D01*
X137982693Y-55859162D01*
X138241591Y-55918269D01*
X138342777Y-55947785D01*
X138434333Y-55989315D01*
X138516258Y-56042860D01*
X138598094Y-56118766D01*
X138625540Y-56151277D01*
X138680929Y-56233145D01*
X138722713Y-56321886D01*
X138750893Y-56417499D01*
X138765469Y-56519984D01*
X138767690Y-56581632D01*
X138760889Y-56681354D01*
X138737381Y-56783726D01*
X138697081Y-56877225D01*
X138681716Y-56903545D01*
X138621085Y-56983744D01*
X138546047Y-57051540D01*
X138456603Y-57106934D01*
X138436985Y-57116524D01*
X138343124Y-57152653D01*
X138240144Y-57176957D01*
X138140951Y-57188635D01*
X138061828Y-57191263D01*
G37*
G36*
X140962456Y-56409685D02*
G01*
X140962456Y-56003265D01*
X141863224Y-56003265D01*
X141863224Y-56409685D01*
X140962456Y-56409685D01*
G37*
G36*
X144248988Y-57160000D02*
G01*
X144248988Y-55096636D01*
X144671039Y-55096636D01*
X144671039Y-56789727D01*
X145501465Y-56789727D01*
X145501465Y-57160000D01*
X144248988Y-57160000D01*
G37*
G36*
X145829239Y-57160000D02*
G01*
X145829239Y-56789727D01*
X146237124Y-56789727D01*
X146237124Y-55466908D01*
X145829239Y-55466908D01*
X145829239Y-55096636D01*
X147067062Y-55096636D01*
X147067062Y-55466908D01*
X146659176Y-55466908D01*
X146659176Y-56789727D01*
X147067062Y-56789727D01*
X147067062Y-57160000D01*
X145829239Y-57160000D01*
G37*
G36*
X147451500Y-57160000D02*
G01*
X147451500Y-55096636D01*
X147943893Y-55096636D01*
X148475366Y-56697892D01*
X148467539Y-56599825D01*
X148459266Y-56497711D01*
X148455826Y-56455603D01*
X148447950Y-56352655D01*
X148441172Y-56249706D01*
X148437264Y-56181074D01*
X148432836Y-56076003D01*
X148430592Y-55978176D01*
X148430425Y-55947090D01*
X148430425Y-55096636D01*
X148801674Y-55096636D01*
X148801674Y-57160000D01*
X148309281Y-57160000D01*
X147783182Y-55576329D01*
X147791852Y-55674637D01*
X147799239Y-55774480D01*
X147800279Y-55789797D01*
X147806784Y-55890298D01*
X147812806Y-55991767D01*
X147815422Y-56038925D01*
X147820166Y-56136728D01*
X147822634Y-56238158D01*
X147822749Y-56263140D01*
X147822749Y-57160000D01*
X147451500Y-57160000D01*
G37*
G36*
X149186113Y-57160000D02*
G01*
X149186113Y-55096636D01*
X150452267Y-55096636D01*
X150452267Y-55466908D01*
X149599860Y-55466908D01*
X149599860Y-55909476D01*
X150353593Y-55909476D01*
X150353593Y-56279748D01*
X149599860Y-56279748D01*
X149599860Y-56789727D01*
X150452267Y-56789727D01*
X150452267Y-57160000D01*
X149186113Y-57160000D01*
G37*
G36*
X152257222Y-57160000D02*
G01*
X151826866Y-57160000D01*
X151728192Y-56691053D01*
X151238729Y-56691053D01*
X151140055Y-57160000D01*
X150709699Y-57160000D01*
X150908098Y-56347159D01*
X151309071Y-56347159D01*
X151654919Y-56347159D01*
X151556734Y-55853789D01*
X151537743Y-55754276D01*
X151518323Y-55655408D01*
X151515701Y-55642274D01*
X151496140Y-55543645D01*
X151483461Y-55478143D01*
X151465559Y-55574865D01*
X151453663Y-55640809D01*
X151435753Y-55738540D01*
X151415910Y-55837558D01*
X151413119Y-55850858D01*
X151309071Y-56347159D01*
X150908098Y-56347159D01*
X151213328Y-55096636D01*
X151747732Y-55096636D01*
X152257222Y-57160000D01*
G37*
G36*
X153267868Y-55101399D02*
G01*
X153366451Y-55115687D01*
X153468525Y-55143147D01*
X153541451Y-55172840D01*
X153634836Y-55226506D01*
X153714100Y-55292862D01*
X153779244Y-55371907D01*
X153790579Y-55389239D01*
X153837462Y-55481870D01*
X153866981Y-55584519D01*
X153878702Y-55685468D01*
X153879483Y-55720921D01*
X153871794Y-55829744D01*
X153848726Y-55931998D01*
X153810279Y-56027683D01*
X153782274Y-56078004D01*
X153722185Y-56159603D01*
X153651276Y-56227446D01*
X153569548Y-56281533D01*
X153519469Y-56305638D01*
X153907327Y-57160000D01*
X153449127Y-57160000D01*
X153116957Y-56373538D01*
X152920097Y-56373538D01*
X152920097Y-57160000D01*
X152503419Y-57160000D01*
X152503419Y-56003265D01*
X152920097Y-56003265D01*
X153161898Y-56003265D01*
X153265723Y-55991898D01*
X153359475Y-55950532D01*
X153379762Y-55934389D01*
X153438014Y-55851224D01*
X153457356Y-55748191D01*
X153457431Y-55740460D01*
X153442565Y-55637891D01*
X153393643Y-55552690D01*
X153379762Y-55538715D01*
X153293452Y-55487174D01*
X153196076Y-55468030D01*
X153161898Y-55466908D01*
X152920097Y-55466908D01*
X152920097Y-56003265D01*
X152503419Y-56003265D01*
X152503419Y-55096636D01*
X153161898Y-55096636D01*
X153267868Y-55101399D01*
G37*
G36*
X156665775Y-55101765D02*
G01*
X156763869Y-55117152D01*
X156865977Y-55146725D01*
X156939357Y-55178702D01*
X157024511Y-55229728D01*
X157105531Y-55298478D01*
X157172240Y-55379918D01*
X157189462Y-55406824D01*
X157236345Y-55503377D01*
X157263694Y-55598757D01*
X157276977Y-55702175D01*
X157278367Y-55750718D01*
X157271257Y-55856407D01*
X157249928Y-55954755D01*
X157214379Y-56045760D01*
X157188485Y-56093147D01*
X157125392Y-56179214D01*
X157048465Y-56252401D01*
X156967403Y-56307257D01*
X156937892Y-56323224D01*
X156843284Y-56362658D01*
X156739712Y-56389186D01*
X156640122Y-56401933D01*
X156560781Y-56404801D01*
X156282344Y-56404801D01*
X156282344Y-57160000D01*
X155860293Y-57160000D01*
X155860293Y-56034528D01*
X156282344Y-56034528D01*
X156560781Y-56034528D01*
X156661611Y-56021226D01*
X156749821Y-55977148D01*
X156776203Y-55953928D01*
X156833705Y-55869135D01*
X156855611Y-55773338D01*
X156856315Y-55750718D01*
X156840981Y-55651476D01*
X156790520Y-55562990D01*
X156776203Y-55547508D01*
X156688970Y-55489656D01*
X156585667Y-55467616D01*
X156560781Y-55466908D01*
X156282344Y-55466908D01*
X156282344Y-56034528D01*
X155860293Y-56034528D01*
X155860293Y-55096636D01*
X156560781Y-55096636D01*
X156665775Y-55101765D01*
G37*
G36*
X158308881Y-55071504D02*
G01*
X158411623Y-55089896D01*
X158505435Y-55120551D01*
X158603596Y-55171812D01*
X158689602Y-55239762D01*
X158760788Y-55322229D01*
X158814490Y-55417037D01*
X158850708Y-55524187D01*
X158867835Y-55625853D01*
X158872295Y-55717501D01*
X158872295Y-56539134D01*
X158865873Y-56647412D01*
X158846604Y-56746931D01*
X158807889Y-56851968D01*
X158751689Y-56945083D01*
X158689602Y-57015408D01*
X158603596Y-57083929D01*
X158505435Y-57135621D01*
X158411623Y-57166533D01*
X158308881Y-57185080D01*
X158197208Y-57191263D01*
X158085536Y-57185080D01*
X157982793Y-57166533D01*
X157888981Y-57135621D01*
X157790820Y-57083929D01*
X157704815Y-57015408D01*
X157633628Y-56932511D01*
X157579926Y-56837692D01*
X157543709Y-56730953D01*
X157526581Y-56629974D01*
X157522121Y-56539134D01*
X157522121Y-55717501D01*
X157523730Y-55690146D01*
X157944173Y-55690146D01*
X157944173Y-56566489D01*
X157956281Y-56665655D01*
X158007431Y-56757365D01*
X158098613Y-56808812D01*
X158197208Y-56820990D01*
X158295803Y-56808812D01*
X158386985Y-56757365D01*
X158438136Y-56665655D01*
X158450244Y-56566489D01*
X158450244Y-55690146D01*
X158438136Y-55590980D01*
X158386985Y-55499270D01*
X158295803Y-55447823D01*
X158197208Y-55435645D01*
X158098613Y-55447823D01*
X158007431Y-55499270D01*
X157956281Y-55590980D01*
X157944173Y-55690146D01*
X157523730Y-55690146D01*
X157528544Y-55608279D01*
X157547812Y-55508124D01*
X157586528Y-55402737D01*
X157642727Y-55309692D01*
X157704815Y-55239762D01*
X157790820Y-55171812D01*
X157888981Y-55120551D01*
X157982793Y-55089896D01*
X158085536Y-55071504D01*
X158197208Y-55065373D01*
X158308881Y-55071504D01*
G37*
G36*
X159250872Y-57160000D02*
G01*
X159059874Y-55096636D01*
X159394487Y-55096636D01*
X159498534Y-56478073D01*
X159504649Y-56576669D01*
X159505373Y-56589937D01*
X159511187Y-56692114D01*
X159513677Y-56740390D01*
X159517644Y-56839797D01*
X159518073Y-56880097D01*
X159527416Y-56778248D01*
X159530774Y-56740390D01*
X159540181Y-56640333D01*
X159544940Y-56589937D01*
X159553827Y-56491237D01*
X159554710Y-56478073D01*
X159717864Y-55096636D01*
X160038799Y-55096636D01*
X160196580Y-56478073D01*
X160207523Y-56576669D01*
X160208792Y-56589937D01*
X160218830Y-56687350D01*
X160224424Y-56740390D01*
X160234898Y-56839797D01*
X160238590Y-56880097D01*
X160242711Y-56778981D01*
X160243963Y-56741367D01*
X160248441Y-56642592D01*
X160251290Y-56592868D01*
X160257318Y-56494993D01*
X160258129Y-56481981D01*
X160353872Y-55096636D01*
X160691416Y-55096636D01*
X160486252Y-57160000D01*
X160047103Y-57160000D01*
X159909351Y-55800544D01*
X159901623Y-55699243D01*
X159899581Y-55675980D01*
X159891414Y-55576833D01*
X159886880Y-55514780D01*
X159879617Y-55412919D01*
X159875645Y-55366280D01*
X159870230Y-55464176D01*
X159866852Y-55514780D01*
X159859945Y-55617133D01*
X159855617Y-55675980D01*
X159847557Y-55774990D01*
X159844870Y-55800544D01*
X159692951Y-57160000D01*
X159250872Y-57160000D01*
G37*
G36*
X160935170Y-57160000D02*
G01*
X160935170Y-55096636D01*
X162201325Y-55096636D01*
X162201325Y-55466908D01*
X161348918Y-55466908D01*
X161348918Y-55909476D01*
X162102651Y-55909476D01*
X162102651Y-56279748D01*
X161348918Y-56279748D01*
X161348918Y-56789727D01*
X162201325Y-56789727D01*
X162201325Y-57160000D01*
X160935170Y-57160000D01*
G37*
G36*
X163338490Y-55101399D02*
G01*
X163437072Y-55115687D01*
X163539146Y-55143147D01*
X163612072Y-55172840D01*
X163705457Y-55226506D01*
X163784721Y-55292862D01*
X163849865Y-55371907D01*
X163861200Y-55389239D01*
X163908083Y-55481870D01*
X163937602Y-55584519D01*
X163949323Y-55685468D01*
X163950104Y-55720921D01*
X163942415Y-55829744D01*
X163919347Y-55931998D01*
X163880900Y-56027683D01*
X163852896Y-56078004D01*
X163792806Y-56159603D01*
X163721897Y-56227446D01*
X163640170Y-56281533D01*
X163590090Y-56305638D01*
X163977948Y-57160000D01*
X163519748Y-57160000D01*
X163187578Y-56373538D01*
X162990718Y-56373538D01*
X162990718Y-57160000D01*
X162574040Y-57160000D01*
X162574040Y-56003265D01*
X162990718Y-56003265D01*
X163232519Y-56003265D01*
X163336344Y-55991898D01*
X163430096Y-55950532D01*
X163450383Y-55934389D01*
X163508635Y-55851224D01*
X163527977Y-55748191D01*
X163528053Y-55740460D01*
X163513186Y-55637891D01*
X163464264Y-55552690D01*
X163450383Y-55538715D01*
X163364073Y-55487174D01*
X163266697Y-55468030D01*
X163232519Y-55466908D01*
X162990718Y-55466908D01*
X162990718Y-56003265D01*
X162574040Y-56003265D01*
X162574040Y-55096636D01*
X163232519Y-55096636D01*
X163338490Y-55101399D01*
G37*
G36*
X166595254Y-57191263D02*
G01*
X166490260Y-57186469D01*
X166392166Y-57172090D01*
X166290058Y-57144453D01*
X166216678Y-57114570D01*
X166131485Y-57066408D01*
X166050332Y-57001111D01*
X165983394Y-56923411D01*
X165966085Y-56897683D01*
X165919459Y-56804937D01*
X165890102Y-56702556D01*
X165878446Y-56602173D01*
X165877669Y-56566978D01*
X166288485Y-56566978D01*
X166306732Y-56665317D01*
X166366419Y-56747733D01*
X166371528Y-56752114D01*
X166462045Y-56801552D01*
X166560984Y-56819914D01*
X166595254Y-56820990D01*
X166697182Y-56810026D01*
X166789946Y-56770127D01*
X166810188Y-56754556D01*
X166870791Y-56671425D01*
X166887857Y-56577236D01*
X166869947Y-56479774D01*
X166837055Y-56420432D01*
X166760022Y-56354421D01*
X166688066Y-56328108D01*
X166437473Y-56269002D01*
X166336454Y-56239139D01*
X166244972Y-56199131D01*
X166152098Y-56140986D01*
X166071682Y-56069591D01*
X166053524Y-56049672D01*
X165991333Y-55964125D01*
X165946912Y-55870642D01*
X165920259Y-55769220D01*
X165911374Y-55659860D01*
X165917643Y-55560003D01*
X165940800Y-55454095D01*
X165981022Y-55359594D01*
X166038307Y-55276500D01*
X166089672Y-55224131D01*
X166174155Y-55162271D01*
X166271167Y-55115605D01*
X166380708Y-55084132D01*
X166484572Y-55069249D01*
X166578157Y-55065373D01*
X166689830Y-55071057D01*
X166792572Y-55088110D01*
X166886384Y-55116532D01*
X166984545Y-55164060D01*
X167070551Y-55227062D01*
X167141737Y-55303200D01*
X167195439Y-55390138D01*
X167231657Y-55487874D01*
X167250390Y-55596410D01*
X167253244Y-55663279D01*
X166842428Y-55663279D01*
X166822576Y-55562850D01*
X166772086Y-55496217D01*
X166682321Y-55448954D01*
X166578157Y-55435645D01*
X166476391Y-55448740D01*
X166389602Y-55495240D01*
X166333316Y-55579379D01*
X166322191Y-55653021D01*
X166345106Y-55749888D01*
X166413852Y-55819511D01*
X166516120Y-55859162D01*
X166775017Y-55918269D01*
X166876203Y-55947785D01*
X166967759Y-55989315D01*
X167049684Y-56042860D01*
X167131521Y-56118766D01*
X167158967Y-56151277D01*
X167214355Y-56233145D01*
X167256139Y-56321886D01*
X167284319Y-56417499D01*
X167298895Y-56519984D01*
X167301116Y-56581632D01*
X167294315Y-56681354D01*
X167270807Y-56783726D01*
X167230507Y-56877225D01*
X167215143Y-56903545D01*
X167154511Y-56983744D01*
X167079473Y-57051540D01*
X166990029Y-57106934D01*
X166970411Y-57116524D01*
X166876550Y-57152653D01*
X166773571Y-57176957D01*
X166674377Y-57188635D01*
X166595254Y-57191263D01*
G37*
G36*
X168267829Y-57191263D02*
G01*
X168155361Y-57185303D01*
X168052064Y-57167426D01*
X167957937Y-57137630D01*
X167859712Y-57087805D01*
X167773970Y-57021758D01*
X167703355Y-56941426D01*
X167650084Y-56849172D01*
X167614157Y-56744997D01*
X167597167Y-56646216D01*
X167592742Y-56557208D01*
X167592742Y-55096636D01*
X168014794Y-55096636D01*
X168014794Y-56552323D01*
X168027416Y-56654424D01*
X168072754Y-56742718D01*
X168080739Y-56751625D01*
X168166385Y-56805749D01*
X168267829Y-56820990D01*
X168367492Y-56805749D01*
X168453454Y-56751625D01*
X168504012Y-56667117D01*
X168520601Y-56568329D01*
X168520865Y-56552323D01*
X168520865Y-55096636D01*
X168942916Y-55096636D01*
X168942916Y-56557208D01*
X168936528Y-56662343D01*
X168917363Y-56759029D01*
X168878854Y-56861150D01*
X168822955Y-56951771D01*
X168761200Y-57020293D01*
X168675648Y-57086911D01*
X168577567Y-57137167D01*
X168483526Y-57167220D01*
X168380280Y-57185252D01*
X168267829Y-57191263D01*
G37*
G36*
X170093270Y-55101765D02*
G01*
X170191364Y-55117152D01*
X170293472Y-55146725D01*
X170366852Y-55178702D01*
X170452006Y-55229728D01*
X170533026Y-55298478D01*
X170599735Y-55379918D01*
X170616957Y-55406824D01*
X170663840Y-55503377D01*
X170691189Y-55598757D01*
X170704472Y-55702175D01*
X170705861Y-55750718D01*
X170698752Y-55856407D01*
X170677422Y-55954755D01*
X170641874Y-56045760D01*
X170615980Y-56093147D01*
X170552887Y-56179214D01*
X170475960Y-56252401D01*
X170394898Y-56307257D01*
X170365387Y-56323224D01*
X170270779Y-56362658D01*
X170167207Y-56389186D01*
X170067617Y-56401933D01*
X169988276Y-56404801D01*
X169709839Y-56404801D01*
X169709839Y-57160000D01*
X169287787Y-57160000D01*
X169287787Y-56034528D01*
X169709839Y-56034528D01*
X169988276Y-56034528D01*
X170089106Y-56021226D01*
X170177316Y-55977148D01*
X170203698Y-55953928D01*
X170261200Y-55869135D01*
X170283106Y-55773338D01*
X170283810Y-55750718D01*
X170268476Y-55651476D01*
X170218015Y-55562990D01*
X170203698Y-55547508D01*
X170116465Y-55489656D01*
X170013161Y-55467616D01*
X169988276Y-55466908D01*
X169709839Y-55466908D01*
X169709839Y-56034528D01*
X169287787Y-56034528D01*
X169287787Y-55096636D01*
X169988276Y-55096636D01*
X170093270Y-55101765D01*
G37*
G36*
X171771707Y-55101765D02*
G01*
X171869801Y-55117152D01*
X171971909Y-55146725D01*
X172045289Y-55178702D01*
X172130443Y-55229728D01*
X172211463Y-55298478D01*
X172278172Y-55379918D01*
X172295394Y-55406824D01*
X172342277Y-55503377D01*
X172369625Y-55598757D01*
X172382909Y-55702175D01*
X172384298Y-55750718D01*
X172377188Y-55856407D01*
X172355859Y-55954755D01*
X172320310Y-56045760D01*
X172294417Y-56093147D01*
X172231324Y-56179214D01*
X172154397Y-56252401D01*
X172073335Y-56307257D01*
X172043824Y-56323224D01*
X171949216Y-56362658D01*
X171845643Y-56389186D01*
X171746053Y-56401933D01*
X171666713Y-56404801D01*
X171388276Y-56404801D01*
X171388276Y-57160000D01*
X170966224Y-57160000D01*
X170966224Y-56034528D01*
X171388276Y-56034528D01*
X171666713Y-56034528D01*
X171767543Y-56021226D01*
X171855752Y-55977148D01*
X171882135Y-55953928D01*
X171939637Y-55869135D01*
X171961542Y-55773338D01*
X171962247Y-55750718D01*
X171946913Y-55651476D01*
X171896452Y-55562990D01*
X171882135Y-55547508D01*
X171794902Y-55489656D01*
X171691598Y-55467616D01*
X171666713Y-55466908D01*
X171388276Y-55466908D01*
X171388276Y-56034528D01*
X170966224Y-56034528D01*
X170966224Y-55096636D01*
X171666713Y-55096636D01*
X171771707Y-55101765D01*
G37*
G36*
X172782414Y-57160000D02*
G01*
X172782414Y-55096636D01*
X173204466Y-55096636D01*
X173204466Y-56789727D01*
X174034891Y-56789727D01*
X174034891Y-57160000D01*
X172782414Y-57160000D01*
G37*
G36*
X174770551Y-57160000D02*
G01*
X174770551Y-56431179D01*
X174179483Y-55096636D01*
X174621563Y-55096636D01*
X174880460Y-55724340D01*
X174917096Y-55821427D01*
X174947007Y-55917547D01*
X174948848Y-55924131D01*
X174974005Y-56019630D01*
X174989881Y-56095101D01*
X175012550Y-55997633D01*
X175030914Y-55924131D01*
X175058141Y-55827681D01*
X175091678Y-55730243D01*
X175093928Y-55724340D01*
X175344521Y-55096636D01*
X175783670Y-55096636D01*
X175192602Y-56431179D01*
X175192602Y-57160000D01*
X174770551Y-57160000D01*
G37*
D11*
G36*
X205047263Y-98065562D02*
G01*
X205042408Y-98164999D01*
X205025342Y-98269349D01*
X204995989Y-98365738D01*
X204969593Y-98425576D01*
X204914686Y-98515631D01*
X204847663Y-98592233D01*
X204768522Y-98655384D01*
X204751240Y-98666399D01*
X204658781Y-98711479D01*
X204557258Y-98739863D01*
X204458138Y-98751133D01*
X204423466Y-98751884D01*
X203545169Y-98751884D01*
X203442339Y-98745122D01*
X203337601Y-98721747D01*
X203242881Y-98681676D01*
X203216418Y-98666399D01*
X203135417Y-98605940D01*
X203066438Y-98532028D01*
X203009480Y-98444663D01*
X202999531Y-98425576D01*
X202961749Y-98334493D01*
X202936333Y-98235450D01*
X202923281Y-98128447D01*
X202921373Y-98065562D01*
X202926258Y-97964934D01*
X202943431Y-97859902D01*
X202972969Y-97763525D01*
X202999531Y-97704082D01*
X203054084Y-97614800D01*
X203120660Y-97538684D01*
X203199256Y-97475734D01*
X203216418Y-97464724D01*
X203308391Y-97419387D01*
X203410286Y-97390841D01*
X203510475Y-97379507D01*
X203545658Y-97378751D01*
X203545658Y-97800803D01*
X203448405Y-97814080D01*
X203360732Y-97865900D01*
X203356614Y-97870168D01*
X203305920Y-97959617D01*
X203291708Y-98057711D01*
X203291645Y-98065562D01*
X203304080Y-98165232D01*
X203348746Y-98252121D01*
X203356614Y-98260956D01*
X203442462Y-98314699D01*
X203546146Y-98329833D01*
X204422489Y-98329833D01*
X204524392Y-98314699D01*
X204610556Y-98260956D01*
X204662393Y-98171507D01*
X204676926Y-98073413D01*
X204676990Y-98065562D01*
X204664275Y-97965892D01*
X204618601Y-97879002D01*
X204610556Y-97870168D01*
X204524010Y-97816044D01*
X204422001Y-97800803D01*
X204422001Y-97378751D01*
X204523804Y-97385552D01*
X204628218Y-97409060D01*
X204723473Y-97449360D01*
X204750263Y-97464724D01*
X204832085Y-97525041D01*
X204901694Y-97598524D01*
X204959091Y-97685173D01*
X204969105Y-97704082D01*
X205006886Y-97794689D01*
X205032303Y-97893951D01*
X205045354Y-98001868D01*
X205047263Y-98065562D01*
G37*
G36*
X205016000Y-97028507D02*
G01*
X204645727Y-97028507D01*
X204645727Y-96510712D01*
X203403997Y-96510712D01*
X203780131Y-97034369D01*
X203314115Y-97034369D01*
X202952636Y-96553210D01*
X202952636Y-96088660D01*
X204645727Y-96088660D01*
X204645727Y-95677844D01*
X205016000Y-95677844D01*
X205016000Y-97028507D01*
G37*
X204194533Y-102557584D02*
X204194533Y-103319489D01*
X203813580Y-102938536D02*
X204575485Y-102938536D01*
X204194533Y-90557584D02*
X204194533Y-91319489D01*
G36*
X187866631Y-84905931D02*
G01*
X187864204Y-84955649D01*
X187855671Y-85007824D01*
X187840994Y-85056019D01*
X187827796Y-85085938D01*
X187800343Y-85130965D01*
X187766831Y-85169266D01*
X187727261Y-85200842D01*
X187718620Y-85206349D01*
X187672390Y-85228889D01*
X187621629Y-85243081D01*
X187572069Y-85248716D01*
X187554733Y-85249092D01*
X187115584Y-85249092D01*
X187064169Y-85245711D01*
X187011800Y-85234023D01*
X186964440Y-85213988D01*
X186951209Y-85206349D01*
X186910708Y-85176120D01*
X186876219Y-85139164D01*
X186847740Y-85095481D01*
X186842765Y-85085938D01*
X186823874Y-85040396D01*
X186811166Y-84990875D01*
X186804640Y-84937373D01*
X186803686Y-84905931D01*
X186806129Y-84855617D01*
X186814715Y-84803101D01*
X186829484Y-84754912D01*
X186842765Y-84725191D01*
X186870042Y-84680550D01*
X186903330Y-84642492D01*
X186942628Y-84611017D01*
X186951209Y-84605512D01*
X186997195Y-84582843D01*
X187048143Y-84568570D01*
X187098237Y-84562903D01*
X187115829Y-84562525D01*
X187115829Y-84773551D01*
X187067202Y-84780190D01*
X187023366Y-84806100D01*
X187021307Y-84808234D01*
X186995960Y-84852958D01*
X186988854Y-84902005D01*
X186988822Y-84905931D01*
X186995040Y-84955766D01*
X187017373Y-84999210D01*
X187021307Y-85003628D01*
X187064231Y-85030499D01*
X187116073Y-85038066D01*
X187554244Y-85038066D01*
X187605196Y-85030499D01*
X187648278Y-85003628D01*
X187674196Y-84958903D01*
X187681463Y-84909856D01*
X187681495Y-84905931D01*
X187675137Y-84856096D01*
X187652300Y-84812651D01*
X187648278Y-84808234D01*
X187605005Y-84781172D01*
X187554000Y-84773551D01*
X187554000Y-84562525D01*
X187604902Y-84565926D01*
X187657109Y-84577680D01*
X187704736Y-84597830D01*
X187718131Y-84605512D01*
X187759042Y-84635670D01*
X187793847Y-84672412D01*
X187822545Y-84715736D01*
X187827552Y-84725191D01*
X187846443Y-84770494D01*
X187859151Y-84820125D01*
X187865677Y-84874084D01*
X187866631Y-84905931D01*
G37*
G36*
X187851000Y-84408652D02*
G01*
X187669283Y-84408652D01*
X187271900Y-84018841D01*
X187231633Y-83987671D01*
X187186548Y-83968046D01*
X187136645Y-83959965D01*
X187126087Y-83959734D01*
X187074953Y-83967301D01*
X187030348Y-83992053D01*
X187027901Y-83994172D01*
X186998592Y-84034106D01*
X186988822Y-84085030D01*
X186997677Y-84134293D01*
X187026643Y-84176310D01*
X187029122Y-84178575D01*
X187072002Y-84204346D01*
X187121223Y-84214164D01*
X187132926Y-84214479D01*
X187132926Y-84425505D01*
X187079647Y-84422008D01*
X187030272Y-84411517D01*
X186979988Y-84391658D01*
X186961223Y-84381297D01*
X186918352Y-84350223D01*
X186881634Y-84312566D01*
X186851070Y-84268325D01*
X186845696Y-84258687D01*
X186825388Y-84212791D01*
X186811727Y-84163032D01*
X186804712Y-84109408D01*
X186803686Y-84077947D01*
X186806797Y-84023766D01*
X186816128Y-83973602D01*
X186833793Y-83922578D01*
X186843009Y-83903558D01*
X186870510Y-83860043D01*
X186904165Y-83822920D01*
X186943974Y-83792189D01*
X186952674Y-83786810D01*
X186998937Y-83764528D01*
X187049494Y-83750498D01*
X187098665Y-83744927D01*
X187115829Y-83744556D01*
X187166948Y-83747991D01*
X187217113Y-83758295D01*
X187266324Y-83775468D01*
X187276052Y-83779727D01*
X187319567Y-83802950D01*
X187362734Y-83833050D01*
X187400813Y-83865580D01*
X187429192Y-83893544D01*
X187665863Y-84138520D01*
X187665863Y-83733321D01*
X187851000Y-83733321D01*
X187851000Y-84408652D01*
G37*
X189427466Y-81196115D02*
X189427466Y-80434211D01*
X189427466Y-88696115D02*
X189427466Y-87934211D01*
X189808419Y-88315163D02*
X189046514Y-88315163D01*
D12*
G36*
X199044285Y-125027050D02*
G01*
X199044285Y-124791927D01*
X199303293Y-124791927D01*
X199303293Y-123951936D01*
X199044285Y-123951936D01*
X199044285Y-123716814D01*
X199830303Y-123716814D01*
X199830303Y-123951936D01*
X199571295Y-123951936D01*
X199571295Y-124791927D01*
X199830303Y-124791927D01*
X199830303Y-125027050D01*
X199044285Y-125027050D01*
G37*
G36*
X200517370Y-125046902D02*
G01*
X200454227Y-125043819D01*
X200387966Y-125032982D01*
X200326758Y-125014343D01*
X200288761Y-124997582D01*
X200231576Y-124962716D01*
X200182934Y-124920156D01*
X200142833Y-124869902D01*
X200135838Y-124858927D01*
X200107213Y-124800216D01*
X200089189Y-124735749D01*
X200082033Y-124672807D01*
X200081555Y-124650791D01*
X200081555Y-124093072D01*
X200085849Y-124027775D01*
X200100692Y-123961267D01*
X200126137Y-123901119D01*
X200135838Y-123884315D01*
X200174230Y-123832880D01*
X200221164Y-123789078D01*
X200276641Y-123752909D01*
X200288761Y-123746592D01*
X200346599Y-123722601D01*
X200409491Y-123706461D01*
X200477438Y-123698173D01*
X200517370Y-123696962D01*
X200581269Y-123700063D01*
X200647964Y-123710969D01*
X200709164Y-123729725D01*
X200746910Y-123746592D01*
X200803604Y-123781233D01*
X200851937Y-123823509D01*
X200891911Y-123873418D01*
X200898902Y-123884315D01*
X200927691Y-123942718D01*
X200945818Y-124007421D01*
X200953015Y-124071042D01*
X200953495Y-124093382D01*
X200685492Y-124093382D01*
X200677061Y-124031627D01*
X200644155Y-123975955D01*
X200641446Y-123973339D01*
X200584645Y-123941149D01*
X200522356Y-123932125D01*
X200517370Y-123932084D01*
X200454080Y-123939981D01*
X200398905Y-123968344D01*
X200393295Y-123973339D01*
X200359168Y-124027853D01*
X200349558Y-124093693D01*
X200349558Y-124650171D01*
X200359168Y-124714878D01*
X200393295Y-124769593D01*
X200450095Y-124802509D01*
X200512385Y-124811738D01*
X200517370Y-124811779D01*
X200580661Y-124803704D01*
X200635835Y-124774702D01*
X200641446Y-124769593D01*
X200675814Y-124714636D01*
X200685492Y-124649860D01*
X200953495Y-124649860D01*
X200949177Y-124714506D01*
X200934249Y-124780808D01*
X200908658Y-124841295D01*
X200898902Y-124858307D01*
X200860601Y-124910264D01*
X200813939Y-124954465D01*
X200758917Y-124990913D01*
X200746910Y-124997271D01*
X200689374Y-125021263D01*
X200626343Y-125037402D01*
X200557816Y-125045690D01*
X200517370Y-125046902D01*
G37*
G36*
X201175900Y-125027050D02*
G01*
X201175900Y-124791927D01*
X201504700Y-124791927D01*
X201504700Y-124003428D01*
X201172178Y-124242273D01*
X201172178Y-123946353D01*
X201477713Y-123716814D01*
X201772703Y-123716814D01*
X201772703Y-124791927D01*
X202033571Y-124791927D01*
X202033571Y-125027050D01*
X201175900Y-125027050D01*
G37*
G36*
X193206117Y-108100957D02*
G01*
X193269936Y-108116394D01*
X193328242Y-108142857D01*
X193344659Y-108152946D01*
X193394828Y-108192398D01*
X193437546Y-108240574D01*
X193472811Y-108297474D01*
X193478970Y-108309901D01*
X193502212Y-108369233D01*
X193517847Y-108433816D01*
X193525359Y-108495630D01*
X193527050Y-108544714D01*
X193527050Y-108980839D01*
X192216814Y-108980839D01*
X192216814Y-108564566D01*
X192435186Y-108564566D01*
X192435186Y-108721832D01*
X192732967Y-108721832D01*
X192732967Y-108564566D01*
X192731624Y-108553709D01*
X192951340Y-108553709D01*
X192951340Y-108721832D01*
X193308677Y-108721832D01*
X193308677Y-108553709D01*
X193300895Y-108488832D01*
X193272579Y-108429368D01*
X193261528Y-108416296D01*
X193209352Y-108380227D01*
X193146265Y-108366487D01*
X193130939Y-108366045D01*
X193068979Y-108374339D01*
X193011991Y-108404519D01*
X192999419Y-108416296D01*
X192964909Y-108471362D01*
X192952091Y-108532428D01*
X192951340Y-108553709D01*
X192731624Y-108553709D01*
X192725249Y-108502158D01*
X192695124Y-108443936D01*
X192692643Y-108441111D01*
X192637997Y-108404993D01*
X192583146Y-108396444D01*
X192520643Y-108407611D01*
X192473960Y-108441111D01*
X192443706Y-108498200D01*
X192435224Y-108559675D01*
X192435186Y-108564566D01*
X192216814Y-108564566D01*
X192216814Y-108560844D01*
X192219411Y-108497759D01*
X192228544Y-108431702D01*
X192244253Y-108370846D01*
X192258379Y-108333165D01*
X192287568Y-108276502D01*
X192327093Y-108223898D01*
X192374389Y-108181483D01*
X192428723Y-108150402D01*
X192489360Y-108132222D01*
X192549956Y-108126890D01*
X192615041Y-108132827D01*
X192678448Y-108153073D01*
X192733277Y-108187687D01*
X192776818Y-108233524D01*
X192808348Y-108293225D01*
X192821061Y-108344642D01*
X192824783Y-108344642D01*
X192838209Y-108283854D01*
X192868539Y-108225971D01*
X192876584Y-108215294D01*
X192920087Y-108170765D01*
X192972971Y-108135973D01*
X192989803Y-108127821D01*
X193048467Y-108107536D01*
X193112557Y-108097593D01*
X193143967Y-108096492D01*
X193206117Y-108100957D01*
G37*
G36*
X193527050Y-107314507D02*
G01*
X193027646Y-107525435D01*
X193027646Y-107650441D01*
X193527050Y-107650441D01*
X193527050Y-107915032D01*
X192216814Y-107915032D01*
X192216814Y-107496898D01*
X192451936Y-107496898D01*
X192451936Y-107650441D01*
X192792523Y-107650441D01*
X192792523Y-107496898D01*
X192785305Y-107430969D01*
X192759038Y-107371436D01*
X192748787Y-107358553D01*
X192695977Y-107321564D01*
X192630551Y-107309282D01*
X192625642Y-107309234D01*
X192560511Y-107318674D01*
X192506408Y-107349739D01*
X192497534Y-107358553D01*
X192464805Y-107413361D01*
X192452649Y-107475194D01*
X192451936Y-107496898D01*
X192216814Y-107496898D01*
X192219838Y-107429606D01*
X192228911Y-107367006D01*
X192246348Y-107302189D01*
X192265203Y-107255881D01*
X192299281Y-107196582D01*
X192341417Y-107146249D01*
X192391611Y-107104882D01*
X192402616Y-107097685D01*
X192461437Y-107067914D01*
X192526619Y-107049170D01*
X192590722Y-107041727D01*
X192613234Y-107041231D01*
X192682337Y-107046113D01*
X192747269Y-107060762D01*
X192808029Y-107085175D01*
X192839982Y-107102958D01*
X192891798Y-107141115D01*
X192934878Y-107186142D01*
X192969223Y-107238039D01*
X192984530Y-107269840D01*
X193527050Y-107023550D01*
X193527050Y-107314507D01*
G37*
G36*
X193527050Y-106824099D02*
G01*
X193291927Y-106824099D01*
X193291927Y-106495299D01*
X192503428Y-106495299D01*
X192742273Y-106827821D01*
X192446353Y-106827821D01*
X192216814Y-106522286D01*
X192216814Y-106227296D01*
X193291927Y-106227296D01*
X193291927Y-105966428D01*
X193527050Y-105966428D01*
X193527050Y-106824099D01*
G37*
D13*
G36*
X206915000Y-118773551D02*
G01*
X206521769Y-118939636D01*
X206521769Y-119038066D01*
X206915000Y-119038066D01*
X206915000Y-119246405D01*
X205883318Y-119246405D01*
X205883318Y-118917166D01*
X206068454Y-118917166D01*
X206068454Y-119038066D01*
X206336632Y-119038066D01*
X206336632Y-118917166D01*
X206330949Y-118865253D01*
X206310266Y-118818377D01*
X206302194Y-118808234D01*
X206260612Y-118779108D01*
X206209095Y-118769437D01*
X206205230Y-118769399D01*
X206153945Y-118776832D01*
X206111345Y-118801293D01*
X206104357Y-118808234D01*
X206078587Y-118851389D01*
X206069015Y-118900076D01*
X206068454Y-118917166D01*
X205883318Y-118917166D01*
X205885699Y-118864180D01*
X205892843Y-118814889D01*
X205906573Y-118763852D01*
X205921420Y-118727389D01*
X205948253Y-118680697D01*
X205981431Y-118641065D01*
X206020953Y-118608493D01*
X206029619Y-118602825D01*
X206075935Y-118579384D01*
X206127259Y-118564624D01*
X206177734Y-118558764D01*
X206195460Y-118558373D01*
X206249872Y-118562218D01*
X206300999Y-118573752D01*
X206348841Y-118592975D01*
X206374002Y-118606977D01*
X206414801Y-118637022D01*
X206448723Y-118672477D01*
X206475766Y-118713340D01*
X206487819Y-118738380D01*
X206915000Y-118544451D01*
X206915000Y-118773551D01*
G37*
G36*
X206915000Y-118387403D02*
G01*
X206729863Y-118387403D01*
X206729863Y-118128506D01*
X206108998Y-118128506D01*
X206297065Y-118390334D01*
X206064057Y-118390334D01*
X205883318Y-118149755D01*
X205883318Y-117917480D01*
X206729863Y-117917480D01*
X206729863Y-117712072D01*
X206915000Y-117712072D01*
X206915000Y-118387403D01*
G37*
G36*
X167317117Y-124885882D02*
G01*
X167366164Y-124893576D01*
X167417218Y-124908362D01*
X167453908Y-124924351D01*
X167496485Y-124949864D01*
X167536995Y-124984239D01*
X167570350Y-125024959D01*
X167578961Y-125038412D01*
X167602402Y-125086688D01*
X167616076Y-125134378D01*
X167622718Y-125186087D01*
X167623413Y-125210359D01*
X167619858Y-125263203D01*
X167609193Y-125312377D01*
X167591419Y-125357880D01*
X167578472Y-125381573D01*
X167546926Y-125424607D01*
X167508462Y-125461200D01*
X167467931Y-125488628D01*
X167453176Y-125496612D01*
X167405872Y-125516329D01*
X167354085Y-125529593D01*
X167304290Y-125535966D01*
X167264620Y-125537400D01*
X167125402Y-125537400D01*
X167125402Y-125915000D01*
X166914376Y-125915000D01*
X166914376Y-125352264D01*
X167125402Y-125352264D01*
X167264620Y-125352264D01*
X167315035Y-125345613D01*
X167359140Y-125323574D01*
X167372331Y-125311964D01*
X167401082Y-125269567D01*
X167412035Y-125221669D01*
X167412387Y-125210359D01*
X167404720Y-125160738D01*
X167379490Y-125116495D01*
X167372331Y-125108754D01*
X167328714Y-125079828D01*
X167277063Y-125068808D01*
X167264620Y-125068454D01*
X167125402Y-125068454D01*
X167125402Y-125352264D01*
X166914376Y-125352264D01*
X166914376Y-124883318D01*
X167264620Y-124883318D01*
X167317117Y-124885882D01*
G37*
G36*
X168138670Y-124870752D02*
G01*
X168190041Y-124879948D01*
X168236947Y-124895275D01*
X168286027Y-124920906D01*
X168329030Y-124954881D01*
X168364624Y-124996114D01*
X168391474Y-125043518D01*
X168409583Y-125097093D01*
X168418147Y-125147926D01*
X168420377Y-125193750D01*
X168420377Y-125604567D01*
X168417166Y-125658706D01*
X168407532Y-125708465D01*
X168388174Y-125760984D01*
X168360074Y-125807541D01*
X168329030Y-125842704D01*
X168286027Y-125876964D01*
X168236947Y-125902810D01*
X168190041Y-125918266D01*
X168138670Y-125927540D01*
X168082834Y-125930631D01*
X168026997Y-125927540D01*
X167975626Y-125918266D01*
X167928720Y-125902810D01*
X167879640Y-125876964D01*
X167836637Y-125842704D01*
X167801044Y-125801255D01*
X167774193Y-125753846D01*
X167756084Y-125700476D01*
X167747520Y-125649987D01*
X167745290Y-125604567D01*
X167745290Y-125193750D01*
X167746094Y-125180073D01*
X167956316Y-125180073D01*
X167956316Y-125618244D01*
X167962370Y-125667827D01*
X167987945Y-125713682D01*
X168033536Y-125739406D01*
X168082834Y-125745495D01*
X168132131Y-125739406D01*
X168177722Y-125713682D01*
X168203297Y-125667827D01*
X168209351Y-125618244D01*
X168209351Y-125180073D01*
X168203297Y-125130490D01*
X168177722Y-125084635D01*
X168132131Y-125058911D01*
X168082834Y-125052822D01*
X168033536Y-125058911D01*
X167987945Y-125084635D01*
X167962370Y-125130490D01*
X167956316Y-125180073D01*
X167746094Y-125180073D01*
X167748501Y-125139139D01*
X167758136Y-125089062D01*
X167777493Y-125036368D01*
X167805593Y-124989846D01*
X167836637Y-124954881D01*
X167879640Y-124920906D01*
X167928720Y-124895275D01*
X167975626Y-124879948D01*
X168026997Y-124870752D01*
X168082834Y-124867686D01*
X168138670Y-124870752D01*
G37*
G36*
X168816539Y-125915000D02*
G01*
X168816539Y-125068454D01*
X168556176Y-125068454D01*
X168556176Y-124883318D01*
X169287928Y-124883318D01*
X169287928Y-125068454D01*
X169027565Y-125068454D01*
X169027565Y-125915000D01*
X168816539Y-125915000D01*
G37*
G36*
X169451815Y-125915000D02*
G01*
X169451815Y-125729863D01*
X169710712Y-125729863D01*
X169710712Y-125108998D01*
X169448884Y-125297065D01*
X169448884Y-125064057D01*
X169689463Y-124883318D01*
X169921738Y-124883318D01*
X169921738Y-125729863D01*
X170127146Y-125729863D01*
X170127146Y-125915000D01*
X169451815Y-125915000D01*
G37*
G36*
X139954641Y-92330000D02*
G01*
X139954641Y-90636908D01*
X139433915Y-90636908D01*
X139433915Y-90266636D01*
X140897418Y-90266636D01*
X140897418Y-90636908D01*
X140376693Y-90636908D01*
X140376693Y-92330000D01*
X139954641Y-92330000D01*
G37*
G36*
X141225192Y-92330000D02*
G01*
X141225192Y-91959727D01*
X141742987Y-91959727D01*
X141742987Y-90717997D01*
X141219330Y-91094131D01*
X141219330Y-90628115D01*
X141700489Y-90266636D01*
X142165039Y-90266636D01*
X142165039Y-91959727D01*
X142575855Y-91959727D01*
X142575855Y-92330000D01*
X141225192Y-92330000D01*
G37*
D11*
X213436000Y-97253700D02*
G75*
G02*
X194936000Y-97253700I-9250000J0D01*
G01*
X194936000Y-97253700D02*
G75*
G02*
X213436000Y-97253700I9250000J0D01*
G01*
X194436000Y-84500000D02*
G75*
G02*
X184436000Y-84500000I-5000000J0D01*
G01*
X184436000Y-84500000D02*
G75*
G02*
X194436000Y-84500000I5000000J0D01*
G01*
X197616000Y-112303700D02*
X197616000Y-122703700D01*
X202686000Y-112303700D02*
X197616000Y-112303700D01*
X198891000Y-122703700D02*
X197616000Y-121428700D01*
X202686000Y-122703700D02*
X198086000Y-122703700D01*
X202686000Y-112303700D02*
X202686000Y-122703700D01*
D14*
X202936000Y-122953700D02*
X197366000Y-122953700D01*
X202936000Y-112053700D02*
X202936000Y-122953700D01*
X197366000Y-112053700D02*
X202936000Y-112053700D01*
X197366000Y-122953700D02*
X197366000Y-112053700D01*
D11*
X189186000Y-123003700D02*
G75*
G02*
X189186000Y-123103700I0J-50000D01*
G01*
X189186000Y-123103700D02*
G75*
G02*
X189186000Y-123003700I0J50000D01*
G01*
X189186000Y-123103700D02*
X189186000Y-123103700D01*
X189186000Y-123003700D02*
X189186000Y-123003700D01*
D15*
X191186000Y-122503700D02*
X186136000Y-122503700D01*
X191186000Y-92503700D02*
X191186000Y-122503700D01*
X186136000Y-92503700D02*
X191186000Y-92503700D01*
X186136000Y-122503700D02*
X186136000Y-92503700D01*
D16*
G36*
X185242856Y-74747959D02*
G01*
X185608408Y-74963909D01*
X185915749Y-75261223D01*
X186132780Y-75620906D01*
X186133900Y-75623588D01*
X186245994Y-75892655D01*
X194087397Y-75892655D01*
X201928799Y-75892655D01*
X202014519Y-75655603D01*
X202211014Y-75309991D01*
X202513762Y-75019092D01*
X202889270Y-74804988D01*
X203304049Y-74689757D01*
X203500283Y-74676033D01*
X203941617Y-74742686D01*
X204343778Y-74928847D01*
X204680732Y-75213820D01*
X204926451Y-75576911D01*
X205037407Y-75898119D01*
X205070366Y-76352310D01*
X204981626Y-76772486D01*
X204789655Y-77143436D01*
X204512924Y-77449945D01*
X204169903Y-77676801D01*
X203779062Y-77808791D01*
X203358871Y-77830702D01*
X202927800Y-77727320D01*
X202854520Y-77696080D01*
X202652993Y-77574217D01*
X202437188Y-77397777D01*
X202239681Y-77199724D01*
X202093046Y-77013021D01*
X202029859Y-76870633D01*
X202029379Y-76861093D01*
X202017026Y-76844186D01*
X201974883Y-76829120D01*
X201895326Y-76815792D01*
X201770728Y-76804099D01*
X201593464Y-76793937D01*
X201355910Y-76785203D01*
X201050439Y-76777794D01*
X200669427Y-76771607D01*
X200205247Y-76766537D01*
X199650275Y-76762482D01*
X198996886Y-76759338D01*
X198237453Y-76757003D01*
X197364352Y-76755372D01*
X196369957Y-76754342D01*
X195246643Y-76753810D01*
X194102690Y-76753672D01*
X186176002Y-76753672D01*
X186068414Y-76961725D01*
X185877194Y-77221118D01*
X185598834Y-77469056D01*
X185286495Y-77663940D01*
X185060073Y-77750731D01*
X184787978Y-77807942D01*
X184570128Y-77815028D01*
X184326104Y-77771454D01*
X184223430Y-77745148D01*
X184014530Y-77656175D01*
X183775683Y-77507640D01*
X183657610Y-77415749D01*
X183346220Y-77067333D01*
X183158262Y-76678449D01*
X183087583Y-76270270D01*
X183090301Y-76242964D01*
X183968233Y-76242964D01*
X184031643Y-76497381D01*
X184185320Y-76704944D01*
X184402816Y-76847191D01*
X184657685Y-76905661D01*
X184923481Y-76861890D01*
X185132357Y-76735622D01*
X185301822Y-76499483D01*
X185360595Y-76272702D01*
X185361670Y-76255357D01*
X202804850Y-76255357D01*
X202850056Y-76508639D01*
X202980314Y-76724901D01*
X203178684Y-76879914D01*
X203428225Y-76949449D01*
X203711994Y-76909277D01*
X203824600Y-76860557D01*
X204046389Y-76692630D01*
X204158755Y-76459833D01*
X204181921Y-76224255D01*
X204118025Y-75930729D01*
X203938204Y-75708304D01*
X203660257Y-75576018D01*
X203557448Y-75556354D01*
X203348713Y-75543419D01*
X203201980Y-75592400D01*
X203043417Y-75728608D01*
X203037362Y-75734650D01*
X202861639Y-75989284D01*
X202804850Y-76255357D01*
X185361670Y-76255357D01*
X185373531Y-76063967D01*
X185324550Y-75917234D01*
X185188341Y-75758671D01*
X185182299Y-75752616D01*
X184921446Y-75576975D01*
X184638877Y-75523963D01*
X184367775Y-75587649D01*
X184141324Y-75762100D01*
X184021535Y-75960156D01*
X183968233Y-76242964D01*
X183090301Y-76242964D01*
X183128027Y-75863972D01*
X183273440Y-75480732D01*
X183517668Y-75141723D01*
X183854556Y-74868121D01*
X184277949Y-74681102D01*
X184465508Y-74636146D01*
X184851189Y-74632372D01*
X185242856Y-74747959D01*
G37*
G36*
X203816010Y-71279715D02*
G01*
X204163799Y-71405839D01*
X204477452Y-71582373D01*
X204601474Y-71681713D01*
X204868496Y-72022694D01*
X205025776Y-72424707D01*
X205072491Y-72855694D01*
X205007817Y-73283597D01*
X204830930Y-73676359D01*
X204658332Y-73894604D01*
X204316609Y-74176484D01*
X203943405Y-74334730D01*
X203499280Y-74385825D01*
X203482786Y-74385876D01*
X203018455Y-74330101D01*
X202631331Y-74157028D01*
X202305388Y-73858034D01*
X202176273Y-73682928D01*
X201928535Y-73309605D01*
X194055261Y-73309605D01*
X186181987Y-73309605D01*
X186134945Y-73457822D01*
X186020800Y-73666905D01*
X185822351Y-73899948D01*
X185581798Y-74113163D01*
X185374765Y-74246600D01*
X185054163Y-74349836D01*
X184671007Y-74385331D01*
X184286628Y-74353284D01*
X183962360Y-74253894D01*
X183938770Y-74241943D01*
X183567811Y-73975542D01*
X183305867Y-73641945D01*
X183149735Y-73263400D01*
X183096408Y-72863615D01*
X183961295Y-72863615D01*
X183979795Y-72995918D01*
X184110367Y-73248320D01*
X184333331Y-73428780D01*
X184608292Y-73519765D01*
X184894854Y-73503743D01*
X185028268Y-73450980D01*
X185185897Y-73303476D01*
X185314250Y-73075547D01*
X185370037Y-72868001D01*
X202818644Y-72868001D01*
X202845184Y-73090818D01*
X202949005Y-73255711D01*
X203039404Y-73339102D01*
X203319662Y-73498790D01*
X203603304Y-73519165D01*
X203872853Y-73400676D01*
X203972186Y-73315124D01*
X204140824Y-73065275D01*
X204189552Y-72801638D01*
X204135543Y-72550125D01*
X203995968Y-72336651D01*
X203787998Y-72187130D01*
X203528806Y-72127475D01*
X203235562Y-72183600D01*
X203225205Y-72187849D01*
X202991561Y-72329934D01*
X202862505Y-72533156D01*
X202819020Y-72829331D01*
X202818644Y-72868001D01*
X185370037Y-72868001D01*
X185380193Y-72830218D01*
X185383051Y-72776164D01*
X185336280Y-72608835D01*
X185219763Y-72415584D01*
X185176888Y-72363618D01*
X184996157Y-72201365D01*
X184807791Y-72137896D01*
X184710960Y-72132881D01*
X184414131Y-72193457D01*
X184173407Y-72355311D01*
X184014043Y-72588634D01*
X183961295Y-72863615D01*
X183096408Y-72863615D01*
X183096213Y-72862153D01*
X183142097Y-72460451D01*
X183284184Y-72080542D01*
X183519271Y-71744674D01*
X183844155Y-71475092D01*
X184255634Y-71294045D01*
X184367211Y-71266176D01*
X184793718Y-71244073D01*
X185214816Y-71348527D01*
X185600168Y-71564776D01*
X185919438Y-71878055D01*
X186057091Y-72088593D01*
X186253024Y-72448588D01*
X194096621Y-72448588D01*
X201940218Y-72448588D01*
X202033327Y-72223801D01*
X202251363Y-71867331D01*
X202568805Y-71567798D01*
X202948608Y-71350268D01*
X203353728Y-71239812D01*
X203500283Y-71231090D01*
X203816010Y-71279715D01*
G37*
G36*
X186944898Y-68304944D02*
G01*
X186964089Y-70080791D01*
X187823853Y-70080791D01*
X188683616Y-70080791D01*
X188683616Y-70511299D01*
X188683616Y-70941808D01*
X187389839Y-70941808D01*
X186897210Y-70939173D01*
X186533250Y-70930600D01*
X186283208Y-70915082D01*
X186132336Y-70891615D01*
X186065884Y-70859194D01*
X186061327Y-70851291D01*
X186053139Y-70758880D01*
X186046916Y-70541688D01*
X186042793Y-70218427D01*
X186040901Y-69807806D01*
X186041374Y-69328535D01*
X186044345Y-68799327D01*
X186045641Y-68644935D01*
X186064690Y-66529096D01*
X186495198Y-66529096D01*
X186925706Y-66529096D01*
X186944898Y-68304944D01*
G37*
G36*
X191815906Y-68574011D02*
G01*
X191947071Y-69100940D01*
X192066328Y-69588571D01*
X192169194Y-70017885D01*
X192251184Y-70369864D01*
X192307816Y-70625491D01*
X192334603Y-70765745D01*
X192336104Y-70780367D01*
X192328616Y-70869793D01*
X192274616Y-70918215D01*
X192141287Y-70938072D01*
X191910178Y-70941808D01*
X191688291Y-70940163D01*
X191548612Y-70916775D01*
X191464365Y-70843964D01*
X191408772Y-70694046D01*
X191355058Y-70439343D01*
X191337569Y-70349859D01*
X191256493Y-69937288D01*
X190734220Y-69937288D01*
X190211947Y-69937288D01*
X190111482Y-70421610D01*
X190011017Y-70905932D01*
X189562571Y-70927294D01*
X189315709Y-70934126D01*
X189180245Y-70919736D01*
X189124726Y-70876533D01*
X189116645Y-70819667D01*
X189134183Y-70719462D01*
X189182567Y-70498604D01*
X189257433Y-70175554D01*
X189354416Y-69768774D01*
X189469149Y-69296728D01*
X189501439Y-69165960D01*
X190404485Y-69165960D01*
X190469391Y-69198072D01*
X190632247Y-69217318D01*
X190728531Y-69219774D01*
X190931492Y-69209735D01*
X191027276Y-69169669D01*
X191051412Y-69084656D01*
X191051413Y-69084170D01*
X191038123Y-68966448D01*
X191003029Y-68755043D01*
X190953289Y-68485842D01*
X190896064Y-68194735D01*
X190838514Y-67917611D01*
X190787799Y-67690360D01*
X190751080Y-67548871D01*
X190739482Y-67520650D01*
X190719510Y-67577785D01*
X190679857Y-67742987D01*
X190627240Y-67983267D01*
X190568376Y-68265637D01*
X190509981Y-68557110D01*
X190458773Y-68824697D01*
X190421467Y-69035411D01*
X190404780Y-69156263D01*
X190404485Y-69165960D01*
X189501439Y-69165960D01*
X189597268Y-68777876D01*
X189639152Y-68609887D01*
X190159139Y-66529096D01*
X190730841Y-66529096D01*
X191302543Y-66529096D01*
X191815906Y-68574011D01*
G37*
G36*
X193878362Y-66509556D02*
G01*
X194285304Y-66527928D01*
X194580029Y-66550314D01*
X194793817Y-66581823D01*
X194957951Y-66627561D01*
X195103709Y-66692636D01*
X195149173Y-66717047D01*
X195480934Y-66965194D01*
X195697147Y-67271696D01*
X195785322Y-67617884D01*
X195786738Y-67669792D01*
X195743914Y-67951423D01*
X195632127Y-68209839D01*
X195475644Y-68399678D01*
X195361448Y-68464813D01*
X195237461Y-68525350D01*
X195240850Y-68598899D01*
X195375250Y-68700912D01*
X195423628Y-68729203D01*
X195656918Y-68938467D01*
X195806363Y-69230432D01*
X195870029Y-69569970D01*
X195845979Y-69921950D01*
X195732278Y-70251244D01*
X195526992Y-70522722D01*
X195522658Y-70526670D01*
X195326933Y-70670079D01*
X195086214Y-70775853D01*
X194775833Y-70849947D01*
X194371124Y-70898317D01*
X193867656Y-70926198D01*
X192916949Y-70960528D01*
X192916949Y-70152542D01*
X193777966Y-70152542D01*
X194177316Y-70152542D01*
X194427711Y-70139169D01*
X194636562Y-70104893D01*
X194718886Y-70076428D01*
X194880399Y-69917930D01*
X194953424Y-69693890D01*
X194940242Y-69449916D01*
X194843133Y-69231613D01*
X194669407Y-69086843D01*
X194488423Y-69037261D01*
X194241917Y-69007932D01*
X194133347Y-69004520D01*
X193777966Y-69004520D01*
X193777966Y-69578531D01*
X193777966Y-70152542D01*
X192916949Y-70152542D01*
X192916949Y-69578531D01*
X192916949Y-68716699D01*
X192916949Y-68287006D01*
X193777966Y-68287006D01*
X194172599Y-68287006D01*
X194444326Y-68270470D01*
X194621151Y-68212750D01*
X194710735Y-68143503D01*
X194826550Y-67938931D01*
X194854238Y-67752939D01*
X194805912Y-67522352D01*
X194654426Y-67372138D01*
X194390019Y-67295714D01*
X194156634Y-67282486D01*
X193777966Y-67282486D01*
X193777966Y-67784746D01*
X193777966Y-68287006D01*
X192916949Y-68287006D01*
X192916949Y-67784746D01*
X192916949Y-66472870D01*
X193878362Y-66509556D01*
G37*
G36*
X198307981Y-66539236D02*
G01*
X198641995Y-66646186D01*
X198659218Y-66654661D01*
X198948907Y-66854362D01*
X199167802Y-67109826D01*
X199288173Y-67384271D01*
X199302825Y-67508351D01*
X199295876Y-67623443D01*
X199252005Y-67684448D01*
X199136678Y-67708457D01*
X198915359Y-67712562D01*
X198890255Y-67712541D01*
X198651737Y-67705997D01*
X198510607Y-67674695D01*
X198420887Y-67600128D01*
X198355456Y-67497286D01*
X198257075Y-67359527D01*
X198134005Y-67297384D01*
X197928509Y-67282499D01*
X197918130Y-67282486D01*
X197625594Y-67329188D01*
X197440119Y-67466657D01*
X197366614Y-67690939D01*
X197365537Y-67727796D01*
X197384440Y-67869432D01*
X197458216Y-67973799D01*
X197612464Y-68058881D01*
X197872783Y-68142665D01*
X198006996Y-68178461D01*
X198485365Y-68326932D01*
X198842004Y-68501353D01*
X199098440Y-68719302D01*
X199276202Y-68998355D01*
X199382907Y-69301877D01*
X199429873Y-69728457D01*
X199344651Y-70123912D01*
X199136941Y-70466242D01*
X198816444Y-70733447D01*
X198730969Y-70780367D01*
X198355779Y-70904766D01*
X197920549Y-70948783D01*
X197483909Y-70912148D01*
X197104486Y-70794596D01*
X197090605Y-70787849D01*
X196774597Y-70557854D01*
X196534573Y-70237258D01*
X196406954Y-69883475D01*
X196364605Y-69650282D01*
X196829195Y-69650282D01*
X197090224Y-69657516D01*
X197235074Y-69683353D01*
X197290533Y-69733999D01*
X197293786Y-69757910D01*
X197359276Y-69934443D01*
X197532627Y-70071341D01*
X197779160Y-70145561D01*
X197887707Y-70152542D01*
X198207568Y-70109235D01*
X198415757Y-69981060D01*
X198508683Y-69770640D01*
X198513560Y-69695803D01*
X198487769Y-69483060D01*
X198394833Y-69327827D01*
X198211404Y-69209528D01*
X197914136Y-69107591D01*
X197816491Y-69081530D01*
X197519833Y-68992597D01*
X197242693Y-68888256D01*
X197049883Y-68793732D01*
X196752680Y-68535308D01*
X196562393Y-68212868D01*
X196477097Y-67854312D01*
X196494867Y-67487538D01*
X196613778Y-67140446D01*
X196831905Y-66840935D01*
X197147323Y-66616903D01*
X197201792Y-66592010D01*
X197526383Y-66509505D01*
X197915612Y-66492794D01*
X198307981Y-66539236D01*
G37*
G36*
X184925459Y-58219308D02*
G01*
X185263744Y-58334858D01*
X185518725Y-58486433D01*
X185760047Y-58688973D01*
X185956630Y-58909562D01*
X186077396Y-59115280D01*
X186100565Y-59221217D01*
X186119242Y-59234429D01*
X186179385Y-59246429D01*
X186287163Y-59257271D01*
X186448745Y-59267011D01*
X186670300Y-59275702D01*
X186957998Y-59283400D01*
X187318007Y-59290157D01*
X187756497Y-59296030D01*
X188279635Y-59301072D01*
X188893593Y-59305337D01*
X189604537Y-59308881D01*
X190418638Y-59311757D01*
X191342065Y-59314020D01*
X192380986Y-59315725D01*
X193541571Y-59316926D01*
X194829988Y-59317677D01*
X196252407Y-59318032D01*
X197078531Y-59318079D01*
X208056497Y-59318079D01*
X208055561Y-62851836D01*
X208054624Y-66385593D01*
X206548781Y-67939823D01*
X206171189Y-68332751D01*
X205828257Y-68695763D01*
X205532293Y-69015342D01*
X205295603Y-69277968D01*
X205130494Y-69470122D01*
X205049273Y-69578286D01*
X205042938Y-69593996D01*
X205006546Y-69707478D01*
X204913162Y-69890991D01*
X204833252Y-70024580D01*
X204546107Y-70358216D01*
X204181541Y-70601644D01*
X203771769Y-70743064D01*
X203349008Y-70770674D01*
X203002172Y-70695347D01*
X202562046Y-70463522D01*
X202227351Y-70135017D01*
X202001308Y-69713325D01*
X201951253Y-69554858D01*
X201912407Y-69185871D01*
X202820926Y-69185871D01*
X202871451Y-69505450D01*
X203026947Y-69729704D01*
X203270301Y-69850940D01*
X203580387Y-69885657D01*
X203835394Y-69801833D01*
X204000787Y-69668345D01*
X204155987Y-69431550D01*
X204192355Y-69179343D01*
X204128934Y-68936094D01*
X203984770Y-68726173D01*
X203778909Y-68573952D01*
X203530395Y-68503801D01*
X203258274Y-68540089D01*
X203154746Y-68585731D01*
X202945975Y-68745902D01*
X202842384Y-68966003D01*
X202820926Y-69185871D01*
X201912407Y-69185871D01*
X201906548Y-69130221D01*
X201988332Y-68714093D01*
X202180415Y-68330342D01*
X202466609Y-68002832D01*
X202830723Y-67755430D01*
X203256569Y-67612002D01*
X203270938Y-67609413D01*
X203648774Y-67608046D01*
X204047284Y-67716277D01*
X204418598Y-67917626D01*
X204598282Y-68066339D01*
X204889947Y-68349390D01*
X206041500Y-67188113D01*
X207193052Y-66026836D01*
X207194266Y-63138842D01*
X207195480Y-60250847D01*
X196665961Y-60253115D01*
X186136441Y-60255383D01*
X185944898Y-60571158D01*
X185646185Y-60936547D01*
X185269167Y-61182967D01*
X184822642Y-61305008D01*
X184738403Y-61313146D01*
X184290871Y-61302421D01*
X183918374Y-61189360D01*
X183583364Y-60960610D01*
X183484200Y-60867072D01*
X183206400Y-60504931D01*
X183054243Y-60119060D01*
X183030120Y-59872883D01*
X183887618Y-59872883D01*
X183933448Y-60007882D01*
X184061010Y-60162121D01*
X184111147Y-60213068D01*
X184363028Y-60405851D01*
X184612793Y-60463256D01*
X184888053Y-60390292D01*
X184942137Y-60363856D01*
X185166237Y-60178219D01*
X185283946Y-59931710D01*
X185295284Y-59659735D01*
X185200275Y-59397697D01*
X184998940Y-59181002D01*
X184941381Y-59143521D01*
X184665039Y-59053119D01*
X184391602Y-59087411D01*
X184151315Y-59230216D01*
X183974424Y-59465353D01*
X183900227Y-59700519D01*
X183887618Y-59872883D01*
X183030120Y-59872883D01*
X183015773Y-59726473D01*
X183079035Y-59344181D01*
X183232072Y-58989196D01*
X183462930Y-58678531D01*
X183759654Y-58429198D01*
X184110287Y-58258208D01*
X184502874Y-58182574D01*
X184925459Y-58219308D01*
G37*
G36*
X186477260Y-61556887D02*
G01*
X186925706Y-61578249D01*
X186944898Y-63354096D01*
X186964089Y-65129944D01*
X187823853Y-65129944D01*
X188683616Y-65129944D01*
X188683616Y-65560452D01*
X188683616Y-65990960D01*
X187404049Y-65990960D01*
X186989321Y-65988399D01*
X186625233Y-65981290D01*
X186335678Y-65970493D01*
X186144551Y-65956870D01*
X186076648Y-65943126D01*
X186064710Y-65862012D01*
X186053860Y-65655337D01*
X186044483Y-65341044D01*
X186036966Y-64937073D01*
X186031693Y-64461366D01*
X186029049Y-63931864D01*
X186028814Y-63715409D01*
X186028814Y-61535525D01*
X186477260Y-61556887D01*
G37*
G36*
X191117584Y-61596792D02*
G01*
X191506490Y-61757221D01*
X191800730Y-62019419D01*
X191893311Y-62157643D01*
X191950250Y-62266490D01*
X191991903Y-62379115D01*
X192020667Y-62519326D01*
X192038942Y-62710927D01*
X192049125Y-62977724D01*
X192053613Y-63343522D01*
X192054752Y-63760363D01*
X192054396Y-64228283D01*
X192050626Y-64576701D01*
X192040825Y-64829616D01*
X192022379Y-65011026D01*
X191992672Y-65144932D01*
X191949086Y-65255330D01*
X191889006Y-65366220D01*
X191877568Y-65385816D01*
X191634472Y-65666579D01*
X191299764Y-65867011D01*
X190905668Y-65979294D01*
X190484405Y-65995613D01*
X190068196Y-65908149D01*
X189939266Y-65856015D01*
X189697918Y-65725809D01*
X189513324Y-65571799D01*
X189378356Y-65374050D01*
X189285886Y-65112627D01*
X189228786Y-64767595D01*
X189199927Y-64319020D01*
X189192175Y-63766667D01*
X190118644Y-63766667D01*
X190122515Y-64256548D01*
X190138285Y-64621200D01*
X190172189Y-64878785D01*
X190230460Y-65047464D01*
X190319334Y-65145401D01*
X190445045Y-65190757D01*
X190611259Y-65201695D01*
X190829446Y-65174894D01*
X191005502Y-65109412D01*
X191019761Y-65099852D01*
X191070620Y-65052715D01*
X191107386Y-64982662D01*
X191132318Y-64868055D01*
X191147678Y-64687252D01*
X191155727Y-64418612D01*
X191158724Y-64040495D01*
X191159040Y-63766667D01*
X191156925Y-63279265D01*
X191145877Y-62916861D01*
X191118834Y-62660965D01*
X191068740Y-62493083D01*
X190988535Y-62394725D01*
X190871160Y-62347397D01*
X190709557Y-62332609D01*
X190611259Y-62331638D01*
X190443093Y-62342915D01*
X190317916Y-62388855D01*
X190229493Y-62487618D01*
X190171588Y-62657367D01*
X190137969Y-62916264D01*
X190122399Y-63282471D01*
X190118644Y-63766667D01*
X189192175Y-63766667D01*
X189200071Y-63203872D01*
X189228542Y-62763319D01*
X189284765Y-62424377D01*
X189375915Y-62166411D01*
X189509167Y-61968788D01*
X189691697Y-61810876D01*
X189918470Y-61678241D01*
X190258270Y-61571394D01*
X190642636Y-61542373D01*
X191117584Y-61596792D01*
G37*
G36*
X195700897Y-61990819D02*
G01*
X195722416Y-62403390D01*
X195144824Y-62403390D01*
X194567232Y-62403390D01*
X194567232Y-64197175D01*
X194567232Y-65990960D01*
X194136723Y-65990960D01*
X193706215Y-65990960D01*
X193706215Y-64197175D01*
X193706215Y-62403390D01*
X193128623Y-62403390D01*
X192551031Y-62403390D01*
X192572550Y-61990819D01*
X192594068Y-61578249D01*
X194136723Y-61578249D01*
X195679379Y-61578249D01*
X195700897Y-61990819D01*
G37*
G36*
X198944068Y-61971263D02*
G01*
X198944068Y-62403390D01*
X198513560Y-62403390D01*
X198083051Y-62403390D01*
X198083051Y-63766667D01*
X198083051Y-65129944D01*
X198513560Y-65129944D01*
X198944068Y-65129944D01*
X198944068Y-65560452D01*
X198944068Y-65990960D01*
X197664501Y-65990960D01*
X197249773Y-65988399D01*
X196885685Y-65981290D01*
X196596130Y-65970493D01*
X196405003Y-65956870D01*
X196337100Y-65943126D01*
X196310227Y-65849710D01*
X196292874Y-65661634D01*
X196289266Y-65512618D01*
X196289266Y-65129944D01*
X196719774Y-65129944D01*
X197150283Y-65129944D01*
X197150283Y-63766667D01*
X197150283Y-62403390D01*
X196716194Y-62403390D01*
X196282104Y-62403390D01*
X196303623Y-61990819D01*
X196325142Y-61578249D01*
X197634605Y-61558692D01*
X198944068Y-61539136D01*
X198944068Y-61971263D01*
G37*
G36*
X202675142Y-61972881D02*
G01*
X202675142Y-62403390D01*
X202138259Y-62403390D01*
X201601377Y-62403390D01*
X201582186Y-64179237D01*
X201562995Y-65955085D01*
X201165513Y-65976153D01*
X200937516Y-65979255D01*
X200771190Y-65964940D01*
X200717067Y-65946257D01*
X200702911Y-65863160D01*
X200690267Y-65656802D01*
X200679707Y-65347420D01*
X200671807Y-64955253D01*
X200667139Y-64500539D01*
X200666102Y-64149341D01*
X200666102Y-62403390D01*
X200127966Y-62403390D01*
X199589831Y-62403390D01*
X199589831Y-61972881D01*
X199589831Y-61542373D01*
X201132486Y-61542373D01*
X202675142Y-61542373D01*
X202675142Y-61972881D01*
G37*
G36*
X205058741Y-61582466D02*
G01*
X205406700Y-61710221D01*
X205693346Y-61936849D01*
X205702074Y-61946107D01*
X205821668Y-62087852D01*
X205910336Y-62236801D01*
X205972577Y-62416677D01*
X206012894Y-62651204D01*
X206035786Y-62964108D01*
X206045755Y-63379111D01*
X206047458Y-63766667D01*
X206042955Y-64197862D01*
X206030432Y-64583856D01*
X206011366Y-64897295D01*
X205987236Y-65110827D01*
X205971142Y-65179086D01*
X205804975Y-65462751D01*
X205552773Y-65720425D01*
X205278435Y-65892170D01*
X205021900Y-65958653D01*
X204695952Y-65985234D01*
X204357984Y-65972794D01*
X204065391Y-65922213D01*
X203930791Y-65871480D01*
X203687989Y-65727616D01*
X203503027Y-65571667D01*
X203368331Y-65382380D01*
X203276326Y-65138505D01*
X203219437Y-64818790D01*
X203190089Y-64401982D01*
X203180707Y-63866830D01*
X203180553Y-63766667D01*
X203180615Y-63754200D01*
X204110170Y-63754200D01*
X204112147Y-64206242D01*
X204119399Y-64536772D01*
X204133907Y-64767741D01*
X204157650Y-64921102D01*
X204192609Y-65018807D01*
X204228917Y-65070480D01*
X204398652Y-65167435D01*
X204631275Y-65200544D01*
X204860383Y-65168220D01*
X205001937Y-65088943D01*
X205044566Y-65024197D01*
X205075274Y-64914391D01*
X205095844Y-64738628D01*
X205108058Y-64476006D01*
X205113699Y-64105628D01*
X205114690Y-63766667D01*
X205112218Y-63278729D01*
X205100661Y-62915839D01*
X205073807Y-62659571D01*
X205025443Y-62491498D01*
X204949359Y-62393194D01*
X204839340Y-62346234D01*
X204689177Y-62332190D01*
X204630892Y-62331638D01*
X204453077Y-62339642D01*
X204321012Y-62375969D01*
X204227936Y-62459091D01*
X204167087Y-62607480D01*
X204131702Y-62839610D01*
X204115021Y-63173951D01*
X204110282Y-63628978D01*
X204110170Y-63754200D01*
X203180615Y-63754200D01*
X203182859Y-63305885D01*
X203191321Y-62962850D01*
X203208253Y-62711858D01*
X203235971Y-62527204D01*
X203276788Y-62383184D01*
X203313015Y-62295763D01*
X203521869Y-61952141D01*
X203789884Y-61719983D01*
X204137658Y-61587408D01*
X204585793Y-61542537D01*
X204619405Y-61542373D01*
X205058741Y-61582466D01*
G37*
D17*
X207580000Y-116580000D02*
X207580000Y-120420000D01*
X207580000Y-120420000D02*
X209420000Y-120420000D01*
X208500000Y-115630000D02*
X208500000Y-116580000D01*
X208500000Y-121370000D02*
X208500000Y-120420000D01*
X209420000Y-116580000D02*
X207580000Y-116580000D01*
X209420000Y-120420000D02*
X209420000Y-116580000D01*
X175620000Y-132021000D02*
X175620000Y-126780000D01*
X174925000Y-132021000D02*
X175620000Y-132021000D01*
X171621000Y-132021000D02*
X171621000Y-126780000D01*
X165380000Y-132021000D02*
X171621000Y-132021000D01*
X165380000Y-132021000D02*
X165380000Y-126780000D01*
X165380000Y-126780000D02*
X171621000Y-126780000D01*
X164926000Y-132021000D02*
X172075000Y-132021000D01*
X161380000Y-132021000D02*
X162074000Y-132021000D01*
X161380000Y-132021000D02*
X161380000Y-126780000D01*
X161380000Y-126780000D02*
X175620000Y-126780000D01*
D18*
X101376000Y-67497000D02*
X111790000Y-67497000D01*
X101376000Y-115503000D02*
X101376000Y-67497000D01*
X111790000Y-115503000D02*
X101376000Y-115503000D01*
X114584000Y-66100000D02*
X114584000Y-59750000D01*
X114584000Y-123250000D02*
X114584000Y-116900000D01*
X114584000Y-123250000D02*
X167416000Y-123250000D01*
X167416000Y-59750000D02*
X114584000Y-59750000D01*
X167416000Y-59750000D02*
X167416000Y-66100000D01*
X167416000Y-116900000D02*
X167416000Y-123250000D01*
X170210000Y-67497000D02*
X180624000Y-67497000D01*
X180624000Y-67497000D02*
X180624000Y-115503000D01*
X180624000Y-115503000D02*
X170210000Y-115503000D01*
D15*
X111848112Y-119520000D02*
G75*
G02*
X111531888Y-119520000I-158112J0D01*
G01*
X111531888Y-119520000D02*
G75*
G02*
X111848112Y-119520000I158112J0D01*
G01*
%LPC*%
D19*
X204186000Y-100503700D03*
D20*
X204186000Y-94003700D03*
D19*
X189436000Y-86000000D03*
D20*
X189436000Y-83000000D03*
D21*
X200686000Y-114953700D03*
X200686000Y-117503700D03*
D22*
X200686000Y-120053700D03*
D23*
X189186000Y-95003700D03*
X189186000Y-102503700D03*
X189186000Y-110003700D03*
D24*
X189186000Y-120003700D03*
D25*
X104000000Y-131500000D03*
X210500000Y-57000000D03*
D26*
X208500000Y-114690000D03*
D27*
X208500000Y-122310000D03*
D28*
X173500000Y-131900000D03*
X168500000Y-129400000D03*
X163500000Y-131900000D03*
D25*
X103000000Y-57000000D03*
D29*
X113314000Y-115236300D03*
D30*
X113314000Y-99996300D03*
X113314000Y-67763700D03*
X113314000Y-83003700D03*
X168686000Y-115236300D03*
X168686000Y-99996300D03*
X168686000Y-67763700D03*
X168686000Y-83003700D03*
D25*
X181500000Y-131500000D03*
X210500000Y-131464466D03*
X180000000Y-57000000D03*
D31*
X136500000Y-129000000D03*
X146500000Y-129000000D03*
D32*
X141500000Y-129000000D03*
D31*
X151750000Y-129000000D03*
D33*
X192150000Y-128500000D03*
X201000000Y-128500000D03*
%LPD*%
M02*
